<svg width="172" height="98" viewBox="0 0 172 98" fill="none" xmlns="http://www.w3.org/2000/svg">
<g clip-path="url(#clip0_74_3023)">
<rect width="172" height="98" rx="6" fill="#D7ECFF"/>
<g filter="url(#filter0_d_74_3023)">
<rect x="66" y="10" width="40" height="40" rx="3" fill="white"/>
</g>
<path d="M81.3959 19.7083C81.3959 19.2596 81.0321 18.8958 80.5834 18.8958C80.1346 18.8958 79.7709 19.2596 79.7709 19.7083V21.4192C78.2116 21.5441 77.1879 21.8505 76.4359 22.6025C75.6838 23.3546 75.3774 24.3782 75.2526 25.9375H96.7475C96.6227 24.3782 96.3162 23.3546 95.5641 22.6025C94.8121 21.8505 93.7884 21.5441 92.2292 21.4192V19.7083C92.2292 19.2596 91.8654 18.8958 91.4167 18.8958C90.968 18.8958 90.6042 19.2596 90.6042 19.7083V21.3473C89.8835 21.3333 89.0756 21.3333 88.1667 21.3333H83.8334C82.9244 21.3333 82.1166 21.3333 81.3959 21.3473V19.7083Z" fill="#269AFD"/>
<path fill-rule="evenodd" clip-rule="evenodd" d="M75.1666 30C75.1666 29.0911 75.1666 28.2832 75.1806 27.5625H96.8193C96.8333 28.2832 96.8333 29.0911 96.8333 30V32.1667C96.8333 36.2521 96.8333 38.295 95.5641 39.5641C94.2949 40.8333 92.2521 40.8333 88.1666 40.8333H83.8333C79.7478 40.8333 77.705 40.8333 76.4358 39.5641C75.1666 38.295 75.1666 36.2521 75.1666 32.1667V30ZM91.4166 32.1667C92.0149 32.1667 92.5 31.6817 92.5 31.0833C92.5 30.485 92.0149 30 91.4166 30C90.8183 30 90.3333 30.485 90.3333 31.0833C90.3333 31.6817 90.8183 32.1667 91.4166 32.1667ZM91.4166 36.5C92.0149 36.5 92.5 36.015 92.5 35.4167C92.5 34.8183 92.0149 34.3333 91.4166 34.3333C90.8183 34.3333 90.3333 34.8183 90.3333 35.4167C90.3333 36.015 90.8183 36.5 91.4166 36.5ZM87.0833 31.0833C87.0833 31.6817 86.5983 32.1667 86 32.1667C85.4016 32.1667 84.9166 31.6817 84.9166 31.0833C84.9166 30.485 85.4016 30 86 30C86.5983 30 87.0833 30.485 87.0833 31.0833ZM87.0833 35.4167C87.0833 36.015 86.5983 36.5 86 36.5C85.4016 36.5 84.9166 36.015 84.9166 35.4167C84.9166 34.8183 85.4016 34.3333 86 34.3333C86.5983 34.3333 87.0833 34.8183 87.0833 35.4167ZM80.5833 32.1667C81.1816 32.1667 81.6666 31.6817 81.6666 31.0833C81.6666 30.485 81.1816 30 80.5833 30C79.985 30 79.5 30.485 79.5 31.0833C79.5 31.6817 79.985 32.1667 80.5833 32.1667ZM80.5833 36.5C81.1816 36.5 81.6666 36.015 81.6666 35.4167C81.6666 34.8183 81.1816 34.3333 80.5833 34.3333C79.985 34.3333 79.5 34.8183 79.5 35.4167C79.5 36.015 79.985 36.5 80.5833 36.5Z" fill="#269AFD"/>
<path d="M22.716 80H21.0853L24.7494 69.8182H26.5242L30.1883 80H28.5576L25.6791 71.6676H25.5995L22.716 80ZM22.9894 76.0128H28.2792V77.3054H22.9894V76.0128ZM34.6329 80.1541C33.8938 80.1541 33.2574 79.9867 32.7238 79.652C32.1935 79.3139 31.7858 78.8482 31.5008 78.255C31.2158 77.6617 31.0732 76.9822 31.0732 76.2166C31.0732 75.4411 31.2191 74.7566 31.5107 74.1634C31.8024 73.5668 32.2134 73.1011 32.7437 72.7663C33.274 72.4316 33.8988 72.2642 34.618 72.2642C35.198 72.2642 35.7151 72.3719 36.1691 72.5874C36.6232 72.7995 36.9894 73.0978 37.2678 73.4822C37.5496 73.8667 37.7169 74.3158 37.77 74.8295H36.3232C36.2437 74.4716 36.0614 74.1634 35.7764 73.9048C35.4946 73.6463 35.1168 73.517 34.6428 73.517C34.2285 73.517 33.8656 73.6264 33.5541 73.8452C33.2458 74.0606 33.0055 74.3688 32.8332 74.7699C32.6608 75.1676 32.5747 75.6383 32.5747 76.1818C32.5747 76.7386 32.6592 77.2192 32.8282 77.6236C32.9972 78.0279 33.2359 78.3411 33.5441 78.5632C33.8557 78.7853 34.2219 78.8963 34.6428 78.8963C34.9246 78.8963 35.1798 78.8449 35.4085 78.7422C35.6405 78.6361 35.8344 78.4853 35.9901 78.2898C36.1492 78.0942 36.2603 77.8589 36.3232 77.5838H37.77C37.7169 78.0777 37.5562 78.5185 37.2877 78.9062C37.0193 79.294 36.6597 79.599 36.2089 79.821C35.7615 80.0431 35.2361 80.1541 34.6329 80.1541ZM41.5819 80.169C41.098 80.169 40.6605 80.0795 40.2694 79.9006C39.8783 79.7183 39.5684 79.4548 39.3398 79.1101C39.1144 78.7654 39.0017 78.3428 39.0017 77.8423C39.0017 77.4115 39.0845 77.0568 39.2503 76.7784C39.416 76.5 39.6397 76.2796 39.9214 76.1172C40.2032 75.9548 40.518 75.8321 40.866 75.7493C41.214 75.6664 41.5687 75.6035 41.93 75.5604C42.3873 75.5073 42.7586 75.4643 43.0436 75.4311C43.3286 75.3946 43.5358 75.3366 43.665 75.2571C43.7943 75.1776 43.8589 75.0483 43.8589 74.8693V74.8345C43.8589 74.4003 43.7363 74.0639 43.491 73.8253C43.2491 73.5866 42.8878 73.4673 42.4072 73.4673C41.9068 73.4673 41.5123 73.5784 41.224 73.8004C40.939 74.0192 40.7417 74.2628 40.6324 74.5312L39.2354 74.2131C39.4011 73.7491 39.643 73.3745 39.9612 73.0895C40.2827 72.8011 40.6523 72.5923 41.0699 72.4631C41.4875 72.3305 41.9266 72.2642 42.3873 72.2642C42.6923 72.2642 43.0154 72.3007 43.3568 72.3736C43.7015 72.4432 44.023 72.5724 44.3213 72.7614C44.6229 72.9503 44.8698 73.2204 45.0621 73.5717C45.2543 73.9197 45.3504 74.3722 45.3504 74.929V80H43.8987V78.956H43.839C43.7429 79.1482 43.5988 79.3371 43.4065 79.5227C43.2143 79.7083 42.9674 79.8625 42.6657 79.9851C42.3641 80.1077 42.0029 80.169 41.5819 80.169ZM41.9051 78.9759C42.3161 78.9759 42.6674 78.8946 42.9591 78.7322C43.2541 78.5698 43.4778 78.3577 43.6302 78.0959C43.786 77.8307 43.8639 77.5473 43.8639 77.2457V76.2614C43.8109 76.3144 43.7081 76.3641 43.5557 76.4105C43.4065 76.4536 43.2358 76.4917 43.0436 76.5249C42.8514 76.5547 42.6641 76.5829 42.4818 76.6094C42.2995 76.6326 42.147 76.6525 42.0244 76.669C41.7361 76.7055 41.4726 76.7668 41.2339 76.853C40.9986 76.9392 40.8097 77.0634 40.6672 77.2259C40.528 77.3849 40.4584 77.5971 40.4584 77.8622C40.4584 78.2301 40.5943 78.5085 40.866 78.6974C41.1378 78.883 41.4842 78.9759 41.9051 78.9759ZM50.189 80.1491C49.5725 80.1491 49.0223 79.9917 48.5384 79.6768C48.0579 79.3587 47.68 78.9062 47.4049 78.3196C47.1331 77.7296 46.9972 77.022 46.9972 76.1967C46.9972 75.3714 47.1348 74.6655 47.4099 74.0788C47.6883 73.4922 48.0695 73.0431 48.5534 72.7315C49.0373 72.42 49.5858 72.2642 50.199 72.2642C50.6729 72.2642 51.0541 72.3438 51.3424 72.5028C51.6341 72.6586 51.8595 72.8409 52.0186 73.0497C52.181 73.2585 52.3069 73.4425 52.3964 73.6016H52.4859V69.8182H53.9724V80H52.5207V78.8118H52.3964C52.3069 78.9742 52.1776 79.1598 52.0086 79.3686C51.8429 79.5774 51.6142 79.7597 51.3225 79.9155C51.0309 80.0713 50.653 80.1491 50.189 80.1491ZM50.5171 78.8814C50.9447 78.8814 51.306 78.7687 51.6009 78.5433C51.8992 78.3146 52.1246 77.9981 52.2771 77.5938C52.4329 77.1894 52.5107 76.7187 52.5107 76.1818C52.5107 75.6515 52.4345 75.1875 52.282 74.7898C52.1296 74.392 51.9059 74.0821 51.6109 73.8601C51.3159 73.638 50.9513 73.527 50.5171 73.527C50.0697 73.527 49.6968 73.643 49.3985 73.875C49.1002 74.107 48.8749 74.4235 48.7224 74.8246C48.5732 75.2256 48.4987 75.678 48.4987 76.1818C48.4987 76.6922 48.5749 77.1513 48.7274 77.5589C48.8798 77.9666 49.1052 78.2898 49.4035 78.5284C49.7051 78.7637 50.0763 78.8814 50.5171 78.8814ZM59.3852 80.1541C58.6328 80.1541 57.9849 79.9934 57.4413 79.6719C56.9011 79.3471 56.4835 78.8913 56.1885 78.3047C55.8968 77.7147 55.751 77.0237 55.751 76.2315C55.751 75.4493 55.8968 74.7599 56.1885 74.1634C56.4835 73.5668 56.8944 73.1011 57.4214 72.7663C57.9517 72.4316 58.5715 72.2642 59.2808 72.2642C59.7117 72.2642 60.1293 72.3355 60.5336 72.478C60.938 72.6205 61.3009 72.8442 61.6224 73.1491C61.9439 73.4541 62.1975 73.8501 62.3831 74.3374C62.5687 74.8213 62.6615 75.4096 62.6615 76.1023V76.6293H56.5912V75.5156H61.2048C61.2048 75.1245 61.1253 74.7782 60.9662 74.4766C60.8071 74.1716 60.5834 73.9313 60.295 73.7557C60.01 73.58 59.6752 73.4922 59.2907 73.4922C58.8731 73.4922 58.5086 73.5949 58.197 73.8004C57.8888 74.0026 57.6501 74.2678 57.4811 74.5959C57.3154 74.9207 57.2325 75.2737 57.2325 75.6548V76.5249C57.2325 77.0353 57.322 77.4695 57.501 77.8274C57.6833 78.1854 57.9368 78.4588 58.2616 78.6477C58.5864 78.8333 58.9659 78.9261 59.4001 78.9261C59.6818 78.9261 59.9387 78.8864 60.1707 78.8068C60.4027 78.724 60.6032 78.6013 60.7723 78.4389C60.9413 78.2765 61.0706 78.076 61.1601 77.8374L62.567 78.0909C62.4543 78.5052 62.2522 78.8681 61.9605 79.1797C61.6721 79.4879 61.3092 79.7282 60.8717 79.9006C60.4375 80.0696 59.942 80.1541 59.3852 80.1541ZM64.3108 80V72.3636H65.7377V73.6065H65.8321C65.9912 73.1856 66.2514 72.8575 66.6127 72.6222C66.9739 72.3835 67.4065 72.2642 67.9102 72.2642C68.4207 72.2642 68.8482 72.3835 69.1929 72.6222C69.5409 72.8608 69.7978 73.1889 69.9635 73.6065H70.0431C70.2253 73.1989 70.5154 72.8741 70.9131 72.6321C71.3108 72.3868 71.7848 72.2642 72.335 72.2642C73.0277 72.2642 73.5928 72.4813 74.0303 72.9155C74.4711 73.3497 74.6915 74.0043 74.6915 74.8793V80H73.205V75.0185C73.205 74.5014 73.0641 74.1269 72.7824 73.8949C72.5007 73.6629 72.1643 73.5469 71.7732 73.5469C71.2893 73.5469 70.9131 73.696 70.6446 73.9943C70.3762 74.2893 70.2419 74.6688 70.2419 75.1328V80H68.7604V74.924C68.7604 74.5097 68.6311 74.1766 68.3726 73.9247C68.1141 73.6728 67.7777 73.5469 67.3634 73.5469C67.0816 73.5469 66.8215 73.6214 66.5828 73.7706C66.3475 73.9164 66.1569 74.1203 66.0111 74.3821C65.8686 74.6439 65.7973 74.9472 65.7973 75.2919V80H64.3108ZM76.6839 80V72.3636H78.1704V80H76.6839ZM77.4346 71.1854C77.176 71.1854 76.954 71.0992 76.7684 70.9268C76.5861 70.7512 76.4949 70.5424 76.4949 70.3004C76.4949 70.0552 76.5861 69.8464 76.7684 69.674C76.954 69.4983 77.176 69.4105 77.4346 69.4105C77.6931 69.4105 77.9135 69.4983 78.0958 69.674C78.2814 69.8464 78.3742 70.0552 78.3742 70.3004C78.3742 70.5424 78.2814 70.7512 78.0958 70.9268C77.9135 71.0992 77.6931 71.1854 77.4346 71.1854ZM83.3868 80.1541C82.6477 80.1541 82.0113 79.9867 81.4777 79.652C80.9474 79.3139 80.5397 78.8482 80.2547 78.255C79.9697 77.6617 79.8271 76.9822 79.8271 76.2166C79.8271 75.4411 79.973 74.7566 80.2646 74.1634C80.5563 73.5668 80.9673 73.1011 81.4976 72.7663C82.0279 72.4316 82.6527 72.2642 83.3719 72.2642C83.9519 72.2642 84.469 72.3719 84.923 72.5874C85.3771 72.7995 85.7433 73.0978 86.0218 73.4822C86.3035 73.8667 86.4709 74.3158 86.5239 74.8295H85.0771C84.9976 74.4716 84.8153 74.1634 84.5303 73.9048C84.2485 73.6463 83.8707 73.517 83.3968 73.517C82.9825 73.517 82.6195 73.6264 82.308 73.8452C81.9997 74.0606 81.7594 74.3688 81.5871 74.7699C81.4147 75.1676 81.3286 75.6383 81.3286 76.1818C81.3286 76.7386 81.4131 77.2192 81.5821 77.6236C81.7512 78.0279 81.9898 78.3411 82.298 78.5632C82.6096 78.7853 82.9758 78.8963 83.3968 78.8963C83.6785 78.8963 83.9337 78.8449 84.1624 78.7422C84.3944 78.6361 84.5883 78.4853 84.7441 78.2898C84.9031 78.0942 85.0142 77.8589 85.0771 77.5838H86.5239C86.4709 78.0777 86.3101 78.5185 86.0416 78.9062C85.7732 79.294 85.4136 79.599 84.9628 79.821C84.5154 80.0431 83.99 80.1541 83.3868 80.1541ZM100.395 73.1293H98.8435C98.7838 72.7978 98.6728 72.5062 98.5104 72.2543C98.348 72.0024 98.1491 71.7886 97.9138 71.6129C97.6785 71.4373 97.415 71.3047 97.1233 71.2152C96.835 71.1257 96.5284 71.081 96.2036 71.081C95.6169 71.081 95.0916 71.2285 94.6276 71.5234C94.1669 71.8184 93.8023 72.2509 93.5338 72.821C93.2687 73.3911 93.1361 74.0871 93.1361 74.9091C93.1361 75.7377 93.2687 76.437 93.5338 77.0071C93.8023 77.5772 94.1685 78.008 94.6325 78.2997C95.0966 78.5914 95.6186 78.7372 96.1986 78.7372C96.5201 78.7372 96.825 78.6941 97.1134 78.608C97.405 78.5185 97.6685 78.3875 97.9039 78.2152C98.1392 78.0429 98.338 77.8324 98.5004 77.5838C98.6662 77.3319 98.7805 77.0436 98.8435 76.7188L100.395 76.7237C100.312 77.2242 100.151 77.6849 99.9124 78.1058C99.6771 78.5234 99.3738 78.8847 99.0026 79.1896C98.6347 79.4912 98.2137 79.7249 97.7398 79.8906C97.2658 80.0563 96.7488 80.1392 96.1887 80.1392C95.307 80.1392 94.5215 79.9304 93.8321 79.5128C93.1427 79.0919 92.5992 78.4903 92.2014 77.7081C91.807 76.9259 91.6098 75.9929 91.6098 74.9091C91.6098 73.822 91.8087 72.889 92.2064 72.1101C92.6041 71.3279 93.1477 70.728 93.8371 70.3104C94.5265 69.8894 95.3103 69.679 96.1887 69.679C96.7289 69.679 97.2327 69.7569 97.7 69.9126C98.1707 70.0651 98.5932 70.2905 98.9678 70.5888C99.3423 70.8838 99.6522 71.245 99.8975 71.6726C100.143 72.0968 100.308 72.5824 100.395 73.1293ZM104.336 80.169C103.852 80.169 103.414 80.0795 103.023 79.9006C102.632 79.7183 102.322 79.4548 102.094 79.1101C101.868 78.7654 101.756 78.3428 101.756 77.8423C101.756 77.4115 101.838 77.0568 102.004 76.7784C102.17 76.5 102.394 76.2796 102.675 76.1172C102.957 75.9548 103.272 75.8321 103.62 75.7493C103.968 75.6664 104.323 75.6035 104.684 75.5604C105.141 75.5073 105.512 75.4643 105.797 75.4311C106.083 75.3946 106.29 75.3366 106.419 75.2571C106.548 75.1776 106.613 75.0483 106.613 74.8693V74.8345C106.613 74.4003 106.49 74.0639 106.245 73.8253C106.003 73.5866 105.642 73.4673 105.161 73.4673C104.661 73.4673 104.266 73.5784 103.978 73.8004C103.693 74.0192 103.496 74.2628 103.386 74.5312L101.989 74.2131C102.155 73.7491 102.397 73.3745 102.715 73.0895C103.037 72.8011 103.406 72.5923 103.824 72.4631C104.241 72.3305 104.681 72.2642 105.141 72.2642C105.446 72.2642 105.769 72.3007 106.111 72.3736C106.455 72.4432 106.777 72.5724 107.075 72.7614C107.377 72.9503 107.624 73.2204 107.816 73.5717C108.008 73.9197 108.104 74.3722 108.104 74.929V80H106.653V78.956H106.593C106.497 79.1482 106.353 79.3371 106.16 79.5227C105.968 79.7083 105.721 79.8625 105.42 79.9851C105.118 80.1077 104.757 80.169 104.336 80.169ZM104.659 78.9759C105.07 78.9759 105.421 78.8946 105.713 78.7322C106.008 78.5698 106.232 78.3577 106.384 78.0959C106.54 77.8307 106.618 77.5473 106.618 77.2457V76.2614C106.565 76.3144 106.462 76.3641 106.31 76.4105C106.16 76.4536 105.99 76.4917 105.797 76.5249C105.605 76.5547 105.418 76.5829 105.236 76.6094C105.053 76.6326 104.901 76.6525 104.778 76.669C104.49 76.7055 104.226 76.7668 103.988 76.853C103.753 76.9392 103.564 77.0634 103.421 77.2259C103.282 77.3849 103.212 77.5971 103.212 77.8622C103.212 78.2301 103.348 78.5085 103.62 78.6974C103.892 78.883 104.238 78.9759 104.659 78.9759ZM111.571 69.8182V80H110.084V69.8182H111.571ZM116.862 80.1541C116.109 80.1541 115.461 79.9934 114.918 79.6719C114.378 79.3471 113.96 78.8913 113.665 78.3047C113.373 77.7147 113.228 77.0237 113.228 76.2315C113.228 75.4493 113.373 74.7599 113.665 74.1634C113.96 73.5668 114.371 73.1011 114.898 72.7663C115.428 72.4316 116.048 72.2642 116.757 72.2642C117.188 72.2642 117.606 72.3355 118.01 72.478C118.415 72.6205 118.777 72.8442 119.099 73.1491C119.42 73.4541 119.674 73.8501 119.86 74.3374C120.045 74.8213 120.138 75.4096 120.138 76.1023V76.6293H114.068V75.5156H118.681C118.681 75.1245 118.602 74.7782 118.443 74.4766C118.284 74.1716 118.06 73.9313 117.772 73.7557C117.487 73.58 117.152 73.4922 116.767 73.4922C116.35 73.4922 115.985 73.5949 115.674 73.8004C115.365 74.0026 115.127 74.2678 114.958 74.5959C114.792 74.9207 114.709 75.2737 114.709 75.6548V76.5249C114.709 77.0353 114.799 77.4695 114.978 77.8274C115.16 78.1854 115.413 78.4588 115.738 78.6477C116.063 78.8333 116.443 78.9261 116.877 78.9261C117.158 78.9261 117.415 78.8864 117.647 78.8068C117.879 78.724 118.08 78.6013 118.249 78.4389C118.418 78.2765 118.547 78.076 118.637 77.8374L120.044 78.0909C119.931 78.5052 119.729 78.8681 119.437 79.1797C119.149 79.4879 118.786 79.7282 118.348 79.9006C117.914 80.0696 117.419 80.1541 116.862 80.1541ZM123.274 75.4659V80H121.787V72.3636H123.214V73.6065H123.309C123.484 73.2022 123.759 72.8774 124.134 72.6321C124.512 72.3868 124.987 72.2642 125.561 72.2642C126.081 72.2642 126.537 72.3736 126.928 72.5923C127.319 72.8078 127.622 73.1293 127.838 73.5568C128.053 73.9844 128.161 74.513 128.161 75.1428V80H126.674V75.3217C126.674 74.7682 126.53 74.3357 126.242 74.0241C125.954 73.7093 125.557 73.5518 125.054 73.5518C124.709 73.5518 124.402 73.6264 124.134 73.7756C123.869 73.9247 123.658 74.1435 123.503 74.4318C123.35 74.7169 123.274 75.0616 123.274 75.4659ZM133.013 80.1491C132.397 80.1491 131.847 79.9917 131.363 79.6768C130.882 79.3587 130.504 78.9062 130.229 78.3196C129.957 77.7296 129.821 77.022 129.821 76.1967C129.821 75.3714 129.959 74.6655 130.234 74.0788C130.513 73.4922 130.894 73.0431 131.378 72.7315C131.861 72.42 132.41 72.2642 133.023 72.2642C133.497 72.2642 133.878 72.3438 134.167 72.5028C134.458 72.6586 134.684 72.8409 134.843 73.0497C135.005 73.2585 135.131 73.4425 135.221 73.6016H135.31V69.8182H136.797V80H135.345V78.8118H135.221C135.131 78.9742 135.002 79.1598 134.833 79.3686C134.667 79.5774 134.438 79.7597 134.147 79.9155C133.855 80.0713 133.477 80.1491 133.013 80.1491ZM133.341 78.8814C133.769 78.8814 134.13 78.7687 134.425 78.5433C134.723 78.3146 134.949 77.9981 135.101 77.5938C135.257 77.1894 135.335 76.7187 135.335 76.1818C135.335 75.6515 135.259 75.1875 135.106 74.7898C134.954 74.392 134.73 74.0821 134.435 73.8601C134.14 73.638 133.776 73.527 133.341 73.527C132.894 73.527 132.521 73.643 132.223 73.875C131.924 74.107 131.699 74.4235 131.547 74.8246C131.397 75.2256 131.323 75.678 131.323 76.1818C131.323 76.6922 131.399 77.1513 131.552 77.5589C131.704 77.9666 131.929 78.2898 132.228 78.5284C132.529 78.7637 132.901 78.8814 133.341 78.8814ZM141.141 80.169C140.657 80.169 140.219 80.0795 139.828 79.9006C139.437 79.7183 139.127 79.4548 138.898 79.1101C138.673 78.7654 138.56 78.3428 138.56 77.8423C138.56 77.4115 138.643 77.0568 138.809 76.7784C138.975 76.5 139.198 76.2796 139.48 76.1172C139.762 75.9548 140.077 75.8321 140.425 75.7493C140.773 75.6664 141.127 75.6035 141.489 75.5604C141.946 75.5073 142.317 75.4643 142.602 75.4311C142.887 75.3946 143.094 75.3366 143.224 75.2571C143.353 75.1776 143.418 75.0483 143.418 74.8693V74.8345C143.418 74.4003 143.295 74.0639 143.05 73.8253C142.808 73.5866 142.446 73.4673 141.966 73.4673C141.465 73.4673 141.071 73.5784 140.783 73.8004C140.498 74.0192 140.3 74.2628 140.191 74.5312L138.794 74.2131C138.96 73.7491 139.202 73.3745 139.52 73.0895C139.841 72.8011 140.211 72.5923 140.628 72.4631C141.046 72.3305 141.485 72.2642 141.946 72.2642C142.251 72.2642 142.574 72.3007 142.915 72.3736C143.26 72.4432 143.582 72.5724 143.88 72.7614C144.181 72.9503 144.428 73.2204 144.621 73.5717C144.813 73.9197 144.909 74.3722 144.909 74.929V80H143.457V78.956H143.398C143.302 79.1482 143.157 79.3371 142.965 79.5227C142.773 79.7083 142.526 79.8625 142.224 79.9851C141.923 80.1077 141.561 80.169 141.141 80.169ZM141.464 78.9759C141.875 78.9759 142.226 78.8946 142.518 78.7322C142.813 78.5698 143.036 78.3577 143.189 78.0959C143.345 77.8307 143.422 77.5473 143.422 77.2457V76.2614C143.369 76.3144 143.267 76.3641 143.114 76.4105C142.965 76.4536 142.794 76.4917 142.602 76.5249C142.41 76.5547 142.223 76.5829 142.04 76.6094C141.858 76.6326 141.706 76.6525 141.583 76.669C141.295 76.7055 141.031 76.7668 140.793 76.853C140.557 76.9392 140.368 77.0634 140.226 77.2259C140.087 77.3849 140.017 77.5971 140.017 77.8622C140.017 78.2301 140.153 78.5085 140.425 78.6974C140.696 78.883 141.043 78.9759 141.464 78.9759ZM146.889 80V72.3636H148.326V73.5767H148.405C148.544 73.1657 148.79 72.8426 149.141 72.6072C149.496 72.3686 149.897 72.2493 150.344 72.2493C150.437 72.2493 150.546 72.2526 150.672 72.2592C150.802 72.2659 150.903 72.2741 150.976 72.2841V73.706C150.916 73.6894 150.81 73.6712 150.657 73.6513C150.505 73.6281 150.352 73.6165 150.2 73.6165C149.849 73.6165 149.535 73.6911 149.26 73.8402C148.989 73.986 148.773 74.1899 148.614 74.4517C148.455 74.7102 148.375 75.0052 148.375 75.3366V80H146.889Z" fill="#2D2D2D"/>
</g>
<rect x="0.5" y="0.5" width="171" height="97" rx="5.5" stroke="#269AFD"/>
<defs>
<filter id="filter0_d_74_3023" x="55" y="-1" width="62" height="62" filterUnits="userSpaceOnUse" color-interpolation-filters="sRGB">
<feFlood flood-opacity="0" result="BackgroundImageFix"/>
<feColorMatrix in="SourceAlpha" type="matrix" values="0 0 0 0 0 0 0 0 0 0 0 0 0 0 0 0 0 0 127 0" result="hardAlpha"/>
<feOffset/>
<feGaussianBlur stdDeviation="5.5"/>
<feComposite in2="hardAlpha" operator="out"/>
<feColorMatrix type="matrix" values="0 0 0 0 0.14902 0 0 0 0 0.603922 0 0 0 0 0.992157 0 0 0 0.25 0"/>
<feBlend mode="normal" in2="BackgroundImageFix" result="effect1_dropShadow_74_3023"/>
<feBlend mode="normal" in="SourceGraphic" in2="effect1_dropShadow_74_3023" result="shape"/>
</filter>
<clipPath id="clip0_74_3023">
<rect width="172" height="98" rx="6" fill="white"/>
</clipPath>
</defs>
</svg>
