<svg width="156" height="127" viewBox="0 0 156 127" fill="none" xmlns="http://www.w3.org/2000/svg">
<g clip-path="url(#clip0_163_2396)">
<path d="M147.2 46.72V50.48H148.64V43.04H147.2V46.8V46.72ZM111.44 45.68C111.44 47.76 111.44 48.4 111.6 48.72C111.92 49.84 112.56 50.48 113.6 50.64C114.56 50.8 115.52 50.48 116.16 49.84L116.56 49.44V49.76C116.56 49.92 116.64 50.16 116.64 50.32V50.56H117.92V50C117.92 49.68 117.84 48 117.84 46.24V43.12H116.4V45.6C116.4 47.04 116.4 48.16 116.4 48.32C116.32 48.64 115.84 49.2 115.52 49.36C115.12 49.52 114.64 49.6 114.24 49.52C113.76 49.44 113.36 49.12 113.2 48.56C113.04 48.16 113.04 48 112.96 45.6V43.04H111.52V45.68H111.44ZM23.76 45.68C23.76 47.76 23.76 48.4 23.92 48.72C24.24 49.84 24.88 50.48 25.92 50.64C26.88 50.8 27.84 50.48 28.48 49.84L28.88 49.44V50L28.96 50.56H30.24V50.16C30.24 49.92 30.16 48.24 30.16 46.4V43.04H28.72V45.52C28.72 47.84 28.72 48 28.56 48.32C27.92 49.68 26.16 49.92 25.52 48.72C25.28 48.24 25.2 47.6 25.2 45.28V43.04H23.76V45.68ZM134.16 42.88C133.52 43.04 132.88 43.44 132.56 44.08L132.4 44.4V43.92C132.4 43.68 132.4 43.36 132.4 43.2V42.96H131.2V50.4H132.64V48.08C132.64 45.52 132.72 45.28 133.2 44.72C133.6 44.32 134 44.08 134.56 44.08H135.04V43.44C135.04 42.8 135.04 42.8 134.88 42.72C134.72 42.72 134.64 42.72 134.24 42.72M121.76 42.88C120.88 42.96 120.16 43.52 119.84 44.24C119.68 44.64 119.68 45.36 119.84 45.76C120 46.16 120.56 46.72 121.2 46.96C122.8 47.68 123.04 47.92 123.04 48.48C123.04 49.36 122.08 49.76 120.8 49.44C120.56 49.44 120.24 49.28 120.08 49.2C119.92 49.12 119.84 49.04 119.84 49.04C119.84 49.04 119.76 49.28 119.68 49.6C119.6 49.92 119.52 50.16 119.6 50.16C119.6 50.16 119.84 50.32 120.08 50.4C121.44 50.88 122.96 50.72 123.76 50C124.56 49.28 124.72 48.16 124.16 47.28C123.92 46.88 123.36 46.48 122.4 46.08C122 45.92 121.6 45.68 121.44 45.52C121.2 45.28 121.2 45.2 121.2 44.88C121.2 44.56 121.36 44.24 121.76 44C122.16 43.84 122.8 43.84 123.28 44C123.52 44.08 123.76 44.16 123.84 44.16C123.92 44.16 124 44.16 124.16 43.68C124.32 43.12 124.4 43.12 123.68 42.88C123.12 42.72 122.56 42.64 121.92 42.72L121.76 42.88ZM94.64 42.88C93.28 43.12 92.32 44.16 92.56 45.36C92.72 46.16 93.36 46.72 94.64 47.2C94.96 47.36 95.28 47.52 95.52 47.76C95.84 48.08 95.84 48.08 95.84 48.48C95.84 48.88 95.68 49.2 95.2 49.44C94.56 49.68 93.68 49.6 92.64 49.04C92.56 49.04 92.24 50.08 92.32 50.16C92.48 50.32 93.2 50.56 93.76 50.64C94.4 50.72 95.36 50.64 95.92 50.4C96.4 50.16 96.88 49.68 97.04 49.28C97.04 49.12 97.12 48.8 97.12 48.48C97.12 47.36 96.64 46.8 94.88 46.08C94.08 45.76 93.76 45.44 93.76 45.04C93.76 44.64 93.76 44.64 93.84 44.48C94.08 44 95.04 43.84 95.84 44.16C96.08 44.24 96.32 44.32 96.4 44.32C96.48 44.32 96.56 44.32 96.72 43.84C96.88 43.28 96.96 43.28 96.24 43.04C95.68 42.88 95.04 42.8 94.56 42.88H94.64ZM13.44 42.88C12.8 42.96 12.24 43.52 11.92 44.08C11.76 44.4 11.68 44.32 11.68 43.68V43.04H10.4V43.36C10.4 43.52 10.48 45.2 10.48 47.12V50.48H11.92V48.08V45.68L12.16 45.2C12.32 44.88 12.48 44.64 12.64 44.48C12.96 44.24 13.6 44.08 13.92 44.16H14.16V43.52C14.16 42.88 14.16 42.88 14 42.8C13.84 42.8 13.76 42.8 13.36 42.8L13.44 42.88ZM126.96 41.44L126.32 41.6V42.96H125.2V44H126.32V46.48C126.32 48.48 126.4 49.04 126.48 49.28C126.8 50.16 127.44 50.56 128.4 50.56C128.72 50.56 129.12 50.56 129.28 50.48H129.6C129.6 50.4 129.6 50.08 129.6 50.08C129.6 49.92 129.6 49.68 129.6 49.6C129.6 49.44 129.6 49.44 129.04 49.44C128.4 49.44 128.16 49.36 127.92 49.04C127.84 48.88 127.76 48.48 127.76 46.48V44.08H129.68V43.04H127.76V42.16C127.76 41.52 127.76 41.28 127.68 41.28C127.68 41.28 127.28 41.36 126.96 41.44ZM147.52 40.16C147.04 40.32 146.88 40.96 147.2 41.44C147.52 41.92 148.4 41.92 148.64 41.44C148.88 40.96 148.64 40.4 148.24 40.24C147.92 40.08 147.76 40.08 147.44 40.24L147.52 40.16ZM4.31998 40.08C2.15998 40.48 0.71998 41.76 0.15998 43.84C-0.0800195 44.64 -0.0800195 46.08 0.15998 46.88C0.63998 48.72 1.83998 49.92 3.59998 50.48C4.71998 50.8 6.95998 50.64 8.23998 50.24H8.55998C8.55998 50.16 8.55998 47.6 8.55998 47.6V45.04H6.87998H5.11998V45.68V46.24H7.27998V49.28H6.95998C6.47998 49.52 4.87998 49.52 4.39998 49.36C3.03998 48.96 2.07998 48 1.75998 46.56C1.59998 46 1.59998 44.56 1.75998 44C2.15998 42.64 3.03998 41.76 4.39998 41.36C5.03998 41.2 6.71998 41.2 7.35998 41.36C7.59998 41.44 7.91998 41.52 7.99998 41.6C8.07998 41.6 8.15998 41.6 8.23998 41.12C8.23998 40.88 8.39998 40.56 8.39998 40.56C8.39998 40.56 8.23998 40.4 7.91998 40.32C6.87998 40 5.59998 39.92 4.47998 40.16L4.31998 40.08ZM48.16 40C47.44 40.16 47.12 40.24 46.48 40.56C44.48 41.6 43.44 43.92 43.92 46.48C44.08 47.6 44.56 48.48 45.28 49.28C46.08 50.08 46.56 50.32 47.44 50.48C48.16 50.64 49.52 50.72 50.4 50.48C50.96 50.4 51.76 50.16 51.76 50.08C51.76 50 51.52 49.04 51.52 49.04C51.52 49.04 51.28 49.04 51.04 49.2C50.32 49.44 48.88 49.52 48.16 49.28C47.44 49.12 46.96 48.8 46.48 48.32C45.76 47.6 45.36 46.56 45.36 45.28C45.36 43.12 46.32 41.68 48.08 41.2C49.04 40.96 50.16 40.96 51.12 41.28L51.52 41.44L51.68 40.96C51.84 40.56 51.76 40.32 51.68 40.24C51.04 39.92 49.28 39.76 48.32 40H48.16ZM143.52 44.96V50.48H144.96V39.52H143.52V45.04V44.96ZM65.2 44.96V50.48H66.64V39.52H65.2V45.04V44.96ZM61.52 44.96V50.48H62.96V39.52H61.52V45.04V44.96Z" fill="white"/>
<path d="M19.6 49.28C18.24 49.92 16.8 48.88 16.56 47.2C16.4 45.68 16.96 44.32 18.08 44C18.56 43.84 19.28 43.84 19.68 44C21.44 44.88 21.36 48.4 19.6 49.28ZM21.44 43.76C20.72 42.96 19.68 42.64 18.48 42.72C17.6 42.72 16.72 43.2 16.16 43.84C15.44 44.64 15.2 45.44 15.2 46.72C15.2 48 15.52 48.8 16.24 49.52C16.96 50.24 17.76 50.56 18.72 50.56C20.96 50.56 22.48 49.04 22.48 46.72C22.48 45.44 22.16 44.56 21.44 43.84V43.76Z" fill="white"/>
<path d="M57.04 49.28C55.68 49.92 54.24 48.88 54 47.2C53.84 45.68 54.4 44.32 55.52 44C56 43.84 56.72 43.84 57.12 44C58.88 44.88 58.8 48.4 57.04 49.28ZM58.88 43.76C58.16 42.96 57.12 42.64 55.92 42.72C55.04 42.72 54.16 43.2 53.6 43.84C52.88 44.64 52.64 45.44 52.64 46.72C52.64 48 52.96 48.8 53.68 49.52C54.4 50.24 55.2 50.56 56.16 50.56C58.4 50.56 59.92 49.04 59.92 46.72C59.92 45.44 59.6 44.56 58.88 43.84V43.76Z" fill="white"/>
<path d="M37.44 47.92C37.28 48.32 37.2 48.48 36.88 48.88C36.4 49.36 36 49.52 35.28 49.44C34.72 49.44 34.4 49.28 34 48.88C33.52 48.4 33.44 48.08 33.36 46.96C33.36 46.16 33.36 45.92 33.52 45.52C33.68 44.88 34.08 44.4 34.64 44.16C35.52 43.68 36.64 44 37.2 44.96C37.68 45.68 37.76 46.96 37.44 48V47.92ZM38.88 45.36C38.4 43.6 37.04 42.56 35.28 42.8C34.64 42.88 34 43.28 33.52 43.76L33.12 44.16V42.96H31.84V53.52H33.28V49.6L33.6 49.92C34.16 50.48 35.12 50.8 35.92 50.72C37.44 50.56 38.48 49.6 38.88 48C39.04 47.36 39.04 46.16 38.88 45.52V45.36Z" fill="white"/>
<path d="M69.6799 46V45.76C69.8399 45.36 70.0799 44.88 70.3199 44.56C70.6399 44.24 70.8799 44.08 71.2799 44C71.9199 43.84 72.7199 44.08 73.0399 44.56C73.2799 44.88 73.4399 45.2 73.5199 45.68V46H69.6799ZM72.3199 47.04H74.9599V46.48C74.9599 44.08 73.5199 42.64 71.3599 42.88C70.5599 42.96 69.9999 43.28 69.3599 43.92C68.6399 44.64 68.3199 45.6 68.3199 46.8C68.3199 48 68.7199 49.04 69.5199 49.76C70.3999 50.64 72.2399 50.8 73.9199 50.32C74.2399 50.24 74.4799 50.08 74.4799 50.08C74.4799 50.08 74.4799 49.76 74.3999 49.6C74.3199 49.12 74.3999 49.12 73.5199 49.36C73.0399 49.52 71.7599 49.52 71.3599 49.36C70.9599 49.28 70.3999 48.88 70.1599 48.56C69.9199 48.24 69.6799 47.6 69.6799 47.28V47.04H72.3199Z" fill="white"/>
<path d="M86 46V45.76C86.16 45.36 86.4 44.88 86.64 44.56C86.96 44.24 87.2 44.08 87.6 44C88.24 43.84 89.04 44.08 89.36 44.56C89.6 44.88 89.76 45.2 89.84 45.68V46H86ZM88.64 47.04H91.28V46.48C91.28 44.08 89.84 42.64 87.68 42.88C86.88 42.96 86.32 43.28 85.68 43.92C84.96 44.64 84.64 45.6 84.64 46.8C84.64 48 85.04 49.04 85.84 49.76C86.72 50.64 88.56 50.8 90.24 50.32C90.56 50.24 90.8 50.08 90.8 50.08C90.8 50.08 90.8 49.76 90.72 49.6C90.64 49.12 90.72 49.12 89.84 49.36C89.36 49.52 88.08 49.52 87.68 49.36C87.28 49.28 86.72 48.88 86.48 48.56C86.24 48.24 86 47.6 86 47.28V47.04H88.64Z" fill="white"/>
<path d="M81.44 48C80.96 49.28 79.36 49.76 78.32 48.88C77.68 48.32 77.44 47.52 77.52 46.48C77.52 45.36 78 44.56 78.72 44.16C79.76 43.6 81.04 44.16 81.44 45.28C81.6 45.68 81.6 47.6 81.44 48ZM82.4 43.04H81.76V43.28C81.76 43.44 81.76 43.6 81.76 43.76V44L81.28 43.6C80.72 43.04 79.84 42.8 78.96 42.88C77.2 43.12 76 44.72 76 46.8C76 48.72 77.04 50.16 78.72 50.48C79.68 50.64 80.48 50.4 81.12 49.76L81.44 49.44V50.24C81.36 51.2 81.2 51.68 80.72 52.16C80 52.8 78.56 52.88 77.28 52.32C77.04 52.24 76.88 52.16 76.88 52.24C76.88 52.24 76.72 52.48 76.64 52.8L76.48 53.28H76.72C76.88 53.44 77.12 53.6 77.36 53.68C77.92 53.84 79.36 53.92 80.08 53.84C81.12 53.6 82 53.04 82.4 52.16C82.8 51.28 82.8 51.68 82.88 44.72V43.2H82.32L82.4 43.04Z" fill="white"/>
<path d="M105.84 46.16C105.04 46.16 104.32 46.16 104.32 46.16C104.32 46.16 104.56 45.36 104.88 44.48C105.2 43.52 105.52 42.56 105.6 42.24C105.68 41.92 105.76 41.6 105.76 41.6C105.76 41.6 105.84 41.76 106 42.16C106.08 42.48 106.4 43.52 106.72 44.48C107.04 45.36 107.28 46.16 107.28 46.24C107.28 46.32 106.64 46.24 105.76 46.24L105.84 46.16ZM106.72 40.16C106.72 40.08 106.56 40 105.84 40C105.12 40 105.04 40 105.04 40.08C105.04 40.08 104.8 40.8 104.48 41.52C104.24 42.32 103.44 44.64 102.72 46.64L101.44 50.4H102.88L103.44 48.8L104 47.2H105.84H107.68L108.24 48.8L108.8 50.4H109.52C109.92 50.4 110.24 50.4 110.24 50.4C110.24 50.4 106.8 40.24 106.72 40.16Z" fill="white"/>
<path d="M140 47.52C140 48.16 140 48.4 139.84 48.64C139.28 49.76 137.52 50 137.12 48.96C136.96 48.56 136.96 48.32 137.12 47.92C137.28 47.28 138.08 46.88 139.2 46.8C140.24 46.72 140.16 46.56 140.16 47.52M141.44 48.8C141.44 45.36 141.44 45.04 141.2 44.56C140.88 43.76 140.32 43.2 139.52 42.96C139.12 42.88 138.32 42.8 137.84 42.88C137.04 42.96 135.92 43.44 136 43.6C136 43.6 136.08 43.84 136.16 44.08C136.16 44.32 136.32 44.48 136.4 44.4C137.2 44.08 137.52 43.92 138.08 43.92C138.56 43.92 138.8 43.92 139.04 44C139.6 44.24 140 44.8 140 45.44V45.68H139.28C138.32 45.76 137.68 45.92 137.04 46.24C136 46.72 135.52 47.44 135.52 48.48C135.52 48.96 135.52 49.12 135.68 49.44C136.08 50.16 136.56 50.48 137.36 50.64C138.16 50.8 139.2 50.48 139.76 49.92L140.08 49.6V50.08L140.16 50.56H141.36V48.88L141.44 48.8Z" fill="white"/>
<path d="M154.72 47.52C154.72 48.16 154.72 48.4 154.56 48.64C154 49.76 152.24 50 151.84 48.96C151.68 48.56 151.68 48.32 151.84 47.92C152 47.28 152.8 46.88 153.92 46.8C154.96 46.72 154.88 46.56 154.88 47.52M156.16 48.8C156.16 45.36 156.16 45.04 155.92 44.56C155.6 43.76 155.04 43.2 154.24 42.96C153.84 42.88 153.04 42.8 152.56 42.88C151.76 42.96 150.64 43.44 150.72 43.6C150.72 43.6 150.8 43.84 150.88 44.08C150.88 44.32 151.04 44.48 151.12 44.4C151.92 44.08 152.24 43.92 152.8 43.92C153.28 43.92 153.52 43.92 153.76 44C154.32 44.24 154.72 44.8 154.72 45.44V45.68H154C153.04 45.76 152.4 45.92 151.76 46.24C150.72 46.72 150.24 47.44 150.24 48.48C150.24 48.96 150.24 49.12 150.4 49.44C150.8 50.16 151.28 50.48 152.08 50.64C152.88 50.8 153.92 50.48 154.48 49.92L154.8 49.6V50.08L154.88 50.56H156.08V48.88L156.16 48.8Z" fill="white"/>
<path d="M104.88 15.76V28.48H51.6V3.03998H104.88V15.76ZM78.24 0.639984H49.2V30.8H107.28V0.639984H78.24Z" fill="white"/>
<path d="M77.84 8.96001C77.36 8.96001 76.4 9.28001 75.92 9.52001C74.24 10.24 72.88 11.68 72.32 13.44C72 14.4 71.92 15.2 72 16.32C72.16 19.44 73.84 21.6 76.72 22.4C77.52 22.64 79.68 22.64 80.64 22.48C81.36 22.32 82.32 22.08 82.32 22C82.32 21.84 81.92 19.76 81.84 19.68C81.84 19.68 81.52 19.68 81.2 19.76C80.32 20 79.04 20.08 78.24 19.92C76.24 19.52 75.12 18 75.12 15.76C75.12 13.52 76.24 12.08 78.08 11.6C78.8 11.44 80.4 11.52 81.2 11.76C81.52 11.84 81.84 11.92 81.84 11.92C81.84 11.92 82 11.36 82.16 10.72C82.4 9.76001 82.48 9.52001 82.4 9.52001C82.24 9.44001 81.6 9.20001 80.96 9.12001C80.4 9.04001 78.48 8.96001 77.92 9.12001L77.84 8.96001Z" fill="white"/>
<path d="M63.76 9.12002C62.08 9.44002 60.88 10.08 59.84 11.12C59.04 11.92 58.56 12.72 58.24 13.84C58.08 14.48 58 14.56 58 16C58 17.44 58 17.52 58.24 18.16C58.56 19.2 58.96 19.92 59.68 20.64C61.12 22.08 62.8 22.64 65.68 22.56C67.04 22.56 68.08 22.32 69.2 22L69.68 21.84V18.32V14.8H64.64V17.2H66.64V18.56C66.64 19.76 66.64 19.92 66.48 20C66.16 20.08 64.72 20.16 64.16 20C62.64 19.68 61.6 18.64 61.2 17.12C61.04 16.48 61.04 15.2 61.2 14.56C61.6 13.12 62.56 12.08 64.08 11.76C65.04 11.52 67.04 11.68 68.08 12C68.32 12.08 68.48 12.16 68.48 12.16C68.48 12.16 68.64 11.6 68.8 10.96C69.04 10.08 69.12 9.76002 69.04 9.68002C68.96 9.68002 68.16 9.36002 67.6 9.28002C66.96 9.12002 64.32 9.12002 63.68 9.28002L63.76 9.12002Z" fill="white"/>
<path d="M91.36 16.64C91.36 16.64 90.72 16.64 89.92 16.64H88.56L88.96 15.2C89.2 14.4 89.52 13.28 89.6 12.64L89.84 11.44L90.16 12.8C90.32 13.52 90.72 14.72 90.88 15.36C91.12 16.08 91.28 16.64 91.2 16.64H91.36ZM94.08 15.6L92.08 9.03999H88.08L86.08 15.6C84.96 19.2 84.08 22.24 84.08 22.24C84.08 22.24 84.64 22.24 85.6 22.24H87.2L87.6 20.72C87.84 19.92 88.08 19.12 88.08 19.04V18.8H90H91.92L92.24 19.92C92.4 20.48 92.64 21.28 92.72 21.6L92.88 22.24H94.48C95.52 22.24 96.08 22.24 96.08 22.08C96.08 22.08 95.12 19.04 94 15.44L94.08 15.6Z" fill="white"/>
<line y1="66.8" x2="155.2" y2="66.8" stroke="white" stroke-opacity="0.3" stroke-width="0.8"/>
<path d="M39.446 107.6V80H0.00602265V107.6C0.00602265 107.6 -0.553982 118.08 9.12602 120.96C17.126 123.28 19.686 125.44 19.686 125.44C19.686 125.44 22.246 123.28 30.246 120.96C39.926 118.16 39.366 107.6 39.366 107.6" fill="white"/>
<path d="M2.80604 82.8H0.00604248V85.6H2.80604V82.8Z" fill="#CE163D"/>
<path d="M5.60603 85.6H2.80603V88.4H5.60603V85.6Z" fill="#CE163D"/>
<path d="M8.40608 82.8H5.60608V85.6H8.40608V82.8Z" fill="#CE163D"/>
<path d="M11.286 85.6H8.48602V88.4H11.286V85.6Z" fill="#CE163D"/>
<path d="M14.086 88.4H11.286V91.2H14.086V88.4Z" fill="#CE163D"/>
<path d="M16.8861 91.2H14.0861V94H16.8861V91.2Z" fill="#CE163D"/>
<path d="M16.8861 85.6H14.0861V88.4H16.8861V85.6Z" fill="#CE163D"/>
<path d="M19.686 88.4H16.886V91.2H19.686V88.4Z" fill="#CE163D"/>
<path d="M39.4461 85.6H36.6461V88.4H39.4461V85.6Z" fill="#CE163D"/>
<path d="M36.566 88.4H33.766V91.2H36.566V88.4Z" fill="#CE163D"/>
<path d="M22.486 91.2H19.686V94H22.486V91.2Z" fill="#CE163D"/>
<path d="M25.366 94.08H22.566V96.88H25.366V94.08Z" fill="#CE163D"/>
<path d="M33.766 91.2H30.966V94H33.766V91.2Z" fill="#CE163D"/>
<path d="M36.566 94.08H33.766V96.88H36.566V94.08Z" fill="#CE163D"/>
<path d="M22.486 96.88H19.686V99.68H22.486V96.88Z" fill="#CE163D"/>
<path d="M25.366 99.68H22.566V102.48H25.366V99.68Z" fill="#CE163D"/>
<path d="M28.166 91.2H25.366V94H28.166V91.2Z" fill="#CE163D"/>
<path d="M30.966 94.08H28.166V96.88H30.966V94.08Z" fill="#CE163D"/>
<path d="M28.166 96.88H25.366V99.68H28.166V96.88Z" fill="#CE163D"/>
<path d="M7.04603 114.8C5.84603 114.8 4.96601 114.48 4.32601 113.84C3.68601 113.2 3.36603 112.24 3.36603 111.04V104.64H5.28602V111.12C5.28602 111.68 5.44603 112.16 5.76603 112.48C6.08603 112.8 6.48603 112.96 7.04603 112.96C7.60603 112.96 8.08602 112.8 8.40602 112.48C8.72602 112.16 8.88602 111.68 8.88602 111.12V104.64H10.806V111.04C10.806 112.24 10.486 113.12 9.84603 113.84C9.20603 114.48 8.32601 114.8 7.12601 114.8" fill="#CE163D"/>
<path d="M13.366 114.64V112.8H16.566C16.966 112.8 17.366 112.72 17.606 112.48C17.846 112.24 17.926 112 17.926 111.6C17.926 111.2 17.846 110.88 17.606 110.72C17.366 110.48 17.046 110.4 16.566 110.4H13.366V108.56H16.566C16.966 108.56 17.286 108.48 17.446 108.24C17.686 108.08 17.766 107.76 17.766 107.44C17.766 107.12 17.686 106.88 17.446 106.64C17.206 106.48 16.966 106.4 16.566 106.4H13.366V104.56H16.646C17.606 104.56 18.406 104.8 18.886 105.28C19.446 105.76 19.686 106.4 19.686 107.28C19.686 108.16 19.526 108.32 19.206 108.72C18.886 109.12 18.406 109.36 17.766 109.44C18.406 109.52 18.966 109.76 19.286 110.24C19.606 110.72 19.846 111.2 19.846 111.84C19.846 112.72 19.606 113.44 19.046 113.92C18.486 114.4 17.766 114.64 16.726 114.64H13.366ZM12.566 104.56H14.486V114.64H12.566V104.56Z" fill="#CE163D"/>
<path d="M24.566 114.8C24.086 114.8 23.606 114.8 23.126 114.64C22.646 114.56 22.246 114.4 21.846 114.24C21.446 114.08 21.046 113.84 20.726 113.6L21.606 112C22.006 112.32 22.406 112.56 22.966 112.72C23.446 112.88 24.006 112.96 24.566 112.96C25.126 112.96 25.686 112.88 26.006 112.64C26.326 112.4 26.486 112.16 26.486 111.76C26.486 111.44 26.406 111.2 26.246 111.12C26.086 110.96 25.846 110.88 25.606 110.8C25.366 110.8 25.046 110.64 24.726 110.64C24.326 110.64 23.926 110.48 23.526 110.4C23.126 110.32 22.726 110.16 22.406 110C22.086 109.84 21.766 109.52 21.606 109.12C21.366 108.72 21.286 108.24 21.286 107.68C21.286 106.72 21.606 105.92 22.246 105.36C22.886 104.8 23.846 104.56 24.966 104.56C26.086 104.56 26.086 104.64 26.646 104.8C27.206 104.96 27.766 105.28 28.246 105.6L27.446 107.2C27.046 106.96 26.646 106.72 26.246 106.56C25.846 106.4 25.446 106.32 25.046 106.32C24.486 106.32 24.006 106.4 23.686 106.64C23.366 106.8 23.206 107.12 23.206 107.44C23.206 107.76 23.286 108 23.526 108.16C23.686 108.32 23.926 108.48 24.246 108.56C24.566 108.64 24.886 108.72 25.206 108.8C25.606 108.8 26.006 108.96 26.326 109.04C26.726 109.12 27.046 109.28 27.366 109.52C27.686 109.76 27.926 110 28.166 110.32C28.326 110.64 28.486 111.12 28.486 111.68C28.486 112.64 28.166 113.44 27.446 113.92C26.806 114.48 25.846 114.72 24.646 114.72" fill="#CE163D"/>
<path d="M32.886 114.8C32.406 114.8 31.926 114.8 31.446 114.64C30.966 114.56 30.566 114.4 30.166 114.24C29.766 114.08 29.366 113.84 29.046 113.6L29.926 112C30.326 112.32 30.726 112.56 31.286 112.72C31.766 112.88 32.326 112.96 32.886 112.96C33.446 112.96 34.006 112.88 34.326 112.64C34.646 112.4 34.806 112.16 34.806 111.76C34.806 111.44 34.726 111.2 34.566 111.12C34.406 110.96 34.166 110.88 33.926 110.8C33.686 110.8 33.366 110.64 33.046 110.64C32.646 110.64 32.246 110.48 31.846 110.4C31.446 110.32 31.046 110.16 30.726 110C30.406 109.84 30.086 109.52 29.926 109.12C29.686 108.72 29.606 108.24 29.606 107.68C29.606 106.72 29.926 105.92 30.566 105.36C31.206 104.8 32.166 104.56 33.286 104.56C34.406 104.56 34.406 104.64 34.966 104.8C35.526 104.96 36.086 105.28 36.566 105.6L35.766 107.2C35.366 106.96 34.966 106.72 34.566 106.56C34.166 106.4 33.766 106.32 33.366 106.32C32.806 106.32 32.326 106.4 32.006 106.64C31.686 106.8 31.526 107.12 31.526 107.44C31.526 107.76 31.606 108 31.846 108.16C32.006 108.32 32.246 108.48 32.566 108.56C32.886 108.64 33.206 108.72 33.526 108.8C33.926 108.8 34.326 108.96 34.646 109.04C35.046 109.12 35.366 109.28 35.686 109.52C36.006 109.76 36.246 110 36.486 110.32C36.646 110.64 36.806 111.12 36.806 111.68C36.806 112.64 36.486 113.44 35.766 113.92C35.126 114.48 34.166 114.72 32.966 114.72" fill="#CE163D"/>
<path d="M46.566 89.12V94.56C46.566 96.64 47.446 97.44 48.726 97.44C50.006 97.44 50.966 96.56 50.966 94.56V89.12H52.166V94.48C52.166 97.28 50.726 98.4 48.726 98.4C46.726 98.4 45.446 97.36 45.446 94.48V89.12H46.646H46.566Z" fill="white"/>
<path d="M54.006 98.24V89.12H55.286L58.2461 93.76C58.8861 94.8 59.446 95.76 59.926 96.72C59.846 95.52 59.7661 94.4 59.7661 92.96V89.12H60.886V98.24H59.686L56.806 93.6C56.166 92.56 55.526 91.52 55.126 90.56C55.126 91.76 55.206 92.8 55.206 94.32V98.24H54.086H54.006Z" fill="white"/>
<path d="M63.926 89.12H62.726V98.24H63.926V89.12Z" fill="white"/>
<path d="M67.766 98.24L64.806 89.12H66.086L67.526 93.6C67.926 94.8 68.246 95.92 68.486 97.04C68.726 96 69.126 94.8 69.526 93.6L71.046 89.12H72.326L69.046 98.24H67.766Z" fill="white"/>
<path d="M77.8461 94H74.2461V97.28H78.2461V98.24H73.126V89.12H78.006V90.08H74.2461V92.96H77.8461V94Z" fill="white"/>
<path d="M80.726 93.36H81.926C83.206 93.36 84.006 92.64 84.006 91.6C84.006 90.56 83.126 89.92 81.926 89.92C81.366 89.92 80.966 89.92 80.726 90V93.36ZM79.526 89.2C80.086 89.04 80.966 89.04 81.766 89.04C83.046 89.04 83.846 89.28 84.406 89.76C84.886 90.16 85.126 90.8 85.126 91.52C85.126 92.72 84.326 93.52 83.366 93.84C84.086 94.16 84.486 94.8 84.726 95.76C85.046 97.04 85.206 97.92 85.446 98.24H84.246C84.086 98 83.926 97.2 83.606 96.08C83.366 94.8 82.886 94.32 81.766 94.32H80.646V98.32H79.446V89.28L79.526 89.2Z" fill="white"/>
<path d="M86.4861 96.8C87.0461 97.12 87.7661 97.36 88.5661 97.36C89.7661 97.36 90.4861 96.72 90.4861 95.76C90.4861 94.8 90.006 94.4 88.726 93.92C87.206 93.36 86.326 92.64 86.326 91.36C86.326 90.08 87.5261 88.88 89.2861 88.88C91.0461 88.88 90.8861 89.12 91.2861 89.36L90.9661 90.32C90.6461 90.16 90.0861 89.92 89.2061 89.92C87.9261 89.92 87.4461 90.64 87.4461 91.28C87.4461 91.92 88.0061 92.56 89.2861 93.04C90.8061 93.6 91.6061 94.4 91.6061 95.76C91.6061 97.12 90.5661 98.4 88.4061 98.4C86.2461 98.4 86.5661 98.16 86.0861 97.84L86.4061 96.88L86.4861 96.8Z" fill="white"/>
<path d="M97.606 94.48L96.726 91.84C96.486 91.28 96.406 90.72 96.246 90.16C96.086 90.72 95.926 91.28 95.766 91.84L94.886 94.48H97.606ZM94.646 95.36L93.686 98.24H92.486L95.606 89.12H97.046L100.166 98.24H98.886L97.926 95.36H94.646Z" fill="white"/>
<path d="M101.206 89.12H102.406V97.28H106.326V98.24H101.206V89.12Z" fill="white"/>
<path d="M47.446 110.08C47.686 110.08 47.926 110.08 48.246 110.08C49.206 110.08 50.006 109.76 50.006 108.8C50.006 107.84 49.206 107.52 48.166 107.52H47.446V110.08ZM47.446 106.08H48.086C49.206 106.08 49.766 105.6 49.766 104.96C49.766 104.32 49.206 103.92 48.326 103.92C47.446 103.92 47.606 103.92 47.446 103.92V106.08ZM45.366 102.56C45.926 102.48 47.046 102.4 48.006 102.4C48.966 102.4 50.006 102.56 50.726 102.88C51.366 103.2 51.846 103.84 51.846 104.64C51.846 105.44 51.366 106.24 50.326 106.56C51.366 106.88 52.166 107.68 52.166 108.8C52.166 109.92 51.766 110.24 51.206 110.72C50.566 111.28 49.446 111.52 47.606 111.52C45.766 111.52 45.846 111.52 45.366 111.36V102.4V102.56Z" fill="white"/>
<path d="M55.446 102.4V107.68C55.446 109.28 56.006 110.08 57.126 110.08C58.246 110.08 58.806 109.28 58.806 107.68V102.4H60.886V107.52C60.886 110.32 59.446 111.68 57.046 111.68C54.646 111.68 53.366 110.4 53.366 107.52V102.4H55.446Z" fill="white"/>
<path d="M62.4861 109.44C63.0461 109.76 63.9261 110 64.8061 110C65.6861 110 66.2461 109.6 66.2461 109.04C66.2461 108.48 65.846 108.16 64.726 107.76C63.206 107.2 62.2461 106.4 62.2461 105.04C62.2461 103.68 63.5261 102.32 65.6861 102.32C67.8461 102.32 67.4461 102.56 68.0061 102.8L67.5261 104.48C67.126 104.32 66.4861 104.08 65.6061 104.08C64.7261 104.08 64.2461 104.48 64.2461 104.96C64.2461 105.44 64.726 105.84 65.926 106.24C67.5261 106.8 68.326 107.68 68.326 108.96C68.326 110.24 67.1261 111.76 64.6461 111.76C62.1661 111.76 62.5661 111.52 62.0861 111.2L62.4861 109.52V109.44Z" fill="white"/>
<path d="M71.606 102.4H69.526V111.52H71.606V102.4Z" fill="white"/>
<path d="M73.2061 111.6V102.48H75.6061L77.5261 105.84C78.0861 106.8 78.6461 107.92 79.0461 108.96C78.8861 107.76 78.8861 106.48 78.8861 105.12V102.48H80.8061V111.6H78.6461L76.726 108.08C76.166 107.12 75.606 105.92 75.126 104.88C75.126 106.08 75.2061 107.36 75.2061 108.88V111.6H73.2861H73.2061Z" fill="white"/>
<path d="M87.7661 107.68H84.4061V109.84H88.1661V111.6H82.326V102.4H88.0061V104.08H84.4061V106H87.7661V107.68Z" fill="white"/>
<path d="M89.446 109.44C90.006 109.76 90.886 110 91.766 110C92.646 110 93.206 109.6 93.206 109.04C93.206 108.48 92.806 108.16 91.686 107.76C90.166 107.2 89.206 106.4 89.206 105.04C89.206 103.68 90.486 102.32 92.646 102.32C94.806 102.32 94.406 102.56 94.966 102.8L94.486 104.48C94.086 104.32 93.446 104.08 92.566 104.08C91.686 104.08 91.206 104.48 91.206 104.96C91.206 105.44 91.686 105.84 92.886 106.24C94.486 106.8 95.286 107.68 95.286 108.96C95.286 110.24 94.086 111.76 91.606 111.76C89.126 111.76 89.526 111.52 89.046 111.2L89.446 109.52V109.44Z" fill="white"/>
<path d="M96.566 109.44C97.126 109.76 98.006 110 98.886 110C99.766 110 100.326 109.6 100.326 109.04C100.326 108.48 99.926 108.16 98.806 107.76C97.286 107.2 96.326 106.4 96.326 105.04C96.326 103.68 97.606 102.32 99.766 102.32C101.926 102.32 101.526 102.56 102.086 102.8L101.606 104.48C101.206 104.32 100.566 104.08 99.686 104.08C98.806 104.08 98.326 104.48 98.326 104.96C98.326 105.44 98.806 105.84 100.006 106.24C101.606 106.8 102.406 107.68 102.406 108.96C102.406 110.24 101.206 111.76 98.726 111.76C96.246 111.76 96.646 111.52 96.166 111.2L96.566 109.52V109.44Z" fill="white"/>
<path d="M106.246 109.44C106.806 109.76 107.686 110 108.566 110C109.446 110 110.006 109.6 110.006 109.04C110.006 108.48 109.606 108.16 108.486 107.76C106.966 107.2 106.006 106.4 106.006 105.04C106.006 103.68 107.286 102.32 109.446 102.32C111.606 102.32 111.206 102.56 111.766 102.8L111.286 104.48C110.886 104.32 110.246 104.08 109.366 104.08C108.486 104.08 108.006 104.48 108.006 104.96C108.006 105.44 108.486 105.84 109.686 106.24C111.286 106.8 112.086 107.68 112.086 108.96C112.086 110.24 110.886 111.76 108.406 111.76C105.926 111.76 106.326 111.52 105.846 111.2L106.246 109.52V109.44Z" fill="white"/>
<path d="M120.006 111.28C119.606 111.44 118.806 111.68 117.686 111.68C114.566 111.68 112.886 109.68 112.886 107.12C112.886 104.56 115.126 102.24 117.846 102.24C120.566 102.24 119.766 102.48 120.086 102.64L119.686 104.32C119.286 104.16 118.646 104 117.926 104C116.326 104 115.046 104.96 115.046 107.04C115.046 109.12 116.166 110 118.006 110C119.846 110 119.286 109.84 119.766 109.68L120.086 111.28H120.006Z" fill="white"/>
<path d="M123.206 102.4V105.92H126.566V102.4H128.646V111.6H126.566V107.76H123.206V111.6H121.126V102.4H123.206Z" fill="white"/>
<path d="M132.006 107.04C132.006 108.8 132.886 110.08 134.246 110.08C135.606 110.08 136.406 108.72 136.406 106.96C136.406 105.2 135.606 103.92 134.166 103.92C132.726 103.92 131.926 105.28 131.926 107.04M138.646 106.88C138.646 109.84 136.806 111.68 134.166 111.68C131.526 111.68 129.846 109.6 129.846 107.04C129.846 104.48 131.606 102.24 134.326 102.24C137.046 102.24 138.646 104.32 138.646 106.88Z" fill="white"/>
<path d="M141.526 107.04C141.526 108.8 142.406 110.08 143.766 110.08C145.126 110.08 145.926 108.72 145.926 106.96C145.926 105.2 145.126 103.92 143.686 103.92C142.246 103.92 141.446 105.28 141.446 107.04M148.166 106.88C148.166 109.84 146.326 111.68 143.686 111.68C141.046 111.68 139.366 109.6 139.366 107.04C139.366 104.48 141.126 102.24 143.846 102.24C146.566 102.24 148.166 104.32 148.166 106.88Z" fill="white"/>
<path d="M149.286 102.4V111.6H155.046V109.84H151.366V102.4H149.286Z" fill="white"/>
<path d="M48.8464 117.734C48.8233 117.518 48.7262 117.35 48.5551 117.23C48.3855 117.11 48.165 117.05 47.8934 117.05C47.7025 117.05 47.5388 117.079 47.4022 117.136C47.2656 117.194 47.161 117.272 47.0886 117.371C47.0162 117.47 46.9792 117.582 46.9775 117.709C46.9775 117.815 47.0014 117.906 47.0491 117.983C47.0985 118.061 47.1652 118.126 47.2491 118.181C47.333 118.233 47.426 118.278 47.5281 118.314C47.6301 118.35 47.733 118.381 47.8367 118.405L48.3107 118.524C48.5016 118.568 48.6851 118.628 48.8612 118.704C49.0389 118.78 49.1978 118.875 49.3377 118.99C49.4792 119.106 49.5911 119.245 49.6734 119.408C49.7557 119.571 49.7969 119.762 49.7969 119.98C49.7969 120.277 49.7211 120.538 49.5697 120.763C49.4183 120.987 49.1994 121.162 48.913 121.289C48.6283 121.414 48.2835 121.477 47.8786 121.477C47.4853 121.477 47.1438 121.416 46.8541 121.294C46.5661 121.172 46.3406 120.994 46.1777 120.761C46.0164 120.527 45.9291 120.242 45.916 119.906H46.8171C46.8302 120.083 46.8845 120.229 46.98 120.346C47.0755 120.463 47.1997 120.55 47.3528 120.608C47.5075 120.665 47.6803 120.694 47.8712 120.694C48.0704 120.694 48.2448 120.664 48.3946 120.605C48.546 120.544 48.6645 120.46 48.7501 120.353C48.8357 120.245 48.8793 120.118 48.8809 119.973C48.8793 119.841 48.8406 119.733 48.7649 119.647C48.6892 119.56 48.583 119.488 48.4464 119.43C48.3115 119.371 48.1535 119.318 47.9724 119.272L47.3972 119.124C46.9808 119.017 46.6517 118.855 46.4097 118.637C46.1694 118.419 46.0493 118.128 46.0493 117.766C46.0493 117.468 46.1299 117.207 46.2912 116.983C46.4542 116.76 46.6755 116.586 46.9553 116.462C47.2351 116.337 47.5519 116.275 47.9058 116.275C48.2646 116.275 48.5789 116.337 48.8489 116.462C49.1204 116.586 49.3335 116.758 49.4883 116.978C49.643 117.197 49.7228 117.449 49.7277 117.734H48.8464ZM51.1294 122.822C51.0076 122.822 50.8948 122.812 50.7911 122.792C50.6891 122.774 50.6076 122.753 50.5467 122.728L50.7541 122.032C50.8841 122.07 51.0002 122.088 51.1022 122.086C51.2042 122.085 51.2939 122.053 51.3713 121.99C51.4503 121.929 51.517 121.827 51.5713 121.684L51.6478 121.479L50.2727 117.608H51.2207L52.0946 120.472H52.1341L53.0105 117.608H53.961L52.4427 121.859C52.372 122.06 52.2781 122.232 52.1613 122.375C52.0444 122.52 51.9013 122.63 51.7317 122.706C51.5639 122.783 51.3631 122.822 51.1294 122.822ZM55.8576 121.467C55.5597 121.467 55.2931 121.39 55.0578 121.237C54.8224 121.084 54.6364 120.862 54.4998 120.57C54.3632 120.279 54.2949 119.925 54.2949 119.509C54.2949 119.088 54.364 118.732 54.5023 118.442C54.6422 118.151 54.8306 117.931 55.0676 117.783C55.3046 117.634 55.5688 117.559 55.8601 117.559C56.0823 117.559 56.265 117.596 56.4082 117.672C56.5514 117.746 56.6649 117.836 56.7489 117.941C56.8328 118.045 56.8978 118.143 56.9439 118.235H56.9809V116.344H57.8771V121.4H56.9982V120.803H56.9439C56.8978 120.895 56.8311 120.993 56.7439 121.096C56.6567 121.198 56.5415 121.286 56.3983 121.358C56.2551 121.43 56.0749 121.467 55.8576 121.467ZM56.107 120.733C56.2962 120.733 56.4575 120.682 56.5909 120.58C56.7242 120.477 56.8254 120.333 56.8945 120.148C56.9636 119.964 56.9982 119.749 56.9982 119.504C56.9982 119.259 56.9636 119.046 56.8945 118.865C56.827 118.684 56.7266 118.543 56.5933 118.442C56.4617 118.342 56.2995 118.292 56.107 118.292C55.9078 118.292 55.7416 118.344 55.6083 118.447C55.475 118.551 55.3746 118.694 55.3071 118.877C55.2396 119.06 55.2059 119.269 55.2059 119.504C55.2059 119.741 55.2396 119.952 55.3071 120.138C55.3762 120.323 55.4774 120.468 55.6108 120.575C55.7457 120.681 55.9111 120.733 56.107 120.733ZM59.7231 119.178V121.4H58.8294V117.608H59.6836V118.252H59.728C59.8152 118.04 59.9543 117.871 60.1452 117.746C60.3378 117.621 60.5756 117.559 60.8587 117.559C61.1204 117.559 61.3483 117.615 61.5425 117.726C61.7384 117.838 61.8898 118.001 61.9968 118.213C62.1054 118.425 62.1589 118.683 62.1573 118.986V121.4H61.2636V119.124C61.2636 118.87 61.1977 118.672 61.0661 118.529C60.9361 118.386 60.7558 118.314 60.5254 118.314C60.3691 118.314 60.23 118.349 60.1082 118.418C59.9881 118.485 59.8934 118.583 59.8243 118.712C59.7568 118.84 59.7231 118.995 59.7231 119.178ZM64.7445 121.474C64.3643 121.474 64.036 121.395 63.7595 121.237C63.4846 121.077 63.2731 120.852 63.125 120.561C62.9769 120.268 62.9028 119.923 62.9028 119.526C62.9028 119.136 62.9769 118.794 63.125 118.499C63.2748 118.203 63.4838 117.973 63.7521 117.808C64.0203 117.642 64.3355 117.559 64.6976 117.559C64.9313 117.559 65.1519 117.596 65.3592 117.672C65.5683 117.746 65.7526 117.861 65.9122 118.018C66.0735 118.174 66.2003 118.373 66.2924 118.615C66.3846 118.856 66.4307 119.142 66.4307 119.474V119.748H63.3225V119.146H65.574C65.5724 118.975 65.5353 118.823 65.4629 118.689C65.3905 118.554 65.2893 118.448 65.1593 118.371C65.0309 118.293 64.8811 118.255 64.7099 118.255C64.5273 118.255 64.3668 118.299 64.2285 118.388C64.0903 118.475 63.9825 118.591 63.9051 118.734C63.8294 118.875 63.7908 119.031 63.7891 119.2V119.726C63.7891 119.947 63.8294 120.136 63.9101 120.294C63.9907 120.45 64.1035 120.57 64.2483 120.654C64.3931 120.737 64.5626 120.778 64.7569 120.778C64.8869 120.778 65.0046 120.76 65.1099 120.724C65.2152 120.686 65.3066 120.631 65.3839 120.558C65.4613 120.486 65.5197 120.396 65.5592 120.289L66.3936 120.383C66.341 120.603 66.2406 120.796 66.0925 120.961C65.946 121.123 65.7583 121.25 65.5296 121.341C65.3008 121.43 65.0391 121.474 64.7445 121.474ZM67.6336 122.822C67.5118 122.822 67.399 122.812 67.2953 122.792C67.1933 122.774 67.1118 122.753 67.0509 122.728L67.2583 122.032C67.3883 122.07 67.5044 122.088 67.6064 122.086C67.7085 122.085 67.7982 122.053 67.8755 121.99C67.9545 121.929 68.0212 121.827 68.0755 121.684L68.152 121.479L66.7769 117.608H67.7249L68.5988 120.472H68.6383L69.5148 117.608H70.4652L68.9469 121.859C68.8762 122.06 68.7824 122.232 68.6655 122.375C68.5487 122.52 68.4055 122.63 68.2359 122.706C68.0681 122.783 67.8673 122.822 67.6336 122.822ZM74.0079 114.715V123.029H73.1784V114.715H74.0079ZM77.0636 116.344H78.1844L79.6854 120.008H79.7446L81.2456 116.344H82.3665V121.4H81.4876V117.926H81.4407L80.0434 121.385H79.3867L77.9894 117.919H77.9425V121.4H77.0636V116.344ZM85.0031 121.474C84.6229 121.474 84.2945 121.395 84.018 121.237C83.7432 121.077 83.5317 120.852 83.3836 120.561C83.2354 120.268 83.1614 119.923 83.1614 119.526C83.1614 119.136 83.2354 118.794 83.3836 118.499C83.5333 118.203 83.7424 117.973 84.0106 117.808C84.2789 117.642 84.5941 117.559 84.9562 117.559C85.1899 117.559 85.4104 117.596 85.6178 117.672C85.8268 117.746 86.0111 117.861 86.1708 118.018C86.3321 118.174 86.4588 118.373 86.551 118.615C86.6431 118.856 86.6892 119.142 86.6892 119.474V119.748H83.5811V119.146H85.8326C85.8309 118.975 85.7939 118.823 85.7215 118.689C85.6491 118.554 85.5478 118.448 85.4178 118.371C85.2894 118.293 85.1397 118.255 84.9685 118.255C84.7858 118.255 84.6254 118.299 84.4871 118.388C84.3489 118.475 84.2411 118.591 84.1637 118.734C84.088 118.875 84.0493 119.031 84.0477 119.2V119.726C84.0477 119.947 84.088 120.136 84.1686 120.294C84.2493 120.45 84.362 120.57 84.5069 120.654C84.6517 120.737 84.8212 120.778 85.0154 120.778C85.1454 120.778 85.2631 120.76 85.3684 120.724C85.4738 120.686 85.5651 120.631 85.6425 120.558C85.7198 120.486 85.7783 120.396 85.8178 120.289L86.6522 120.383C86.5995 120.603 86.4991 120.796 86.351 120.961C86.2045 121.123 86.0169 121.25 85.7881 121.341C85.5594 121.43 85.2977 121.474 85.0031 121.474ZM88.339 116.344V121.4H87.4453V116.344H88.339ZM89.2975 121.4V116.344H90.1912V118.235H90.2282C90.2743 118.143 90.3393 118.045 90.4232 117.941C90.5072 117.836 90.6207 117.746 90.7639 117.672C90.9071 117.596 91.0898 117.559 91.312 117.559C91.6049 117.559 91.8691 117.634 92.1044 117.783C92.3414 117.931 92.5291 118.151 92.6673 118.442C92.8072 118.732 92.8772 119.088 92.8772 119.509C92.8772 119.925 92.8089 120.279 92.6722 120.57C92.5356 120.862 92.3497 121.084 92.1143 121.237C91.879 121.39 91.6123 121.467 91.3144 121.467C91.0972 121.467 90.917 121.43 90.7738 121.358C90.6306 121.286 90.5154 121.198 90.4282 121.096C90.3426 120.993 90.2759 120.895 90.2282 120.803H90.1763V121.4H89.2975ZM90.1739 119.504C90.1739 119.749 90.2084 119.964 90.2776 120.148C90.3483 120.333 90.4495 120.477 90.5812 120.58C90.7145 120.682 90.8758 120.733 91.0651 120.733C91.2626 120.733 91.428 120.681 91.5613 120.575C91.6946 120.468 91.795 120.323 91.8625 120.138C91.9316 119.952 91.9662 119.741 91.9662 119.504C91.9662 119.269 91.9324 119.06 91.865 118.877C91.7975 118.694 91.6971 118.551 91.5638 118.447C91.4305 118.344 91.2642 118.292 91.0651 118.292C90.8742 118.292 90.7121 118.342 90.5787 118.442C90.4454 118.543 90.3442 118.684 90.2751 118.865C90.2076 119.046 90.1739 119.259 90.1739 119.504ZM95.291 121.474C94.9207 121.474 94.5997 121.393 94.3282 121.23C94.0566 121.067 93.8459 120.839 93.6962 120.546C93.548 120.253 93.474 119.911 93.474 119.519C93.474 119.127 93.548 118.784 93.6962 118.489C93.8459 118.195 94.0566 117.966 94.3282 117.803C94.5997 117.64 94.9207 117.559 95.291 117.559C95.6613 117.559 95.9822 117.64 96.2538 117.803C96.5253 117.966 96.7352 118.195 96.8833 118.489C97.0331 118.784 97.108 119.127 97.108 119.519C97.108 119.911 97.0331 120.253 96.8833 120.546C96.7352 120.839 96.5253 121.067 96.2538 121.23C95.9822 121.393 95.6613 121.474 95.291 121.474ZM95.2959 120.758C95.4967 120.758 95.6646 120.703 95.7995 120.593C95.9345 120.481 96.0349 120.331 96.1007 120.143C96.1682 119.956 96.2019 119.747 96.2019 119.516C96.2019 119.284 96.1682 119.074 96.1007 118.887C96.0349 118.698 95.9345 118.547 95.7995 118.435C95.6646 118.323 95.4967 118.267 95.2959 118.267C95.0902 118.267 94.919 118.323 94.7824 118.435C94.6475 118.547 94.5462 118.698 94.4788 118.887C94.4129 119.074 94.38 119.284 94.38 119.516C94.38 119.747 94.4129 119.956 94.4788 120.143C94.5462 120.331 94.6475 120.481 94.7824 120.593C94.919 120.703 95.0902 120.758 95.2959 120.758ZM100.283 119.805V117.608H101.177V121.4H100.311V120.726H100.271C100.185 120.938 100.045 121.112 99.8489 121.247C99.6547 121.382 99.4152 121.449 99.1305 121.449C98.882 121.449 98.6623 121.394 98.4713 121.284C98.2821 121.172 98.1339 121.01 98.027 120.798C97.92 120.584 97.8665 120.325 97.8665 120.022V117.608H98.7602V119.884C98.7602 120.124 98.826 120.315 98.9577 120.457C99.0893 120.598 99.2622 120.669 99.4761 120.669C99.6078 120.669 99.7353 120.637 99.8588 120.573C99.9822 120.509 100.083 120.413 100.162 120.287C100.243 120.158 100.283 119.998 100.283 119.805ZM102.096 121.4V117.608H102.963V118.24H103.002C103.071 118.021 103.19 117.852 103.358 117.734C103.527 117.614 103.721 117.554 103.938 117.554C103.987 117.554 104.042 117.556 104.103 117.561C104.166 117.564 104.218 117.57 104.259 117.578V118.4C104.221 118.387 104.161 118.376 104.078 118.366C103.998 118.354 103.92 118.349 103.844 118.349C103.681 118.349 103.535 118.384 103.405 118.455C103.276 118.524 103.175 118.62 103.101 118.744C103.027 118.867 102.99 119.009 102.99 119.171V121.4H102.096ZM105.746 119.178V121.4H104.852V117.608H105.707V118.252H105.751C105.838 118.04 105.977 117.871 106.168 117.746C106.361 117.621 106.599 117.559 106.882 117.559C107.143 117.559 107.371 117.615 107.566 117.726C107.761 117.838 107.913 118.001 108.02 118.213C108.128 118.425 108.182 118.683 108.18 118.986V121.4H107.287V119.124C107.287 118.87 107.221 118.672 107.089 118.529C106.959 118.386 106.779 118.314 106.548 118.314C106.392 118.314 106.253 118.349 106.131 118.418C106.011 118.485 105.916 118.583 105.847 118.712C105.78 118.84 105.746 118.995 105.746 119.178ZM110.768 121.474C110.387 121.474 110.059 121.395 109.783 121.237C109.508 121.077 109.296 120.852 109.148 120.561C109 120.268 108.926 119.923 108.926 119.526C108.926 119.136 109 118.794 109.148 118.499C109.298 118.203 109.507 117.973 109.775 117.808C110.043 117.642 110.359 117.559 110.721 117.559C110.954 117.559 111.175 117.596 111.382 117.672C111.591 117.746 111.776 117.861 111.935 118.018C112.097 118.174 112.223 118.373 112.315 118.615C112.408 118.856 112.454 119.142 112.454 119.474V119.748H109.346V119.146H111.597C111.595 118.975 111.558 118.823 111.486 118.689C111.414 118.554 111.312 118.448 111.182 118.371C111.054 118.293 110.904 118.255 110.733 118.255C110.55 118.255 110.39 118.299 110.252 118.388C110.113 118.475 110.006 118.591 109.928 118.734C109.852 118.875 109.814 119.031 109.812 119.2V119.726C109.812 119.947 109.852 120.136 109.933 120.294C110.014 120.45 110.127 120.57 110.271 120.654C110.416 120.737 110.586 120.778 110.78 120.778C110.91 120.778 111.028 120.76 111.133 120.724C111.238 120.686 111.33 120.631 111.407 120.558C111.484 120.486 111.543 120.396 111.582 120.289L112.417 120.383C112.364 120.603 112.264 120.796 112.116 120.961C111.969 121.123 111.781 121.25 111.553 121.341C111.324 121.43 111.062 121.474 110.768 121.474ZM116.134 114.715V123.029H115.305V114.715H116.134ZM119.839 121.4H118.861L120.641 116.344H121.772L123.554 121.4H122.577L121.226 117.381H121.187L119.839 121.4ZM119.871 119.418H122.537V120.153H119.871V119.418ZM125.473 121.467C125.175 121.467 124.908 121.39 124.673 121.237C124.437 121.084 124.251 120.862 124.115 120.57C123.978 120.279 123.91 119.925 123.91 119.509C123.91 119.088 123.979 118.732 124.117 118.442C124.257 118.151 124.446 117.931 124.683 117.783C124.92 117.634 125.184 117.559 125.475 117.559C125.697 117.559 125.88 117.596 126.023 117.672C126.166 117.746 126.28 117.836 126.364 117.941C126.448 118.045 126.513 118.143 126.559 118.235H126.596V116.344H127.492V121.4H126.613V120.803H126.559C126.513 120.895 126.446 120.993 126.359 121.096C126.272 121.198 126.157 121.286 126.013 121.358C125.87 121.43 125.69 121.467 125.473 121.467ZM125.722 120.733C125.911 120.733 126.073 120.682 126.206 120.58C126.339 120.477 126.44 120.333 126.51 120.148C126.579 119.964 126.613 119.749 126.613 119.504C126.613 119.259 126.579 119.046 126.51 118.865C126.442 118.684 126.342 118.543 126.208 118.442C126.077 118.342 125.915 118.292 125.722 118.292C125.523 118.292 125.357 118.344 125.223 118.447C125.09 118.551 124.99 118.694 124.922 118.877C124.855 119.06 124.821 119.269 124.821 119.504C124.821 119.741 124.855 119.952 124.922 120.138C124.991 120.323 125.092 120.468 125.226 120.575C125.361 120.681 125.526 120.733 125.722 120.733ZM130.123 121.474C129.743 121.474 129.415 121.395 129.138 121.237C128.863 121.077 128.652 120.852 128.504 120.561C128.356 120.268 128.281 119.923 128.281 119.526C128.281 119.136 128.356 118.794 128.504 118.499C128.653 118.203 128.862 117.973 129.131 117.808C129.399 117.642 129.714 117.559 130.076 117.559C130.31 117.559 130.531 117.596 130.738 117.672C130.947 117.746 131.131 117.861 131.291 118.018C131.452 118.174 131.579 118.373 131.671 118.615C131.763 118.856 131.809 119.142 131.809 119.474V119.748H128.701V119.146H130.953C130.951 118.975 130.914 118.823 130.842 118.689C130.769 118.554 130.668 118.448 130.538 118.371C130.41 118.293 130.26 118.255 130.089 118.255C129.906 118.255 129.745 118.299 129.607 118.388C129.469 118.475 129.361 118.591 129.284 118.734C129.208 118.875 129.169 119.031 129.168 119.2V119.726C129.168 119.947 129.208 120.136 129.289 120.294C129.369 120.45 129.482 120.57 129.627 120.654C129.772 120.737 129.941 120.778 130.136 120.778C130.266 120.778 130.383 120.76 130.489 120.724C130.594 120.686 130.685 120.631 130.763 120.558C130.84 120.486 130.898 120.396 130.938 120.289L131.772 120.383C131.72 120.603 131.619 120.796 131.471 120.961C131.325 121.123 131.137 121.25 130.908 121.341C130.679 121.43 130.418 121.474 130.123 121.474ZM133.459 116.344V121.4H132.565V116.344H133.459ZM135.469 121.477C135.229 121.477 135.013 121.434 134.82 121.348C134.629 121.261 134.478 121.133 134.366 120.963C134.255 120.794 134.2 120.584 134.2 120.336C134.2 120.122 134.24 119.945 134.319 119.805C134.398 119.665 134.506 119.553 134.642 119.469C134.779 119.385 134.933 119.322 135.104 119.279C135.277 119.235 135.455 119.203 135.64 119.183C135.862 119.16 136.042 119.139 136.18 119.121C136.319 119.102 136.419 119.072 136.481 119.032C136.546 118.991 136.578 118.928 136.578 118.842V118.828C136.578 118.642 136.523 118.498 136.412 118.396C136.302 118.293 136.143 118.242 135.936 118.242C135.717 118.242 135.543 118.29 135.415 118.386C135.288 118.481 135.203 118.594 135.158 118.724L134.324 118.605C134.39 118.375 134.498 118.182 134.65 118.028C134.801 117.871 134.986 117.754 135.205 117.677C135.424 117.598 135.666 117.559 135.931 117.559C136.114 117.559 136.295 117.58 136.477 117.623C136.658 117.666 136.823 117.736 136.973 117.835C137.122 117.932 137.243 118.065 137.333 118.233C137.425 118.4 137.471 118.61 137.471 118.862V121.4H136.612V120.879H136.583C136.528 120.984 136.452 121.083 136.353 121.175C136.256 121.266 136.133 121.339 135.985 121.395C135.839 121.449 135.667 121.477 135.469 121.477ZM135.701 120.82C135.881 120.82 136.036 120.784 136.168 120.714C136.3 120.641 136.401 120.546 136.472 120.427C136.544 120.309 136.58 120.18 136.58 120.04V119.593C136.552 119.616 136.504 119.637 136.437 119.657C136.371 119.677 136.297 119.694 136.215 119.709C136.133 119.724 136.051 119.737 135.97 119.748C135.89 119.76 135.82 119.77 135.761 119.778C135.627 119.796 135.508 119.826 135.403 119.867C135.297 119.908 135.214 119.966 135.153 120.04C135.092 120.112 135.062 120.206 135.062 120.321C135.062 120.486 135.122 120.61 135.242 120.694C135.362 120.778 135.515 120.82 135.701 120.82ZM138.37 121.4V117.608H139.264V121.4H138.37ZM138.819 117.07C138.678 117.07 138.556 117.023 138.454 116.929C138.352 116.834 138.301 116.719 138.301 116.586C138.301 116.451 138.352 116.337 138.454 116.243C138.556 116.147 138.678 116.1 138.819 116.1C138.963 116.1 139.084 116.147 139.185 116.243C139.287 116.337 139.338 116.451 139.338 116.586C139.338 116.719 139.287 116.834 139.185 116.929C139.084 117.023 138.963 117.07 138.819 117.07ZM141.59 121.467C141.292 121.467 141.025 121.39 140.79 121.237C140.555 121.084 140.369 120.862 140.232 120.57C140.095 120.279 140.027 119.925 140.027 119.509C140.027 119.088 140.096 118.732 140.235 118.442C140.374 118.151 140.563 117.931 140.8 117.783C141.037 117.634 141.301 117.559 141.592 117.559C141.815 117.559 141.997 117.596 142.14 117.672C142.284 117.746 142.397 117.836 142.481 117.941C142.565 118.045 142.63 118.143 142.676 118.235H142.713V116.344H143.609V121.4H142.73V120.803H142.676C142.63 120.895 142.563 120.993 142.476 121.096C142.389 121.198 142.274 121.286 142.131 121.358C141.987 121.43 141.807 121.467 141.59 121.467ZM141.839 120.733C142.029 120.733 142.19 120.682 142.323 120.58C142.456 120.477 142.558 120.333 142.627 120.148C142.696 119.964 142.73 119.749 142.73 119.504C142.73 119.259 142.696 119.046 142.627 118.865C142.559 118.684 142.459 118.543 142.326 118.442C142.194 118.342 142.032 118.292 141.839 118.292C141.64 118.292 141.474 118.344 141.341 118.447C141.207 118.551 141.107 118.694 141.039 118.877C140.972 119.06 140.938 119.269 140.938 119.504C140.938 119.741 140.972 119.952 141.039 120.138C141.109 120.323 141.21 120.468 141.343 120.575C141.478 120.681 141.643 120.733 141.839 120.733ZM146.24 121.474C145.86 121.474 145.532 121.395 145.255 121.237C144.981 121.077 144.769 120.852 144.621 120.561C144.473 120.268 144.399 119.923 144.399 119.526C144.399 119.136 144.473 118.794 144.621 118.499C144.771 118.203 144.98 117.973 145.248 117.808C145.516 117.642 145.831 117.559 146.194 117.559C146.427 117.559 146.648 117.596 146.855 117.672C147.064 117.746 147.248 117.861 147.408 118.018C147.569 118.174 147.696 118.373 147.788 118.615C147.88 118.856 147.927 119.142 147.927 119.474V119.748H144.818V119.146H147.07C147.068 118.975 147.031 118.823 146.959 118.689C146.886 118.554 146.785 118.448 146.655 118.371C146.527 118.293 146.377 118.255 146.206 118.255C146.023 118.255 145.863 118.299 145.724 118.388C145.586 118.475 145.478 118.591 145.401 118.734C145.325 118.875 145.287 119.031 145.285 119.2V119.726C145.285 119.947 145.325 120.136 145.406 120.294C145.487 120.45 145.599 120.57 145.744 120.654C145.889 120.737 146.059 120.778 146.253 120.778C146.383 120.778 146.5 120.76 146.606 120.724C146.711 120.686 146.802 120.631 146.88 120.558C146.957 120.486 147.016 120.396 147.055 120.289L147.89 120.383C147.837 120.603 147.736 120.796 147.588 120.961C147.442 121.123 147.254 121.25 147.025 121.341C146.797 121.43 146.535 121.474 146.24 121.474Z" fill="#E0E0E0"/>
</g>
<defs>
<clipPath id="clip0_163_2396">
<rect width="156" height="126.4" fill="white"/>
</clipPath>
</defs>
</svg>
