<svg width="232" height="34" viewBox="0 0 232 34" fill="none" xmlns="http://www.w3.org/2000/svg">
<g clip-path="url(#clip0_188_329)">
<path d="M137.608 20.0898V0H108.134V20.0898C108.134 20.0898 107.715 27.718 114.949 29.8144C120.928 31.5031 122.841 33.0753 122.841 33.0753C122.841 33.0753 124.754 31.5031 130.733 29.8144C137.967 27.7763 137.549 20.0898 137.549 20.0898" fill="#E11643"/>
<path d="M118.118 25.2141V23.8748H120.51C120.809 23.8748 121.108 23.8166 121.287 23.6419C121.466 23.4672 121.526 23.2925 121.526 23.0013C121.526 22.7102 121.466 22.4772 121.287 22.3608C121.108 22.1861 120.868 22.1279 120.51 22.1279H118.118V20.7885H120.51C120.809 20.7885 121.048 20.7303 121.167 20.5556C121.347 20.4392 121.406 20.2062 121.406 19.9733C121.406 19.7404 121.347 19.5657 121.167 19.391C120.988 19.2745 120.809 19.2163 120.51 19.2163H118.118V17.877H120.569C121.287 17.877 121.885 18.0517 122.244 18.4011C122.662 18.7504 122.841 19.2163 122.841 19.8568C122.841 20.4974 122.722 20.6138 122.483 20.905C122.244 21.1962 121.885 21.3709 121.406 21.4291C121.885 21.4873 122.303 21.662 122.542 22.0114C122.782 22.3608 122.961 22.7102 122.961 23.176C122.961 23.8166 122.782 24.3406 122.363 24.69C121.945 25.0394 121.406 25.2141 120.629 25.2141H118.118ZM117.52 17.877H118.955V25.2141H117.52V17.877Z" fill="white"/>
<path d="M110.226 2.0381H108.134V4.07619H110.226V2.0381Z" fill="white"/>
<path d="M112.319 4.07617H110.227V6.11426H112.319V4.07617Z" fill="white"/>
<path d="M114.411 2.0381H112.319V4.07619H114.411V2.0381Z" fill="white"/>
<path d="M116.564 4.07617H114.471V6.11426H116.564V4.07617Z" fill="white"/>
<path d="M118.656 6.11426H116.564V8.15235H118.656V6.11426Z" fill="white"/>
<path d="M120.749 8.15236H118.656V10.1904H120.749V8.15236Z" fill="white"/>
<path d="M120.749 4.07617H118.656V6.11426H120.749V4.07617Z" fill="white"/>
<path d="M122.841 6.11426H120.749V8.15235H122.841V6.11426Z" fill="white"/>
<path d="M137.609 4.07617H135.516V6.11426H137.609V4.07617Z" fill="white"/>
<path d="M135.456 6.11426H133.364V8.15235H135.456V6.11426Z" fill="white"/>
<path d="M124.934 8.15236H122.841V10.1904H124.934V8.15236Z" fill="white"/>
<path d="M127.086 10.2487H124.994V12.2868H127.086V10.2487Z" fill="white"/>
<path d="M133.364 8.15236H131.271V10.1904H133.364V8.15236Z" fill="white"/>
<path d="M135.456 10.2487H133.364V12.2868H135.456V10.2487Z" fill="white"/>
<path d="M124.934 12.2868H122.841V14.3249H124.934V12.2868Z" fill="white"/>
<path d="M127.086 14.3248H124.994V16.3629H127.086V14.3248Z" fill="white"/>
<path d="M129.179 8.15236H127.086V10.1904H129.179V8.15236Z" fill="white"/>
<path d="M131.271 10.2487H129.179V12.2868H131.271V10.2487Z" fill="white"/>
<path d="M129.179 12.2868H127.086V14.3249H129.179V12.2868Z" fill="white"/>
<path d="M113.395 25.3306C112.498 25.3306 111.841 25.0976 111.362 24.6318C110.884 24.1659 110.645 23.4672 110.645 22.5937V17.9352H112.08V22.6519C112.08 23.0595 112.199 23.4089 112.439 23.6419C112.678 23.8748 112.977 23.9912 113.395 23.9912C113.814 23.9912 114.172 23.8748 114.412 23.6419C114.651 23.4089 114.77 23.0595 114.77 22.6519V17.9352H116.205V22.5937C116.205 23.4672 115.966 24.1077 115.488 24.6318C115.009 25.0976 114.352 25.3306 113.455 25.3306" fill="white"/>
<path d="M126.488 25.3306C126.13 25.3306 125.771 25.3306 125.412 25.2141C125.053 25.1559 124.754 25.0394 124.456 24.9229C124.157 24.8065 123.858 24.6318 123.619 24.4571L124.276 23.2925C124.575 23.5254 124.874 23.7001 125.293 23.8165C125.651 23.933 126.07 23.9912 126.488 23.9912C126.907 23.9912 127.325 23.933 127.564 23.7583C127.804 23.5836 127.923 23.4089 127.923 23.1178C127.923 22.8848 127.863 22.7102 127.744 22.6519C127.624 22.5355 127.445 22.4772 127.266 22.419C127.086 22.419 126.847 22.3025 126.608 22.3025C126.309 22.3025 126.01 22.1861 125.711 22.1278C125.412 22.0696 125.113 21.9532 124.874 21.8367C124.635 21.7202 124.396 21.4873 124.276 21.1961C124.097 20.905 124.037 20.5556 124.037 20.148C124.037 19.4492 124.276 18.8669 124.754 18.4593C125.233 18.0517 125.95 17.877 126.787 17.877C127.624 17.877 127.624 17.9352 128.043 18.0517C128.461 18.1681 128.88 18.401 129.238 18.634L128.641 19.7986C128.342 19.6239 128.043 19.4492 127.744 19.3327C127.445 19.2163 127.146 19.1581 126.847 19.1581C126.429 19.1581 126.07 19.2163 125.831 19.391C125.591 19.5074 125.472 19.7404 125.472 19.9733C125.472 20.2062 125.532 20.3809 125.711 20.4974C125.831 20.6138 126.01 20.7303 126.249 20.7885C126.488 20.8468 126.727 20.905 126.967 20.9632C127.266 20.9632 127.564 21.0797 127.804 21.1379C128.103 21.1961 128.342 21.3126 128.581 21.4873C128.82 21.662 128.999 21.8367 129.179 22.0696C129.298 22.3025 129.418 22.6519 129.418 23.0595C129.418 23.7583 129.179 24.3406 128.641 24.69C128.162 25.0976 127.445 25.2723 126.548 25.2723" fill="white"/>
<path d="M132.706 25.3306C132.347 25.3306 131.989 25.3306 131.63 25.2141C131.271 25.1559 130.972 25.0394 130.673 24.9229C130.374 24.8065 130.075 24.6318 129.836 24.4571L130.494 23.2925C130.793 23.5254 131.092 23.7001 131.51 23.8165C131.869 23.933 132.288 23.9912 132.706 23.9912C133.125 23.9912 133.543 23.933 133.782 23.7583C134.021 23.5836 134.141 23.4089 134.141 23.1178C134.141 22.8848 134.081 22.7102 133.962 22.6519C133.842 22.5355 133.663 22.4772 133.483 22.419C133.304 22.419 133.065 22.3025 132.826 22.3025C132.527 22.3025 132.228 22.1861 131.929 22.1278C131.63 22.0696 131.331 21.9532 131.092 21.8367C130.853 21.7202 130.614 21.4873 130.494 21.1961C130.315 20.905 130.255 20.5556 130.255 20.148C130.255 19.4492 130.494 18.8669 130.972 18.4593C131.451 18.0517 132.168 17.877 133.005 17.877C133.842 17.877 133.842 17.9352 134.26 18.0517C134.679 18.1681 135.097 18.401 135.456 18.634L134.858 19.7986C134.559 19.6239 134.26 19.4492 133.962 19.3327C133.663 19.2163 133.364 19.1581 133.065 19.1581C132.646 19.1581 132.288 19.2163 132.048 19.391C131.809 19.5074 131.69 19.7404 131.69 19.9733C131.69 20.2062 131.749 20.3809 131.929 20.4974C132.048 20.6138 132.228 20.7303 132.467 20.7885C132.706 20.8468 132.945 20.905 133.184 20.9632C133.483 20.9632 133.782 21.0797 134.021 21.1379C134.32 21.1961 134.559 21.3126 134.799 21.4873C135.038 21.662 135.217 21.8367 135.396 22.0696C135.516 22.3025 135.636 22.6519 135.636 23.0595C135.636 23.7583 135.396 24.3406 134.858 24.69C134.38 25.0976 133.663 25.2723 132.766 25.2723" fill="white"/>
<path d="M142.93 6.63837V10.5981C142.93 12.1121 143.587 12.6944 144.544 12.6944C145.5 12.6944 146.218 12.0539 146.218 10.5981V6.63837H147.115V10.5399C147.115 12.5779 146.038 13.3932 144.544 13.3932C143.049 13.3932 142.093 12.6362 142.093 10.5399V6.63837H142.989H142.93Z" fill="white"/>
<path d="M148.49 13.2767V6.63837H149.446L151.658 10.0158C152.137 10.7728 152.555 11.4716 152.914 12.1703C152.854 11.2969 152.794 10.4816 152.794 9.43346V6.63837H153.631V13.2767H152.735L150.582 9.89931C150.104 9.14231 149.626 8.3853 149.327 7.68653C149.327 8.56 149.387 9.317 149.387 10.4234V13.2767H148.55H148.49Z" fill="white"/>
<path d="M155.903 6.63837H155.006V13.2767H155.903V6.63837Z" fill="white"/>
<path d="M158.773 13.2767L156.561 6.63837H157.517L158.594 9.89931C158.892 10.7728 159.132 11.588 159.311 12.4033C159.49 11.6462 159.789 10.7728 160.088 9.89931L161.224 6.63837H162.181L159.729 13.2767H158.773Z" fill="white"/>
<path d="M166.306 10.1905H163.616V12.5779H166.605V13.2767H162.779V6.63837H166.426V7.33714H163.616V9.43346H166.306V10.1905Z" fill="white"/>
<path d="M168.458 9.72461H169.355C170.312 9.72461 170.91 9.20053 170.91 8.44352C170.91 7.68652 170.252 7.22067 169.355 7.22067C168.937 7.22067 168.638 7.22067 168.458 7.2789V9.72461ZM167.562 6.69659C167.98 6.58012 168.638 6.58012 169.236 6.58012C170.192 6.58012 170.79 6.75482 171.209 7.10421C171.567 7.39536 171.747 7.86121 171.747 8.38529C171.747 9.25876 171.149 9.84107 170.431 10.074C170.969 10.3069 171.268 10.7728 171.448 11.4715C171.687 12.4032 171.806 13.0438 171.986 13.2767H171.089C170.969 13.102 170.85 12.5197 170.611 11.7045C170.431 10.7728 170.073 10.4234 169.236 10.4234H168.399V13.3349H167.502V6.75482L167.562 6.69659Z" fill="white"/>
<path d="M172.763 12.2286C173.181 12.4615 173.719 12.6362 174.317 12.6362C175.214 12.6362 175.752 12.1703 175.752 11.4715C175.752 10.7728 175.393 10.4816 174.437 10.1322C173.301 9.72461 172.643 9.20053 172.643 8.26884C172.643 7.33714 173.54 6.46367 174.855 6.46367C176.171 6.46367 176.051 6.63836 176.35 6.81306L176.111 7.51183C175.872 7.39537 175.453 7.22067 174.796 7.22067C173.839 7.22067 173.48 7.74475 173.48 8.2106C173.48 8.67645 173.899 9.1423 174.855 9.49169C175.991 9.89931 176.589 10.4816 176.589 11.4715C176.589 12.4615 175.812 13.3932 174.198 13.3932C172.583 13.3932 172.823 13.2185 172.464 12.9856L172.703 12.2868L172.763 12.2286Z" fill="white"/>
<path d="M181.073 10.5399L180.416 8.61823C180.236 8.21061 180.177 7.80299 180.057 7.39537C179.937 7.80299 179.818 8.21061 179.698 8.61823L179.041 10.5399H181.073ZM178.861 11.1804L178.144 13.2767H177.247L179.579 6.63837H180.655L182.987 13.2767H182.03L181.313 11.1804H178.861Z" fill="white"/>
<path d="M183.764 6.63837H184.66V12.5779H187.59V13.2767H183.764V6.63837Z" fill="white"/>
<path d="M143.587 21.8949C143.767 21.8949 143.946 21.8949 144.185 21.8949C144.903 21.8949 145.5 21.662 145.5 20.9632C145.5 20.2644 144.903 20.0315 144.125 20.0315H143.587V21.8949ZM143.587 18.9834H144.066C144.903 18.9834 145.321 18.634 145.321 18.1681C145.321 17.7023 144.903 17.4111 144.245 17.4111C143.587 17.4111 143.707 17.4111 143.587 17.4111V18.9834ZM142.033 16.4212C142.451 16.3629 143.288 16.3047 144.006 16.3047C144.723 16.3047 145.5 16.4212 146.039 16.6541C146.517 16.887 146.876 17.3529 146.876 17.9352C146.876 18.5175 146.517 19.0998 145.74 19.3327C146.517 19.5657 147.115 20.148 147.115 20.9632C147.115 21.7784 146.816 22.0114 146.397 22.3608C145.919 22.7684 145.082 22.9431 143.707 22.9431C142.332 22.9431 142.392 22.9431 142.033 22.8266V16.3047V16.4212Z" fill="white"/>
<path d="M149.566 16.3047V20.148C149.566 21.3126 149.984 21.8949 150.821 21.8949C151.658 21.8949 152.077 21.3126 152.077 20.148V16.3047H153.631V20.0315C153.631 22.0696 152.555 23.0595 150.762 23.0595C148.968 23.0595 148.011 22.1278 148.011 20.0315V16.3047H149.566Z" fill="white"/>
<path d="M154.827 21.4291C155.246 21.662 155.903 21.8367 156.561 21.8367C157.219 21.8367 157.637 21.5456 157.637 21.1379C157.637 20.7303 157.338 20.4974 156.501 20.2062C155.365 19.7986 154.648 19.2163 154.648 18.2264C154.648 17.2364 155.604 16.2465 157.219 16.2465C158.833 16.2465 158.534 16.4212 158.952 16.5959L158.594 17.8188C158.295 17.7023 157.816 17.5276 157.159 17.5276C156.501 17.5276 156.142 17.8188 156.142 18.1681C156.142 18.5175 156.501 18.8087 157.398 19.0998C158.594 19.5075 159.192 20.148 159.192 21.0797C159.192 22.0114 158.295 23.1178 156.441 23.1178C154.588 23.1178 154.887 22.9431 154.528 22.7102L154.827 21.4873V21.4291Z" fill="white"/>
<path d="M161.643 16.3047H160.088V22.9431H161.643V16.3047Z" fill="white"/>
<path d="M162.838 23.0013V16.363H164.632L166.067 18.8087C166.485 19.5074 166.904 20.3227 167.203 21.0797C167.083 20.2062 167.083 19.2745 167.083 18.2846V16.363H168.518V23.0013H166.904L165.469 20.4391C165.05 19.7404 164.632 18.8669 164.273 18.1099C164.273 18.9834 164.333 19.9151 164.333 21.0215V23.0013H162.898H162.838Z" fill="white"/>
<path d="M173.72 20.148H171.209V21.7202H174.018V23.0013H169.654V16.3047H173.899V17.5276H171.209V18.9251H173.72V20.148Z" fill="white"/>
<path d="M174.975 21.4291C175.394 21.662 176.051 21.8367 176.709 21.8367C177.367 21.8367 177.785 21.5456 177.785 21.1379C177.785 20.7303 177.486 20.4974 176.649 20.2062C175.513 19.7986 174.796 19.2163 174.796 18.2264C174.796 17.2364 175.752 16.2465 177.367 16.2465C178.981 16.2465 178.682 16.4212 179.1 16.5959L178.742 17.8188C178.443 17.7023 177.964 17.5276 177.307 17.5276C176.649 17.5276 176.29 17.8188 176.29 18.1681C176.29 18.5175 176.649 18.8087 177.546 19.0998C178.742 19.5075 179.339 20.148 179.339 21.0797C179.339 22.0114 178.443 23.1178 176.589 23.1178C174.736 23.1178 175.035 22.9431 174.676 22.7102L174.975 21.4873V21.4291Z" fill="white"/>
<path d="M180.296 21.4291C180.715 21.662 181.372 21.8367 182.03 21.8367C182.687 21.8367 183.106 21.5456 183.106 21.1379C183.106 20.7303 182.807 20.4974 181.97 20.2062C180.834 19.7986 180.117 19.2163 180.117 18.2264C180.117 17.2364 181.073 16.2465 182.687 16.2465C184.302 16.2465 184.003 16.4212 184.421 16.5959L184.063 17.8188C183.764 17.7023 183.285 17.5276 182.628 17.5276C181.97 17.5276 181.611 17.8188 181.611 18.1681C181.611 18.5175 181.97 18.8087 182.867 19.0998C184.063 19.5075 184.66 20.148 184.66 21.0797C184.66 22.0114 183.764 23.1178 181.91 23.1178C180.057 23.1178 180.356 22.9431 179.997 22.7102L180.296 21.4873V21.4291Z" fill="white"/>
<path d="M187.53 21.4291C187.949 21.662 188.606 21.8367 189.264 21.8367C189.922 21.8367 190.34 21.5456 190.34 21.1379C190.34 20.7303 190.041 20.4974 189.204 20.2062C188.068 19.7986 187.351 19.2163 187.351 18.2264C187.351 17.2364 188.307 16.2465 189.922 16.2465C191.536 16.2465 191.237 16.4212 191.655 16.5959L191.297 17.8188C190.998 17.7023 190.519 17.5276 189.862 17.5276C189.204 17.5276 188.845 17.8188 188.845 18.1681C188.845 18.5175 189.204 18.8087 190.101 19.0998C191.297 19.5075 191.895 20.148 191.895 21.0797C191.895 22.0114 190.998 23.1178 189.144 23.1178C187.291 23.1178 187.59 22.9431 187.231 22.7102L187.53 21.4873V21.4291Z" fill="white"/>
<path d="M197.813 22.7684C197.514 22.8849 196.917 23.0596 196.08 23.0596C193.748 23.0596 192.492 21.6038 192.492 19.7404C192.492 17.877 194.166 16.1883 196.199 16.1883C198.232 16.1883 197.634 16.363 197.873 16.4794L197.574 17.7023C197.275 17.5858 196.797 17.4694 196.259 17.4694C195.063 17.4694 194.107 18.1681 194.107 19.6821C194.107 21.1962 194.944 21.8367 196.319 21.8367C197.694 21.8367 197.275 21.7202 197.634 21.6038L197.873 22.7684H197.813Z" fill="white"/>
<path d="M200.205 16.3047V18.8669H202.716V16.3047H204.27V23.0013H202.716V20.2062H200.205V23.0013H198.651V16.3047H200.205Z" fill="white"/>
<path d="M206.781 19.6821C206.781 20.9632 207.439 21.8949 208.455 21.8949C209.472 21.8949 210.069 20.905 210.069 19.6239C210.069 18.3428 209.472 17.4111 208.395 17.4111C207.319 17.4111 206.721 18.4011 206.721 19.6821M211.743 19.5657C211.743 21.7202 210.368 23.0596 208.395 23.0596C206.423 23.0596 205.167 21.5455 205.167 19.6821C205.167 17.8188 206.482 16.1883 208.515 16.1883C210.548 16.1883 211.743 17.7023 211.743 19.5657Z" fill="white"/>
<path d="M213.896 19.6821C213.896 20.9632 214.553 21.8949 215.57 21.8949C216.586 21.8949 217.184 20.905 217.184 19.6239C217.184 18.3428 216.586 17.4111 215.51 17.4111C214.434 17.4111 213.836 18.4011 213.836 19.6821M218.858 19.5657C218.858 21.7202 217.483 23.0596 215.51 23.0596C213.537 23.0596 212.282 21.5455 212.282 19.6821C212.282 17.8188 213.597 16.1883 215.63 16.1883C217.662 16.1883 218.858 17.7023 218.858 19.5657Z" fill="white"/>
<path d="M219.695 16.3047V23.0013H224V21.7202H221.25V16.3047H219.695Z" fill="white"/>
<path d="M87.1516 28.5726V30.7408H88.0041V26.4505H87.1516V28.6187V28.5726ZM65.9794 27.9729C65.9794 29.1723 65.9794 29.5414 66.0741 29.7259C66.2636 30.3718 66.6425 30.7408 67.2582 30.8331C67.8266 30.9254 68.395 30.7408 68.7739 30.3718L69.0107 30.1411V30.3256C69.0107 30.4179 69.0581 30.5563 69.0581 30.6486V30.787H69.816V30.464C69.816 30.2795 69.7686 29.3107 69.7686 28.2958V26.4966H68.916V27.9267C68.916 28.7571 68.916 29.403 68.916 29.4953C68.8687 29.6798 68.5845 30.0027 68.395 30.095C68.1582 30.1872 67.874 30.2334 67.6372 30.1872C67.353 30.1411 67.1161 29.9566 67.0214 29.6336C66.9267 29.403 66.9267 29.3107 66.8793 27.9267V26.4505H66.0268V27.9729H65.9794ZM14.0673 27.9729C14.0673 29.1723 14.0673 29.5414 14.162 29.7259C14.3515 30.3718 14.7304 30.7408 15.3462 30.8331C15.9145 30.9254 16.4829 30.7408 16.8618 30.3718L17.0987 30.1411V30.464L17.146 30.787H17.9039V30.5563C17.9039 30.4179 17.8565 29.4491 17.8565 28.3881V26.4505H17.0039V27.8806C17.0039 29.2185 17.0039 29.3107 16.9092 29.4953C16.5303 30.2795 15.4882 30.4179 15.1093 29.7259C14.9672 29.4491 14.9199 29.0801 14.9199 27.7422V26.4505H14.0673V27.9729ZM79.4311 26.3582C79.0521 26.4505 78.6732 26.6811 78.4838 27.0502L78.389 27.2347V26.9579C78.389 26.8195 78.389 26.635 78.389 26.5427V26.4043H77.6786V30.6947H78.5311V29.3569C78.5311 27.8806 78.5785 27.7422 78.8627 27.4193C79.0995 27.1886 79.3363 27.0502 79.6679 27.0502H79.9521V26.6811C79.9521 26.3121 79.9521 26.3121 79.8574 26.2659C79.7626 26.2659 79.7153 26.2659 79.4784 26.2659M72.0895 26.3582C71.5685 26.4043 71.1422 26.7273 70.9527 27.1425C70.858 27.3731 70.858 27.7883 70.9527 28.019C71.0474 28.2497 71.379 28.5726 71.7579 28.711C72.7052 29.1262 72.8473 29.2646 72.8473 29.5875C72.8473 30.095 72.2789 30.3256 71.5211 30.1411C71.379 30.1411 71.1895 30.0488 71.0948 30.0027C71.0001 29.9566 70.9527 29.9104 70.9527 29.9104C70.9527 29.9104 70.9054 30.0488 70.858 30.2334C70.8106 30.4179 70.7633 30.5563 70.8106 30.5563C70.8106 30.5563 70.9527 30.6486 71.0948 30.6947C71.9 30.9715 72.8 30.8792 73.2736 30.464C73.7473 30.0488 73.842 29.403 73.5104 28.8955C73.3683 28.6649 73.0368 28.4342 72.4684 28.2035C72.2316 28.1113 71.9948 27.9729 71.9 27.8806C71.7579 27.7422 71.7579 27.6961 71.7579 27.5115C71.7579 27.327 71.8527 27.1425 72.0895 27.0041C72.3263 26.9118 72.7052 26.9118 72.9894 27.0041C73.1315 27.0502 73.2736 27.0963 73.321 27.0963C73.3683 27.0963 73.4157 27.0963 73.5104 26.8195C73.6052 26.4966 73.6525 26.4966 73.2262 26.3582C72.8947 26.2659 72.5631 26.2198 72.1842 26.2659L72.0895 26.3582ZM56.0327 26.3582C55.2275 26.4966 54.6591 27.0963 54.8012 27.7883C54.896 28.2497 55.2749 28.5726 56.0327 28.8494C56.2222 28.9417 56.4117 29.0339 56.5537 29.1723C56.7432 29.3569 56.7432 29.3569 56.7432 29.5875C56.7432 29.8182 56.6485 30.0027 56.3643 30.1411C55.9854 30.2795 55.4644 30.2334 54.8486 29.9104C54.8012 29.9104 54.6118 30.5102 54.6591 30.5563C54.7539 30.6486 55.1802 30.787 55.5117 30.8331C55.8906 30.8792 56.459 30.8331 56.7906 30.6947C57.0748 30.5563 57.359 30.2795 57.4537 30.0488C57.4537 29.9566 57.501 29.772 57.501 29.5875C57.501 28.9417 57.2169 28.6187 56.1748 28.2035C55.7012 28.019 55.5117 27.8345 55.5117 27.6038C55.5117 27.3731 55.5117 27.3731 55.5591 27.2809C55.7012 27.0041 56.2696 26.9118 56.7432 27.0963C56.8853 27.1425 57.0274 27.1886 57.0748 27.1886C57.1221 27.1886 57.1695 27.1886 57.2642 26.9118C57.359 26.5889 57.4063 26.5889 56.98 26.4505C56.6485 26.3582 56.2696 26.3121 55.9854 26.3582H56.0327ZM7.95721 26.3582C7.57829 26.4043 7.24673 26.7273 7.05727 27.0502C6.96254 27.2347 6.91518 27.1886 6.91518 26.8195V26.4505H6.15733V26.635C6.15733 26.7273 6.2047 27.6961 6.2047 28.8033V30.7408H7.05727V29.3569V27.9729L7.19937 27.6961C7.2941 27.5115 7.38883 27.3731 7.48356 27.2809C7.67302 27.1425 8.05194 27.0502 8.2414 27.0963H8.38349V26.7273C8.38349 26.3582 8.38349 26.3582 8.28876 26.3121C8.19403 26.3121 8.14667 26.3121 7.90984 26.3121L7.95721 26.3582ZM75.1682 25.5278L74.7893 25.6201V26.4043H74.1262V27.0041H74.7893V28.4342C74.7893 29.5875 74.8367 29.9104 74.884 30.0488C75.0735 30.5563 75.4524 30.787 76.0208 30.787C76.2102 30.787 76.4471 30.787 76.5418 30.7408H76.7313C76.7313 30.6947 76.7313 30.5102 76.7313 30.5102C76.7313 30.4179 76.7313 30.2795 76.7313 30.2334C76.7313 30.1411 76.7313 30.1411 76.3997 30.1411C76.0208 30.1411 75.8787 30.095 75.7366 29.9104C75.6892 29.8182 75.6419 29.5875 75.6419 28.4342V27.0502H76.7786V26.4505H75.6419V25.943C75.6419 25.5739 75.6419 25.4355 75.5945 25.4355C75.5945 25.4355 75.3577 25.4817 75.1682 25.5278ZM87.341 24.7897C87.0568 24.882 86.9621 25.251 87.1516 25.5278C87.341 25.8046 87.862 25.8046 88.0041 25.5278C88.1462 25.251 88.0041 24.9281 87.7673 24.8358C87.5779 24.7436 87.4831 24.7436 87.2937 24.8358L87.341 24.7897ZM2.55759 24.7436C1.27873 24.9742 0.426164 25.7123 0.0946085 26.9118C-0.0474867 27.3731 -0.0474867 28.2035 0.0946085 28.6649C0.378799 29.7259 1.08927 30.4179 2.13131 30.7408C2.79442 30.9254 4.12064 30.8331 4.87848 30.6024H5.06794C5.06794 30.5563 5.06794 29.0801 5.06794 29.0801V27.6038H4.07327H3.03124V27.9729V28.2958H4.3101V30.0488H4.12064C3.83645 30.1872 2.88915 30.1872 2.60496 30.095C1.79975 29.8643 1.23137 29.3107 1.04191 28.4803C0.947179 28.1574 0.947179 27.327 1.04191 27.0041C1.27873 26.2198 1.79975 25.7123 2.60496 25.4817C2.98388 25.3894 3.97854 25.3894 4.35746 25.4817C4.49956 25.5278 4.68902 25.5739 4.73638 25.6201C4.78375 25.6201 4.83111 25.6201 4.87848 25.3433C4.87848 25.2049 4.97321 25.0204 4.97321 25.0204C4.97321 25.0204 4.87848 24.9281 4.68902 24.882C4.07327 24.6974 3.31543 24.6513 2.65232 24.7897L2.55759 24.7436ZM28.5136 24.6974C28.0874 24.7897 27.8979 24.8358 27.519 25.0204C26.3348 25.6201 25.7191 26.9579 26.0033 28.4342C26.098 29.0801 26.3822 29.5875 26.8085 30.0488C27.2821 30.5102 27.5663 30.6486 28.0874 30.7408C28.5136 30.8331 29.3188 30.8792 29.8399 30.7408C30.1714 30.6947 30.6451 30.5563 30.6451 30.5102C30.6451 30.464 30.503 29.9104 30.503 29.9104C30.503 29.9104 30.3609 29.9104 30.2188 30.0027C29.7925 30.1411 28.9399 30.1872 28.5136 30.0488C28.0874 29.9566 27.8032 29.772 27.519 29.4953C27.0927 29.0801 26.8559 28.4803 26.8559 27.7422C26.8559 26.4966 27.4242 25.6662 28.4663 25.3894C29.0347 25.251 29.6978 25.251 30.2661 25.4355L30.503 25.5278L30.5977 25.251C30.6924 25.0204 30.6451 24.882 30.5977 24.8358C30.2188 24.6513 29.1767 24.559 28.6084 24.6974H28.5136ZM84.9728 27.5577V30.7408H85.8253V24.4206H84.9728V27.6038V27.5577ZM38.6024 27.5577V30.7408H39.455V24.4206H38.6024V27.6038V27.5577ZM36.4236 27.5577V30.7408H37.2762V24.4206H36.4236V27.6038V27.5577Z" fill="white"/>
<path d="M11.6045 30.0489C10.7993 30.4179 9.94669 29.8182 9.8046 28.8494C9.70987 27.9729 10.0414 27.1886 10.7045 27.0041C10.9887 26.9118 11.415 26.9118 11.6518 27.0041C12.6939 27.5115 12.6465 29.5414 11.6045 30.0489ZM12.6939 26.8657C12.2676 26.4044 11.6518 26.2198 10.9414 26.266C10.4203 26.266 9.89933 26.5428 9.56777 26.9118C9.14149 27.3731 8.99939 27.8345 8.99939 28.5726C8.99939 29.3107 9.18885 29.7721 9.61513 30.1873C10.0414 30.6025 10.5151 30.787 11.0835 30.787C12.4097 30.787 13.3096 29.9105 13.3096 28.5726C13.3096 27.8345 13.1201 27.327 12.6939 26.9118V26.8657Z" fill="white"/>
<path d="M33.7713 30.0489C32.9661 30.4179 32.1136 29.8182 31.9715 28.8494C31.8767 27.9729 32.2083 27.1886 32.8714 27.0041C33.1556 26.9118 33.5819 26.9118 33.8187 27.0041C34.8607 27.5115 34.8134 29.5414 33.7713 30.0489ZM34.8607 26.8657C34.4344 26.4044 33.8187 26.2198 33.1082 26.266C32.5872 26.266 32.0662 26.5428 31.7346 26.9118C31.3084 27.3731 31.1663 27.8345 31.1663 28.5726C31.1663 29.3107 31.3557 29.7721 31.782 30.1873C32.2083 30.6025 32.6819 30.787 33.2503 30.787C34.5765 30.787 35.4765 29.9105 35.4765 28.5726C35.4765 27.8345 35.287 27.327 34.8607 26.9118V26.8657Z" fill="white"/>
<path d="M22.1669 29.2646C22.0721 29.4953 22.0248 29.5875 21.8353 29.8182C21.5511 30.095 21.3143 30.1873 20.888 30.1411C20.5565 30.1411 20.367 30.0488 20.1302 29.8182C19.846 29.5414 19.7986 29.3569 19.7513 28.711C19.7513 28.2497 19.7513 28.1113 19.846 27.8806C19.9407 27.5115 20.1775 27.2347 20.5091 27.0963C21.0301 26.8195 21.6932 27.0041 22.0248 27.5577C22.309 27.9729 22.3563 28.711 22.1669 29.3107V29.2646ZM23.0194 27.7883C22.7353 26.7734 21.93 26.1737 20.888 26.3121C20.5091 26.3582 20.1302 26.5889 19.846 26.8657L19.6092 27.0963V26.4043H18.8513V32.4939H19.7039V30.2334L19.8933 30.4179C20.2249 30.7408 20.7933 30.9254 21.2669 30.8792C22.1669 30.787 22.7826 30.2334 23.0194 29.3107C23.1142 28.9417 23.1142 28.2497 23.0194 27.8806V27.7883Z" fill="white"/>
<path d="M41.2549 28.1574V28.019C41.3496 27.7883 41.4917 27.5115 41.6338 27.327C41.8233 27.1425 41.9654 27.0502 42.2022 27.0041C42.5811 26.9118 43.0548 27.0502 43.2442 27.327C43.3863 27.5115 43.4811 27.6961 43.5284 27.9729V28.1574H41.2549ZM42.818 28.7571H44.381V28.4342C44.381 27.0502 43.5284 26.2198 42.2496 26.3582C41.7759 26.4043 41.4444 26.5889 41.0655 26.9579C40.6392 27.3731 40.4497 27.9267 40.4497 28.6187C40.4497 29.3107 40.6865 29.9105 41.1602 30.3256C41.6812 30.8331 42.7706 30.9254 43.7653 30.6486C43.9547 30.6024 44.0968 30.5102 44.0968 30.5102C44.0968 30.5102 44.0968 30.3257 44.0495 30.2334C44.0021 29.9566 44.0495 29.9566 43.5284 30.095C43.2442 30.1873 42.4864 30.1873 42.2496 30.095C42.0128 30.0489 41.6812 29.8182 41.5391 29.6337C41.397 29.4491 41.2549 29.0801 41.2549 28.8955V28.7571H42.818Z" fill="white"/>
<path d="M50.9175 28.1574V28.019C51.0122 27.7883 51.1543 27.5115 51.2964 27.327C51.4859 27.1425 51.628 27.0502 51.8648 27.0041C52.2437 26.9118 52.7174 27.0502 52.9068 27.327C53.0489 27.5115 53.1437 27.6961 53.191 27.9729V28.1574H50.9175ZM52.4806 28.7571H54.0436V28.4342C54.0436 27.0502 53.191 26.2198 51.9122 26.3582C51.4385 26.4043 51.107 26.5889 50.728 26.9579C50.3018 27.3731 50.1123 27.9267 50.1123 28.6187C50.1123 29.3107 50.3491 29.9105 50.8228 30.3256C51.3438 30.8331 52.4332 30.9254 53.4279 30.6486C53.6173 30.6024 53.7594 30.5102 53.7594 30.5102C53.7594 30.5102 53.7594 30.3257 53.712 30.2334C53.6647 29.9566 53.712 29.9566 53.191 30.095C52.9068 30.1873 52.149 30.1873 51.9122 30.095C51.6753 30.0489 51.3438 29.8182 51.2017 29.6337C51.0596 29.4491 50.9175 29.0801 50.9175 28.8955V28.7571H52.4806Z" fill="white"/>
<path d="M48.2177 29.3107C47.9335 30.0489 46.9862 30.3256 46.3704 29.8182C45.9915 29.4953 45.8494 29.0339 45.8968 28.4342C45.8968 27.7883 46.181 27.327 46.6072 27.0963C47.223 26.7734 47.9808 27.0963 48.2177 27.7422C48.3124 27.9729 48.3124 29.0801 48.2177 29.3107ZM48.786 26.4505H48.4071V26.5889C48.4071 26.6811 48.4071 26.7734 48.4071 26.8657V27.0041L48.1229 26.7734C47.7914 26.4505 47.2703 26.3121 46.7493 26.3582C45.7073 26.4966 44.9968 27.4193 44.9968 28.6187C44.9968 29.7259 45.6126 30.5563 46.6072 30.7408C47.1756 30.8331 47.6493 30.6947 48.0282 30.3256L48.2177 30.1411V30.6024C48.1703 31.156 48.0756 31.4328 47.7914 31.7096C47.3651 32.0787 46.5125 32.1248 45.7547 31.8019C45.6126 31.7558 45.5178 31.7096 45.5178 31.7558C45.5178 31.7558 45.4231 31.8942 45.3757 32.0787L45.281 32.3555H45.4231C45.5178 32.4478 45.6599 32.54 45.802 32.5862C46.1336 32.6784 46.9862 32.7246 47.4124 32.6784C48.0282 32.54 48.5492 32.2171 48.786 31.7096C49.0229 31.2022 49.0229 31.4328 49.0702 27.4193V26.5427H48.7387L48.786 26.4505Z" fill="white"/>
<path d="M62.6639 28.2497C62.1903 28.2497 61.764 28.2497 61.764 28.2497C61.764 28.2497 61.9061 27.7883 62.0955 27.2809C62.285 26.7273 62.4745 26.1737 62.5218 25.9891C62.5692 25.8046 62.6165 25.6201 62.6165 25.6201C62.6165 25.6201 62.6639 25.7123 62.7586 25.943C62.806 26.1275 62.9955 26.7273 63.1849 27.2809C63.3744 27.7883 63.5165 28.2497 63.5165 28.2958C63.5165 28.3419 63.1376 28.2958 62.6165 28.2958L62.6639 28.2497ZM63.1849 24.7897C63.1849 24.7436 63.0902 24.6974 62.6639 24.6974C62.2376 24.6974 62.1903 24.6974 62.1903 24.7436C62.1903 24.7436 62.0482 25.1587 61.8587 25.5739C61.7166 26.0353 61.243 27.3731 60.8167 28.5265L60.0588 30.6947H60.9114L61.243 29.772L61.5745 28.8494H62.6639H63.7533L64.0849 29.772L64.4164 30.6947H64.8427C65.0795 30.6947 65.269 30.6947 65.269 30.6947C65.269 30.6947 63.2323 24.8358 63.1849 24.7897Z" fill="white"/>
<path d="M82.8889 29.0339C82.8889 29.403 82.8889 29.5414 82.7942 29.6798C82.4626 30.3257 81.4206 30.4641 81.1838 29.8643C81.089 29.6337 81.089 29.4953 81.1838 29.2646C81.2785 28.8955 81.7521 28.6649 82.4152 28.6187C83.031 28.5726 82.9836 28.4803 82.9836 29.0339M83.7415 29.7721C83.7415 27.7883 83.7415 27.6038 83.5994 27.327C83.4099 26.8657 83.0784 26.5428 82.6047 26.4044C82.3679 26.3582 81.8942 26.3121 81.61 26.3582C81.1364 26.4044 80.4733 26.6812 80.5206 26.7734C80.5206 26.7734 80.568 26.9118 80.6154 27.0502C80.6154 27.1886 80.7101 27.2809 80.7575 27.2347C81.2311 27.0502 81.4206 26.958 81.7521 26.958C82.0363 26.958 82.1784 26.9579 82.3205 27.0041C82.6521 27.1425 82.8889 27.4654 82.8889 27.8345V27.9729H82.4626C81.8942 28.019 81.5153 28.1113 81.1364 28.2958C80.5206 28.5726 80.2365 28.9878 80.2365 29.5875C80.2365 29.8643 80.2365 29.9566 80.3312 30.1411C80.568 30.5563 80.8522 30.7409 81.3258 30.8331C81.7995 30.9254 82.4152 30.7409 82.7468 30.4179L82.9363 30.2334V30.5102L82.9836 30.787H83.6941V29.8182L83.7415 29.7721Z" fill="white"/>
<path d="M91.6041 29.0339C91.6041 29.403 91.6041 29.5414 91.5094 29.6798C91.1778 30.3257 90.1358 30.4641 89.899 29.8643C89.8042 29.6337 89.8042 29.4953 89.899 29.2646C89.9937 28.8955 90.4673 28.6649 91.1304 28.6187C91.7462 28.5726 91.6988 28.4803 91.6988 29.0339M92.4567 29.7721C92.4567 27.7883 92.4567 27.6038 92.3146 27.327C92.1251 26.8657 91.7936 26.5428 91.3199 26.4044C91.0831 26.3582 90.6094 26.3121 90.3252 26.3582C89.8516 26.4044 89.1885 26.6812 89.2358 26.7734C89.2358 26.7734 89.2832 26.9118 89.3306 27.0502C89.3306 27.1886 89.4253 27.2809 89.4727 27.2347C89.9463 27.0502 90.1358 26.958 90.4673 26.958C90.7515 26.958 90.8936 26.9579 91.0357 27.0041C91.3673 27.1425 91.6041 27.4654 91.6041 27.8345V27.9729H91.1778C90.6094 28.019 90.2305 28.1113 89.8516 28.2958C89.2358 28.5726 88.9517 28.9878 88.9517 29.5875C88.9517 29.8643 88.9517 29.9566 89.0464 30.1411C89.2832 30.5563 89.5674 30.7409 90.0411 30.8331C90.5147 30.9254 91.1305 30.7409 91.462 30.4179L91.6515 30.2334V30.5102L91.6988 30.787H92.4093V29.8182L92.4567 29.7721Z" fill="white"/>
<path d="M62.0956 10.7191V18.0543H30.5505V3.38399H62.0956V10.7191ZM46.323 2H29.1295V19.3921H63.5166V2H46.323Z" fill="white"/>
<path d="M46.0862 6.79784C45.802 6.79784 45.2336 6.98237 44.9494 7.12077C43.9548 7.53596 43.1495 8.36636 42.818 9.38128C42.6285 9.93488 42.5812 10.3962 42.6285 11.0421C42.7233 12.8413 43.7179 14.0868 45.4231 14.5482C45.8967 14.6866 47.1756 14.6866 47.744 14.5943C48.1702 14.502 48.7386 14.3636 48.7386 14.3175C48.7386 14.2252 48.5018 13.0258 48.4544 12.9797C48.4544 12.9797 48.265 12.9797 48.0755 13.0258C47.5545 13.1642 46.7967 13.2103 46.323 13.1181C45.1389 12.8874 44.4758 12.0109 44.4758 10.7191C44.4758 9.42742 45.1389 8.59702 46.2283 8.32022C46.6546 8.22796 47.6019 8.27409 48.0755 8.41249C48.265 8.45862 48.4544 8.50476 48.4544 8.50476C48.4544 8.50476 48.5492 8.18183 48.6439 7.81276C48.786 7.25917 48.8334 7.12077 48.786 7.12077C48.6913 7.07463 48.3123 6.93624 47.9334 6.8901C47.6019 6.84397 46.4651 6.79784 46.1335 6.8901L46.0862 6.79784Z" fill="white"/>
<path d="M37.75 6.89009C36.7553 7.07462 36.0449 7.44369 35.4291 8.04342C34.9555 8.50474 34.6713 8.96607 34.4818 9.61194C34.3871 9.981 34.3397 10.0271 34.3397 10.8575C34.3397 11.6879 34.3397 11.7341 34.4818 12.1031C34.6713 12.7028 34.9081 13.118 35.3344 13.5332C36.187 14.3636 37.1816 14.6866 38.8868 14.6404C39.692 14.6404 40.3077 14.502 40.9708 14.3175L41.255 14.2252V12.1954V10.1655H38.271V11.5495H39.4551V12.3338C39.4551 13.0258 39.4551 13.118 39.3604 13.1642C39.171 13.2103 38.3184 13.2564 37.9868 13.1642C37.0869 12.9796 36.4711 12.3799 36.2343 11.5034C36.1396 11.1343 36.1396 10.3962 36.2343 10.0271C36.4711 9.19674 37.0395 8.59701 37.9395 8.41248C38.5078 8.27408 39.692 8.36635 40.3077 8.55088C40.4498 8.59701 40.5445 8.64314 40.5445 8.64314C40.5445 8.64314 40.6393 8.32021 40.734 7.95115C40.8761 7.44369 40.9235 7.25916 40.8761 7.21302C40.8287 7.21302 40.3551 7.02849 40.0235 6.98236C39.6446 6.89009 38.0816 6.89009 37.7026 6.98236L37.75 6.89009Z" fill="white"/>
<path d="M54.0909 11.2266C54.0909 11.2266 53.7119 11.2266 53.2383 11.2266H52.4331L52.6699 10.3962C52.812 9.93487 53.0015 9.28901 53.0488 8.91995L53.1909 8.22795L53.3804 9.01221C53.4751 9.42741 53.7119 10.1194 53.8067 10.4885C53.9488 10.9037 54.0435 11.2266 53.9961 11.2266H54.0909ZM55.7013 10.6269L54.5171 6.84396H52.1489L50.9648 10.6269C50.3017 12.7029 49.7806 14.4559 49.7806 14.4559C49.7806 14.4559 50.1122 14.4559 50.6806 14.4559H51.6279L51.8647 13.5794C52.0068 13.118 52.1489 12.6567 52.1489 12.6106V12.4722H53.2857H54.4224L54.6119 13.118C54.7066 13.441 54.8487 13.9023 54.8961 14.0868L54.9908 14.4559H55.9381C56.5538 14.4559 56.8854 14.4559 56.8854 14.3636C56.8854 14.3636 56.317 12.6106 55.6539 10.5346L55.7013 10.6269Z" fill="white"/>
<path d="M100.474 2V31.2778" stroke="white" stroke-opacity="0.5" stroke-miterlimit="10"/>
</g>
<defs>
<clipPath id="clip0_188_329">
<rect width="232" height="34" fill="white"/>
</clipPath>
</defs>
</svg>
