<svg width="172" height="98" viewBox="0 0 172 98" fill="none" xmlns="http://www.w3.org/2000/svg">
<g clip-path="url(#clip0_74_3013)">
<rect width="172" height="98" rx="6" fill="#E4E6FB"/>
<g filter="url(#filter0_d_74_3013)">
<rect x="66" y="10" width="40" height="40" rx="3" fill="white"/>
</g>
<g clip-path="url(#clip1_74_3013)">
<path d="M86 18.0833C83.6432 18.0833 81.3392 18.7822 79.3795 20.0917C77.4198 21.4011 75.8924 23.2622 74.9905 25.4397C74.0885 27.6172 73.8525 30.0132 74.3124 32.3248C74.7722 34.6364 75.9071 36.7598 77.5737 38.4264C79.2403 40.0929 81.3636 41.2279 83.6752 41.6877C85.9868 42.1475 88.3829 41.9115 90.5604 41.0096C92.7378 40.1076 94.599 38.5802 95.9084 36.6206C97.2178 34.6609 97.9167 32.3569 97.9167 30C97.9239 28.4331 97.6205 26.8803 97.0242 25.4312C96.4279 23.9822 95.5504 22.6657 94.4424 21.5577C93.3344 20.4497 92.0179 19.5722 90.5688 18.9758C89.1198 18.3795 87.567 18.0762 86 18.0833ZM92.3375 33.7917C92.2401 33.9505 92.1052 34.0829 91.9447 34.1773C91.7841 34.2718 91.6028 34.3254 91.4167 34.3333C91.2245 34.3308 91.0369 34.2745 90.875 34.1708L84.9167 30.5958V24.5833C84.9167 24.296 85.0308 24.0205 85.234 23.8173C85.4372 23.6141 85.7127 23.5 86 23.5C86.2874 23.5 86.5629 23.6141 86.7661 23.8173C86.9692 24.0205 87.0834 24.296 87.0834 24.5833V29.4042L91.9584 32.3292C92.0834 32.3963 92.1931 32.4886 92.2808 32.6001C92.3684 32.7117 92.432 32.8402 92.4676 32.9776C92.5032 33.1149 92.5101 33.2581 92.4877 33.3982C92.4653 33.5383 92.4142 33.6723 92.3375 33.7917Z" fill="#6E74E6"/>
</g>
<path d="M55.6165 71.1406V69.8182H63.4964V71.1406H60.3196V80H58.7884V71.1406H55.6165ZM65.1184 80V72.3636H66.6049V80H65.1184ZM65.8691 71.1854C65.6106 71.1854 65.3886 71.0992 65.2029 70.9268C65.0207 70.7512 64.9295 70.5424 64.9295 70.3004C64.9295 70.0552 65.0207 69.8464 65.2029 69.674C65.3886 69.4983 65.6106 69.4105 65.8691 69.4105C66.1277 69.4105 66.3481 69.4983 66.5304 69.674C66.716 69.8464 66.8088 70.0552 66.8088 70.3004C66.8088 70.5424 66.716 70.7512 66.5304 70.9268C66.3481 71.0992 66.1277 71.1854 65.8691 71.1854ZM68.6048 80V72.3636H70.0316V73.6065H70.1261C70.2852 73.1856 70.5453 72.8575 70.9066 72.6222C71.2679 72.3835 71.7004 72.2642 72.2042 72.2642C72.7146 72.2642 73.1422 72.3835 73.4869 72.6222C73.8349 72.8608 74.0917 73.1889 74.2575 73.6065H74.337C74.5193 73.1989 74.8093 72.8741 75.207 72.6321C75.6048 72.3868 76.0787 72.2642 76.6289 72.2642C77.3216 72.2642 77.8867 72.4813 78.3242 72.9155C78.765 73.3497 78.9854 74.0043 78.9854 74.8793V80H77.4989V75.0185C77.4989 74.5014 77.3581 74.1269 77.0763 73.8949C76.7946 73.6629 76.4582 73.5469 76.0671 73.5469C75.5832 73.5469 75.207 73.696 74.9386 73.9943C74.6701 74.2893 74.5359 74.6688 74.5359 75.1328V80H73.0543V74.924C73.0543 74.5097 72.9251 74.1766 72.6665 73.9247C72.408 73.6728 72.0716 73.5469 71.6573 73.5469C71.3756 73.5469 71.1154 73.6214 70.8768 73.7706C70.6415 73.9164 70.4509 74.1203 70.305 74.3821C70.1625 74.6439 70.0913 74.9472 70.0913 75.2919V80H68.6048ZM84.269 80.1541C83.5166 80.1541 82.8687 79.9934 82.3251 79.6719C81.7849 79.3471 81.3672 78.8913 81.0723 78.3047C80.7806 77.7147 80.6348 77.0237 80.6348 76.2315C80.6348 75.4493 80.7806 74.7599 81.0723 74.1634C81.3672 73.5668 81.7782 73.1011 82.3052 72.7663C82.8355 72.4316 83.4553 72.2642 84.1646 72.2642C84.5955 72.2642 85.0131 72.3355 85.4174 72.478C85.8218 72.6205 86.1847 72.8442 86.5062 73.1491C86.8277 73.4541 87.0813 73.8501 87.2669 74.3374C87.4525 74.8213 87.5453 75.4096 87.5453 76.1023V76.6293H81.475V75.5156H86.0886C86.0886 75.1245 86.0091 74.7782 85.85 74.4766C85.6909 74.1716 85.4672 73.9313 85.1788 73.7557C84.8938 73.58 84.559 73.4922 84.1745 73.4922C83.7569 73.4922 83.3923 73.5949 83.0808 73.8004C82.7725 74.0026 82.5339 74.2678 82.3649 74.5959C82.1992 74.9207 82.1163 75.2737 82.1163 75.6548V76.5249C82.1163 77.0353 82.2058 77.4695 82.3848 77.8274C82.5671 78.1854 82.8206 78.4588 83.1454 78.6477C83.4702 78.8333 83.8497 78.9261 84.2839 78.9261C84.5656 78.9261 84.8225 78.8864 85.0545 78.8068C85.2865 78.724 85.487 78.6013 85.6561 78.4389C85.8251 78.2765 85.9544 78.076 86.0439 77.8374L87.4508 78.0909C87.3381 78.5052 87.1359 78.8681 86.8443 79.1797C86.5559 79.4879 86.193 79.7282 85.7555 79.9006C85.3213 80.0696 84.8258 80.1541 84.269 80.1541ZM92.7592 72.3636V73.5568H88.5881V72.3636H92.7592ZM89.7067 70.5341H91.1932V77.7578C91.1932 78.0462 91.2363 78.2633 91.3224 78.4091C91.4086 78.5516 91.5196 78.6494 91.6555 78.7024C91.7947 78.7521 91.9455 78.777 92.108 78.777C92.2273 78.777 92.3317 78.7687 92.4212 78.7521C92.5107 78.7356 92.5803 78.7223 92.63 78.7124L92.8984 79.9403C92.8123 79.9735 92.6896 80.0066 92.5305 80.0398C92.3714 80.0762 92.1726 80.0961 91.9339 80.0994C91.5429 80.1061 91.1783 80.0365 90.8402 79.8906C90.5021 79.7448 90.2287 79.5194 90.0199 79.2145C89.8111 78.9096 89.7067 78.5268 89.7067 78.0661V70.5341ZM96.6259 80.169C96.142 80.169 95.7045 80.0795 95.3134 79.9006C94.9223 79.7183 94.6124 79.4548 94.3837 79.1101C94.1583 78.7654 94.0456 78.3428 94.0456 77.8423C94.0456 77.4115 94.1285 77.0568 94.2942 76.7784C94.4599 76.5 94.6837 76.2796 94.9654 76.1172C95.2471 75.9548 95.562 75.8321 95.91 75.7493C96.258 75.6664 96.6126 75.6035 96.9739 75.5604C97.4313 75.5073 97.8025 75.4643 98.0875 75.4311C98.3726 75.3946 98.5797 75.3366 98.709 75.2571C98.8382 75.1776 98.9029 75.0483 98.9029 74.8693V74.8345C98.9029 74.4003 98.7802 74.0639 98.535 73.8253C98.293 73.5866 97.9318 73.4673 97.4512 73.4673C96.9507 73.4673 96.5563 73.5784 96.2679 73.8004C95.9829 74.0192 95.7857 74.2628 95.6763 74.5312L94.2793 74.2131C94.445 73.7491 94.687 73.3745 95.0051 73.0895C95.3266 72.8011 95.6962 72.5923 96.1138 72.4631C96.5314 72.3305 96.9706 72.2642 97.4313 72.2642C97.7362 72.2642 98.0594 72.3007 98.4007 72.3736C98.7454 72.4432 99.0669 72.5724 99.3652 72.7614C99.6668 72.9503 99.9138 73.2204 100.106 73.5717C100.298 73.9197 100.394 74.3722 100.394 74.929V80H98.9426V78.956H98.883C98.7869 79.1482 98.6427 79.3371 98.4505 79.5227C98.2582 79.7083 98.0113 79.8625 97.7097 79.9851C97.4081 80.1077 97.0468 80.169 96.6259 80.169ZM96.949 78.9759C97.36 78.9759 97.7114 78.8946 98.003 78.7322C98.298 78.5698 98.5217 78.3577 98.6742 78.0959C98.83 77.8307 98.9078 77.5473 98.9078 77.2457V76.2614C98.8548 76.3144 98.7521 76.3641 98.5996 76.4105C98.4505 76.4536 98.2798 76.4917 98.0875 76.5249C97.8953 76.5547 97.708 76.5829 97.5257 76.6094C97.3435 76.6326 97.191 76.6525 97.0684 76.669C96.78 76.7055 96.5165 76.7668 96.2779 76.853C96.0426 76.9392 95.8536 77.0634 95.7111 77.2259C95.5719 77.3849 95.5023 77.5971 95.5023 77.8622C95.5023 78.2301 95.6382 78.5085 95.91 78.6974C96.1818 78.883 96.5281 78.9759 96.949 78.9759ZM102.494 80V69.8182H103.98V73.6016H104.07C104.156 73.4425 104.28 73.2585 104.442 73.0497C104.605 72.8409 104.83 72.6586 105.119 72.5028C105.407 72.3438 105.788 72.2642 106.262 72.2642C106.879 72.2642 107.429 72.42 107.913 72.7315C108.397 73.0431 108.776 73.4922 109.051 74.0788C109.33 74.6655 109.469 75.3714 109.469 76.1967C109.469 77.022 109.331 77.7296 109.056 78.3196C108.781 78.9062 108.403 79.3587 107.923 79.6768C107.442 79.9917 106.893 80.1491 106.277 80.1491C105.813 80.1491 105.433 80.0713 105.138 79.9155C104.847 79.7597 104.618 79.5774 104.452 79.3686C104.287 79.1598 104.159 78.9742 104.07 78.8118H103.945V80H102.494ZM103.95 76.1818C103.95 76.7187 104.028 77.1894 104.184 77.5938C104.34 77.9981 104.565 78.3146 104.86 78.5433C105.155 78.7687 105.516 78.8814 105.944 78.8814C106.388 78.8814 106.759 78.7637 107.058 78.5284C107.356 78.2898 107.581 77.9666 107.734 77.5589C107.889 77.1513 107.967 76.6922 107.967 76.1818C107.967 75.678 107.891 75.2256 107.739 74.8246C107.589 74.4235 107.364 74.107 107.062 73.875C106.764 73.643 106.391 73.527 105.944 73.527C105.513 73.527 105.148 73.638 104.85 73.8601C104.555 74.0821 104.331 74.392 104.179 74.7898C104.027 75.1875 103.95 75.6515 103.95 76.1818ZM112.624 69.8182V80H111.138V69.8182H112.624ZM117.915 80.1541C117.163 80.1541 116.515 79.9934 115.972 79.6719C115.431 79.3471 115.014 78.8913 114.719 78.3047C114.427 77.7147 114.281 77.0237 114.281 76.2315C114.281 75.4493 114.427 74.7599 114.719 74.1634C115.014 73.5668 115.425 73.1011 115.952 72.7663C116.482 72.4316 117.102 72.2642 117.811 72.2642C118.242 72.2642 118.66 72.3355 119.064 72.478C119.468 72.6205 119.831 72.8442 120.153 73.1491C120.474 73.4541 120.728 73.8501 120.913 74.3374C121.099 74.8213 121.192 75.4096 121.192 76.1023V76.6293H115.121V75.5156H119.735C119.735 75.1245 119.656 74.7782 119.496 74.4766C119.337 74.1716 119.114 73.9313 118.825 73.7557C118.54 73.58 118.205 73.4922 117.821 73.4922C117.403 73.4922 117.039 73.5949 116.727 73.8004C116.419 74.0026 116.18 74.2678 116.011 74.5959C115.846 74.9207 115.763 75.2737 115.763 75.6548V76.5249C115.763 77.0353 115.852 77.4695 116.031 77.8274C116.214 78.1854 116.467 78.4588 116.792 78.6477C117.117 78.8333 117.496 78.9261 117.93 78.9261C118.212 78.9261 118.469 78.8864 118.701 78.8068C118.933 78.724 119.134 78.6013 119.303 78.4389C119.472 78.2765 119.601 78.076 119.69 77.8374L121.097 78.0909C120.985 78.5052 120.782 78.8681 120.491 79.1797C120.202 79.4879 119.839 79.7282 119.402 79.9006C118.968 80.0696 118.472 80.1541 117.915 80.1541Z" fill="#2D2D2D"/>
</g>
<rect x="0.5" y="0.5" width="171" height="97" rx="5.5" stroke="#6E74E6" stroke-opacity="0.5"/>
<defs>
<filter id="filter0_d_74_3013" x="55" y="-1" width="62" height="62" filterUnits="userSpaceOnUse" color-interpolation-filters="sRGB">
<feFlood flood-opacity="0" result="BackgroundImageFix"/>
<feColorMatrix in="SourceAlpha" type="matrix" values="0 0 0 0 0 0 0 0 0 0 0 0 0 0 0 0 0 0 127 0" result="hardAlpha"/>
<feOffset/>
<feGaussianBlur stdDeviation="5.5"/>
<feComposite in2="hardAlpha" operator="out"/>
<feColorMatrix type="matrix" values="0 0 0 0 0.431373 0 0 0 0 0.454902 0 0 0 0 0.901961 0 0 0 0.25 0"/>
<feBlend mode="normal" in2="BackgroundImageFix" result="effect1_dropShadow_74_3013"/>
<feBlend mode="normal" in="SourceGraphic" in2="effect1_dropShadow_74_3013" result="shape"/>
</filter>
<clipPath id="clip0_74_3013">
<rect width="172" height="98" rx="6" fill="white"/>
</clipPath>
<clipPath id="clip1_74_3013">
<rect width="26" height="26" fill="white" transform="translate(73 17)"/>
</clipPath>
</defs>
</svg>
