<svg width="195" height="158" viewBox="0 0 195 158" fill="none" xmlns="http://www.w3.org/2000/svg">
<g clip-path="url(#clip0_148_1663)">
<path d="M184 58.4V63.1H185.8V53.8H184V58.5V58.4ZM139.3 57.1C139.3 59.7 139.3 60.5 139.5 60.9C139.9 62.3 140.7 63.1 142 63.3C143.2 63.5 144.4 63.1 145.2 62.3L145.7 61.8V62.2C145.7 62.4 145.8 62.7 145.8 62.9V63.2H147.4V62.5C147.4 62.1 147.3 60 147.3 57.8V53.9H145.5V57C145.5 58.8 145.5 60.2 145.5 60.4C145.4 60.8 144.8 61.5 144.4 61.7C143.9 61.9 143.3 62 142.8 61.9C142.2 61.8 141.7 61.4 141.5 60.7C141.3 60.2 141.3 60 141.2 57V53.8H139.4V57.1H139.3ZM29.7 57.1C29.7 59.7 29.7 60.5 29.9 60.9C30.3 62.3 31.1 63.1 32.4 63.3C33.6 63.5 34.8 63.1 35.6 62.3L36.1 61.8V62.5L36.2 63.2H37.8V62.7C37.8 62.4 37.7 60.3 37.7 58V53.8H35.9V56.9C35.9 59.8 35.9 60 35.7 60.4C34.9 62.1 32.7 62.4 31.9 60.9C31.6 60.3 31.5 59.5 31.5 56.6V53.8H29.7V57.1ZM167.7 53.6C166.9 53.8 166.1 54.3 165.7 55.1L165.5 55.5V54.9C165.5 54.6 165.5 54.2 165.5 54V53.7H164V63H165.8V60.1C165.8 56.9 165.9 56.6 166.5 55.9C167 55.4 167.5 55.1 168.2 55.1H168.8V54.3C168.8 53.5 168.8 53.5 168.6 53.4C168.4 53.4 168.3 53.4 167.8 53.4M152.2 53.6C151.1 53.7 150.2 54.4 149.8 55.3C149.6 55.8 149.6 56.7 149.8 57.2C150 57.7 150.7 58.4 151.5 58.7C153.5 59.6 153.8 59.9 153.8 60.6C153.8 61.7 152.6 62.2 151 61.8C150.7 61.8 150.3 61.6 150.1 61.5C149.9 61.4 149.8 61.3 149.8 61.3C149.8 61.3 149.7 61.6 149.6 62C149.5 62.4 149.4 62.7 149.5 62.7C149.5 62.7 149.8 62.9 150.1 63C151.8 63.6 153.7 63.4 154.7 62.5C155.7 61.6 155.9 60.2 155.2 59.1C154.9 58.6 154.2 58.1 153 57.6C152.5 57.4 152 57.1 151.8 56.9C151.5 56.6 151.5 56.5 151.5 56.1C151.5 55.7 151.7 55.3 152.2 55C152.7 54.8 153.5 54.8 154.1 55C154.4 55.1 154.7 55.2 154.8 55.2C154.9 55.2 155 55.2 155.2 54.6C155.4 53.9 155.5 53.9 154.6 53.6C153.9 53.4 153.2 53.3 152.4 53.4L152.2 53.6ZM118.3 53.6C116.6 53.9 115.4 55.2 115.7 56.7C115.9 57.7 116.7 58.4 118.3 59C118.7 59.2 119.1 59.4 119.4 59.7C119.8 60.1 119.8 60.1 119.8 60.6C119.8 61.1 119.6 61.5 119 61.8C118.2 62.1 117.1 62 115.8 61.3C115.7 61.3 115.3 62.6 115.4 62.7C115.6 62.9 116.5 63.2 117.2 63.3C118 63.4 119.2 63.3 119.9 63C120.5 62.7 121.1 62.1 121.3 61.6C121.3 61.4 121.4 61 121.4 60.6C121.4 59.2 120.8 58.5 118.6 57.6C117.6 57.2 117.2 56.8 117.2 56.3C117.2 55.8 117.2 55.8 117.3 55.6C117.6 55 118.8 54.8 119.8 55.2C120.1 55.3 120.4 55.4 120.5 55.4C120.6 55.4 120.7 55.4 120.9 54.8C121.1 54.1 121.2 54.1 120.3 53.8C119.6 53.6 118.8 53.5 118.2 53.6H118.3ZM16.8 53.6C16 53.7 15.3 54.4 14.9 55.1C14.7 55.5 14.6 55.4 14.6 54.6V53.8H13V54.2C13 54.4 13.1 56.5 13.1 58.9V63.1H14.9V60.1V57.1L15.2 56.5C15.4 56.1 15.6 55.8 15.8 55.6C16.2 55.3 17 55.1 17.4 55.2H17.7V54.4C17.7 53.6 17.7 53.6 17.5 53.5C17.3 53.5 17.2 53.5 16.7 53.5L16.8 53.6ZM158.7 51.8L157.9 52V53.7H156.5V55H157.9V58.1C157.9 60.6 158 61.3 158.1 61.6C158.5 62.7 159.3 63.2 160.5 63.2C160.9 63.2 161.4 63.2 161.6 63.1H162C162 63 162 62.6 162 62.6C162 62.4 162 62.1 162 62C162 61.8 162 61.8 161.3 61.8C160.5 61.8 160.2 61.7 159.9 61.3C159.8 61.1 159.7 60.6 159.7 58.1V55.1H162.1V53.8H159.7V52.7C159.7 51.9 159.7 51.6 159.6 51.6C159.6 51.6 159.1 51.7 158.7 51.8ZM184.4 50.2C183.8 50.4 183.6 51.2 184 51.8C184.4 52.4 185.5 52.4 185.8 51.8C186.1 51.2 185.8 50.5 185.3 50.3C184.9 50.1 184.7 50.1 184.3 50.3L184.4 50.2ZM5.40001 50.1C2.70001 50.6 0.900006 52.2 0.200006 54.8C-0.0999939 55.8 -0.0999939 57.6 0.200006 58.6C0.800006 60.9 2.30001 62.4 4.50001 63.1C5.90001 63.5 8.70001 63.3 10.3 62.8H10.7C10.7 62.7 10.7 59.5 10.7 59.5V56.3H8.60001H6.40001V57.1V57.8H9.10001V61.6H8.70001C8.10001 61.9 6.10001 61.9 5.50001 61.7C3.80001 61.2 2.60001 60 2.20001 58.2C2.00001 57.5 2.00001 55.7 2.20001 55C2.70001 53.3 3.80001 52.2 5.50001 51.7C6.30001 51.5 8.40001 51.5 9.20001 51.7C9.50001 51.8 9.90001 51.9 10 52C10.1 52 10.2 52 10.3 51.4C10.3 51.1 10.5 50.7 10.5 50.7C10.5 50.7 10.3 50.5 9.90001 50.4C8.60001 50 7.00001 49.9 5.60001 50.2L5.40001 50.1ZM60.2 50C59.3 50.2 58.9 50.3 58.1 50.7C55.6 52 54.3 54.9 54.9 58.1C55.1 59.5 55.7 60.6 56.6 61.6C57.6 62.6 58.2 62.9 59.3 63.1C60.2 63.3 61.9 63.4 63 63.1C63.7 63 64.7 62.7 64.7 62.6C64.7 62.5 64.4 61.3 64.4 61.3C64.4 61.3 64.1 61.3 63.8 61.5C62.9 61.8 61.1 61.9 60.2 61.6C59.3 61.4 58.7 61 58.1 60.4C57.2 59.5 56.7 58.2 56.7 56.6C56.7 53.9 57.9 52.1 60.1 51.5C61.3 51.2 62.7 51.2 63.9 51.6L64.4 51.8L64.6 51.2C64.8 50.7 64.7 50.4 64.6 50.3C63.8 49.9 61.6 49.7 60.4 50H60.2ZM179.4 56.2V63.1H181.2V49.4H179.4V56.3V56.2ZM81.5 56.2V63.1H83.3V49.4H81.5V56.3V56.2ZM76.9 56.2V63.1H78.7V49.4H76.9V56.3V56.2Z" fill="#000044"/>
<path d="M24.5 61.6C22.8 62.4 21 61.1 20.7 59C20.5 57.1 21.2 55.4 22.6 55C23.2 54.8 24.1 54.8 24.6 55C26.8 56.1 26.7 60.5 24.5 61.6ZM26.8 54.7C25.9 53.7 24.6 53.3 23.1 53.4C22 53.4 20.9 54 20.2 54.8C19.3 55.8 19 56.8 19 58.4C19 60 19.4 61 20.3 61.9C21.2 62.8 22.2 63.2 23.4 63.2C26.2 63.2 28.1 61.3 28.1 58.4C28.1 56.8 27.7 55.7 26.8 54.8V54.7Z" fill="#000044"/>
<path d="M71.3 61.6C69.6 62.4 67.8 61.1 67.5 59C67.3 57.1 68 55.4 69.4 55C70 54.8 70.9 54.8 71.4 55C73.6 56.1 73.5 60.5 71.3 61.6ZM73.6 54.7C72.7 53.7 71.4 53.3 69.9 53.4C68.8 53.4 67.7 54 67 54.8C66.1 55.8 65.8 56.8 65.8 58.4C65.8 60 66.2 61 67.1 61.9C68 62.8 69 63.2 70.2 63.2C73 63.2 74.9 61.3 74.9 58.4C74.9 56.8 74.5 55.7 73.6 54.8V54.7Z" fill="#000044"/>
<path d="M46.8 59.9001C46.6 60.4001 46.5 60.6001 46.1 61.1001C45.5 61.7001 45 61.9001 44.1 61.8001C43.4 61.8001 43 61.6001 42.5 61.1001C41.9 60.5001 41.8 60.1001 41.7 58.7001C41.7 57.7001 41.7 57.4001 41.9 56.9001C42.1 56.1001 42.6 55.5001 43.3 55.2001C44.4 54.6001 45.8 55.0001 46.5 56.2001C47.1 57.1001 47.2 58.7001 46.8 60.0001V59.9001ZM48.6 56.7001C48 54.5001 46.3 53.2001 44.1 53.5001C43.3 53.6001 42.5 54.1001 41.9 54.7001L41.4 55.2001V53.7001H39.8V66.9001H41.6V62.0001L42 62.4001C42.7 63.1001 43.9 63.5001 44.9 63.4001C46.8 63.2001 48.1 62.0001 48.6 60.0001C48.8 59.2001 48.8 57.7001 48.6 56.9001V56.7001Z" fill="#000044"/>
<path d="M87.1 57.5V57.2C87.3 56.7 87.6 56.1 87.9 55.7C88.3 55.3 88.6 55.1 89.1 55C89.9 54.8 90.9 55.1 91.3 55.7C91.6 56.1 91.8 56.5 91.9 57.1V57.5H87.1ZM90.4 58.8H93.7V58.1C93.7 55.1 91.9 53.3 89.2 53.6C88.2 53.7 87.5 54.1 86.7 54.9C85.8 55.8 85.4 57 85.4 58.5C85.4 60 85.9 61.3 86.9 62.2C88 63.3 90.3 63.5 92.4 62.9C92.8 62.8 93.1 62.6 93.1 62.6C93.1 62.6 93.1 62.2 93 62C92.9 61.4 93 61.4 91.9 61.7C91.3 61.9 89.7 61.9 89.2 61.7C88.7 61.6 88 61.1 87.7 60.7C87.4 60.3 87.1 59.5 87.1 59.1V58.8H90.4Z" fill="#000044"/>
<path d="M107.5 57.5V57.2C107.7 56.7 108 56.1 108.3 55.7C108.7 55.3 109 55.1 109.5 55C110.3 54.8 111.3 55.1 111.7 55.7C112 56.1 112.2 56.5 112.3 57.1V57.5H107.5ZM110.8 58.8H114.1V58.1C114.1 55.1 112.3 53.3 109.6 53.6C108.6 53.7 107.9 54.1 107.1 54.9C106.2 55.8 105.8 57 105.8 58.5C105.8 60 106.3 61.3 107.3 62.2C108.4 63.3 110.7 63.5 112.8 62.9C113.2 62.8 113.5 62.6 113.5 62.6C113.5 62.6 113.5 62.2 113.4 62C113.3 61.4 113.4 61.4 112.3 61.7C111.7 61.9 110.1 61.9 109.6 61.7C109.1 61.6 108.4 61.1 108.1 60.7C107.8 60.3 107.5 59.5 107.5 59.1V58.8H110.8Z" fill="#000044"/>
<path d="M101.8 60.0001C101.2 61.6 99.2 62.2 97.9 61.1C97.1 60.4 96.8 59.4 96.9 58.1C96.9 56.7 97.5 55.7001 98.4 55.2001C99.7 54.5001 101.3 55.2 101.8 56.6C102 57.1 102 59.5001 101.8 60.0001ZM103 53.8H102.2V54.1C102.2 54.3 102.2 54.5001 102.2 54.7001V55.0001L101.6 54.5001C100.9 53.8001 99.8 53.5 98.7 53.6C96.5 53.9 95 55.9001 95 58.5001C95 60.9001 96.3 62.7 98.4 63.1C99.6 63.3 100.6 63 101.4 62.2L101.8 61.8001V62.8001C101.7 64.0001 101.5 64.6 100.9 65.2C100 66 98.2 66.1001 96.6 65.4001C96.3 65.3001 96.1 65.2001 96.1 65.3001C96.1 65.3001 95.9 65.6001 95.8 66.0001L95.6 66.6H95.9C96.1 66.8 96.4 67 96.7 67.1C97.4 67.3 99.2 67.4001 100.1 67.3001C101.4 67.0001 102.5 66.3 103 65.2C103.5 64.1 103.5 64.6001 103.6 55.9001V54.0001H102.9L103 53.8Z" fill="#000044"/>
<path d="M132.3 57.7C131.3 57.7 130.4 57.7 130.4 57.7C130.4 57.7 130.7 56.7 131.1 55.6C131.5 54.4 131.9 53.2 132 52.8C132.1 52.4 132.2 52 132.2 52C132.2 52 132.3 52.2 132.5 52.7C132.6 53.1 133 54.4 133.4 55.6C133.8 56.7 134.1 57.7 134.1 57.8C134.1 57.9 133.3 57.8 132.2 57.8L132.3 57.7ZM133.4 50.2C133.4 50.1 133.2 50 132.3 50C131.4 50 131.3 50 131.3 50.1C131.3 50.1 131 51 130.6 51.9C130.3 52.9 129.3 55.8 128.4 58.3L126.8 63H128.6L129.3 61L130 59H132.3H134.6L135.3 61L136 63H136.9C137.4 63 137.8 63 137.8 63C137.8 63 133.5 50.3 133.4 50.2Z" fill="#000044"/>
<path d="M175 59.4C175 60.2 175 60.5 174.8 60.8C174.1 62.2 171.9 62.5 171.4 61.2C171.2 60.7 171.2 60.4 171.4 59.9C171.6 59.1 172.6 58.6 174 58.5C175.3 58.4 175.2 58.2 175.2 59.4M176.8 61C176.8 56.7 176.8 56.3 176.5 55.7C176.1 54.7 175.4 54 174.4 53.7C173.9 53.6 172.9 53.5 172.3 53.6C171.3 53.7 169.9 54.3 170 54.5C170 54.5 170.1 54.8 170.2 55.1C170.2 55.4 170.4 55.6 170.5 55.5C171.5 55.1 171.9 54.9 172.6 54.9C173.2 54.9 173.5 54.9 173.8 55C174.5 55.3 175 56 175 56.8V57.1H174.1C172.9 57.2 172.1 57.4 171.3 57.8C170 58.4 169.4 59.3 169.4 60.6C169.4 61.2 169.4 61.4 169.6 61.8C170.1 62.7 170.7 63.1 171.7 63.3C172.7 63.5 174 63.1 174.7 62.4L175.1 62V62.6L175.2 63.2H176.7V61.1L176.8 61Z" fill="#000044"/>
<path d="M193.4 59.4C193.4 60.2 193.4 60.5 193.2 60.8C192.5 62.2 190.3 62.5 189.8 61.2C189.6 60.7 189.6 60.4 189.8 59.9C190 59.1 191 58.6 192.4 58.5C193.7 58.4 193.6 58.2 193.6 59.4M195.2 61C195.2 56.7 195.2 56.3 194.9 55.7C194.5 54.7 193.8 54 192.8 53.7C192.3 53.6 191.3 53.5 190.7 53.6C189.7 53.7 188.3 54.3 188.4 54.5C188.4 54.5 188.5 54.8 188.6 55.1C188.6 55.4 188.8 55.6 188.9 55.5C189.9 55.1 190.3 54.9 191 54.9C191.6 54.9 191.9 54.9 192.2 55C192.9 55.3 193.4 56 193.4 56.8V57.1H192.5C191.3 57.2 190.5 57.4 189.7 57.8C188.4 58.4 187.8 59.3 187.8 60.6C187.8 61.2 187.8 61.4 188 61.8C188.5 62.7 189.1 63.1 190.1 63.3C191.1 63.5 192.4 63.1 193.1 62.4L193.5 62V62.6L193.6 63.2H195.1V61.1L195.2 61Z" fill="#000044"/>
<path d="M131.1 19.7V35.6H64.5V3.79999H131.1V19.7ZM97.8 0.799988H61.5V38.5H134.1V0.799988H97.8Z" fill="#000044"/>
<path d="M97.3 11.2C96.7 11.2 95.5 11.6 94.9 11.9C92.8 12.8 91.1 14.6 90.4 16.8C90 18 89.9 19 90 20.4C90.2 24.3 92.3 27 95.9 28C96.9 28.3 99.6 28.3 100.8 28.1C101.7 27.9 102.9 27.6 102.9 27.5C102.9 27.3 102.4 24.7 102.3 24.6C102.3 24.6 101.9 24.6 101.5 24.7C100.4 25 98.8 25.1 97.8 24.9C95.3 24.4 93.9 22.5 93.9 19.7C93.9 16.9 95.3 15.1 97.6 14.5C98.5 14.3 100.5 14.4 101.5 14.7C101.9 14.8 102.3 14.9 102.3 14.9C102.3 14.9 102.5 14.2 102.7 13.4C103 12.2 103.1 11.9 103 11.9C102.8 11.8 102 11.5 101.2 11.4C100.5 11.3 98.1 11.2 97.4 11.4L97.3 11.2Z" fill="#000044"/>
<path d="M79.7 11.4C77.6 11.8 76.1 12.6 74.8 13.9C73.8 14.9 73.2 15.9 72.8 17.3C72.6 18.1 72.5 18.2 72.5 20C72.5 21.8 72.5 21.9 72.8 22.7C73.2 24 73.7 24.9 74.6 25.8C76.4 27.6 78.5 28.3 82.1 28.2C83.8 28.2 85.1 27.9 86.5 27.5L87.1 27.3V22.9V18.5H80.8V21.5H83.3V23.2C83.3 24.7 83.3 24.9 83.1 25C82.7 25.1 80.9 25.2 80.2 25C78.3 24.6 77 23.3 76.5 21.4C76.3 20.6 76.3 19 76.5 18.2C77 16.4 78.2 15.1 80.1 14.7C81.3 14.4 83.8 14.6 85.1 15C85.4 15.1 85.6 15.2 85.6 15.2C85.6 15.2 85.8 14.5 86 13.7C86.3 12.6 86.4 12.2 86.3 12.1C86.2 12.1 85.2 11.7 84.5 11.6C83.7 11.4 80.4 11.4 79.6 11.6L79.7 11.4Z" fill="#000044"/>
<path d="M114.2 20.8C114.2 20.8 113.4 20.8 112.4 20.8H110.7L111.2 19C111.5 18 111.9 16.6 112 15.8L112.3 14.3L112.7 16C112.9 16.9 113.4 18.4 113.6 19.2C113.9 20.1 114.1 20.8 114 20.8H114.2ZM117.6 19.5L115.1 11.3H110.1L107.6 19.5C106.2 24 105.1 27.8 105.1 27.8C105.1 27.8 105.8 27.8 107 27.8H109L109.5 25.9C109.8 24.9 110.1 23.9 110.1 23.8V23.5H112.5H114.9L115.3 24.9C115.5 25.6 115.8 26.6 115.9 27L116.1 27.8H118.1C119.4 27.8 120.1 27.8 120.1 27.6C120.1 27.6 118.9 23.8 117.5 19.3L117.6 19.5Z" fill="#000044"/>
<line y1="83.5" x2="194" y2="83.5" stroke="#C9C9C9"/>
<path d="M49.3075 134.5V100H0.00752831V134.5C0.00752831 134.5 -0.692478 147.6 11.4075 151.2C21.4075 154.1 24.6075 156.8 24.6075 156.8C24.6075 156.8 27.8075 154.1 37.8075 151.2C49.9075 147.7 49.2075 134.5 49.2075 134.5" fill="#D1242E"/>
<path d="M3.50754 103.5H0.00753784V107H3.50754V103.5Z" fill="white"/>
<path d="M7.00754 107H3.50754V110.5H7.00754V107Z" fill="white"/>
<path d="M10.5075 103.5H7.00754V107H10.5075V103.5Z" fill="white"/>
<path d="M14.1075 107H10.6075V110.5H14.1075V107Z" fill="white"/>
<path d="M17.6075 110.5H14.1075V114H17.6075V110.5Z" fill="white"/>
<path d="M21.1075 114H17.6075V117.5H21.1075V114Z" fill="white"/>
<path d="M21.1075 107H17.6075V110.5H21.1075V107Z" fill="white"/>
<path d="M24.6075 110.5H21.1075V114H24.6075V110.5Z" fill="white"/>
<path d="M49.3076 107H45.8076V110.5H49.3076V107Z" fill="white"/>
<path d="M45.7076 110.5H42.2076V114H45.7076V110.5Z" fill="white"/>
<path d="M28.1075 114H24.6075V117.5H28.1075V114Z" fill="white"/>
<path d="M31.7076 117.6H28.2076V121.1H31.7076V117.6Z" fill="white"/>
<path d="M42.2076 114H38.7076V117.5H42.2076V114Z" fill="white"/>
<path d="M45.7076 117.6H42.2076V121.1H45.7076V117.6Z" fill="white"/>
<path d="M28.1075 121.1H24.6075V124.6H28.1075V121.1Z" fill="white"/>
<path d="M31.7076 124.6H28.2076V128.1H31.7076V124.6Z" fill="white"/>
<path d="M35.2076 114H31.7076V117.5H35.2076V114Z" fill="white"/>
<path d="M38.7076 117.6H35.2076V121.1H38.7076V117.6Z" fill="white"/>
<path d="M35.2076 121.1H31.7076V124.6H35.2076V121.1Z" fill="white"/>
<path d="M8.80756 143.5C7.30756 143.5 6.20753 143.1 5.40753 142.3C4.60753 141.5 4.20755 140.3 4.20755 138.8V130.8H6.60754V138.9C6.60754 139.6 6.80755 140.2 7.20755 140.6C7.60755 141 8.10756 141.2 8.80756 141.2C9.50756 141.2 10.1075 141 10.5075 140.6C10.9075 140.2 11.1075 139.6 11.1075 138.9V130.8H13.5075V138.8C13.5075 140.3 13.1076 141.4 12.3076 142.3C11.5076 143.1 10.4075 143.5 8.90753 143.5" fill="white"/>
<path d="M16.7076 143.3V141H20.7076C21.2076 141 21.7075 140.9 22.0075 140.6C22.3075 140.3 22.4075 140 22.4075 139.5C22.4075 139 22.3075 138.6 22.0075 138.4C21.7075 138.1 21.3075 138 20.7076 138H16.7076V135.7H20.7076C21.2076 135.7 21.6076 135.6 21.8076 135.3C22.1076 135.1 22.2076 134.7 22.2076 134.3C22.2076 133.9 22.1076 133.6 21.8076 133.3C21.5076 133.1 21.2076 133 20.7076 133H16.7076V130.7H20.8076C22.0076 130.7 23.0075 131 23.6075 131.6C24.3075 132.2 24.6075 133 24.6075 134.1C24.6075 135.2 24.4075 135.4 24.0075 135.9C23.6075 136.4 23.0076 136.7 22.2076 136.8C23.0076 136.9 23.7075 137.2 24.1075 137.8C24.5075 138.4 24.8076 139 24.8076 139.8C24.8076 140.9 24.5076 141.8 23.8076 142.4C23.1076 143 22.2075 143.3 20.9075 143.3H16.7076ZM15.7076 130.7H18.1075V143.3H15.7076V130.7Z" fill="white"/>
<path d="M30.7076 143.5C30.1076 143.5 29.5075 143.5 28.9075 143.3C28.3075 143.2 27.8076 143 27.3076 142.8C26.8076 142.6 26.3075 142.3 25.9075 142L27.0075 140C27.5075 140.4 28.0076 140.7 28.7076 140.9C29.3075 141.1 30.0076 141.2 30.7076 141.2C31.4075 141.2 32.1075 141.1 32.5075 140.8C32.9075 140.5 33.1075 140.2 33.1075 139.7C33.1075 139.3 33.0076 139 32.8076 138.9C32.6076 138.7 32.3075 138.6 32.0075 138.5C31.7075 138.5 31.3075 138.3 30.9075 138.3C30.4075 138.3 29.9075 138.1 29.4075 138C28.9075 137.9 28.4075 137.7 28.0075 137.5C27.6075 137.3 27.2075 136.9 27.0075 136.4C26.7075 135.9 26.6075 135.3 26.6075 134.6C26.6075 133.4 27.0076 132.4 27.8076 131.7C28.6076 131 29.8075 130.7 31.2076 130.7C32.6076 130.7 32.6076 130.8 33.3076 131C34.0076 131.2 34.7076 131.6 35.3076 132L34.3076 134C33.8076 133.7 33.3076 133.4 32.8076 133.2C32.3076 133 31.8076 132.9 31.3076 132.9C30.6076 132.9 30.0075 133 29.6075 133.3C29.2075 133.5 29.0075 133.9 29.0075 134.3C29.0075 134.7 29.1075 135 29.4075 135.2C29.6075 135.4 29.9076 135.6 30.3076 135.7C30.7076 135.8 31.1075 135.9 31.5075 136C32.0075 136 32.5075 136.2 32.9075 136.3C33.4075 136.4 33.8075 136.6 34.2076 136.9C34.6075 137.2 34.9075 137.5 35.2076 137.9C35.4075 138.3 35.6075 138.9 35.6075 139.6C35.6075 140.8 35.2076 141.8 34.3076 142.4C33.5076 143.1 32.3076 143.4 30.8076 143.4" fill="white"/>
<path d="M41.1075 143.5C40.5075 143.5 39.9076 143.5 39.3076 143.3C38.7076 143.2 38.2076 143 37.7076 142.8C37.2076 142.6 36.7076 142.3 36.3076 142L37.4075 140C37.9075 140.4 38.4075 140.7 39.1075 140.9C39.7075 141.1 40.4075 141.2 41.1075 141.2C41.8075 141.2 42.5075 141.1 42.9075 140.8C43.3075 140.5 43.5075 140.2 43.5075 139.7C43.5075 139.3 43.4075 139 43.2076 138.9C43.0076 138.7 42.7075 138.6 42.4075 138.5C42.1075 138.5 41.7076 138.3 41.3076 138.3C40.8076 138.3 40.3076 138.1 39.8076 138C39.3076 137.9 38.8075 137.7 38.4075 137.5C38.0075 137.3 37.6075 136.9 37.4075 136.4C37.1075 135.9 37.0075 135.3 37.0075 134.6C37.0075 133.4 37.4076 132.4 38.2076 131.7C39.0076 131 40.2075 130.7 41.6075 130.7C43.0075 130.7 43.0076 130.8 43.7076 131C44.4075 131.2 45.1075 131.6 45.7076 132L44.7076 134C44.2076 133.7 43.7076 133.4 43.2076 133.2C42.7076 133 42.2076 132.9 41.7076 132.9C41.0076 132.9 40.4075 133 40.0075 133.3C39.6075 133.5 39.4075 133.9 39.4075 134.3C39.4075 134.7 39.5076 135 39.8076 135.2C40.0076 135.4 40.3075 135.6 40.7076 135.7C41.1076 135.8 41.5075 135.9 41.9075 136C42.4075 136 42.9076 136.2 43.3076 136.3C43.8076 136.4 44.2075 136.6 44.6075 136.9C45.0075 137.2 45.3075 137.5 45.6075 137.9C45.8075 138.3 46.0075 138.9 46.0075 139.6C46.0075 140.8 45.6075 141.8 44.7076 142.4C43.9075 143.1 42.7076 143.4 41.2076 143.4" fill="white"/>
<path d="M58.2076 111.4V118.2C58.2076 120.8 59.3075 121.8 60.9075 121.8C62.5075 121.8 63.7076 120.7 63.7076 118.2V111.4H65.2076V118.1C65.2076 121.6 63.4075 123 60.9075 123C58.4075 123 56.8076 121.7 56.8076 118.1V111.4H58.3076H58.2076Z" fill="#D1242E"/>
<path d="M67.5075 122.8V111.4H69.1075L72.8076 117.2C73.6076 118.5 74.3075 119.7 74.9075 120.9C74.8075 119.4 74.7076 118 74.7076 116.2V111.4H76.1075V122.8H74.6075L71.0075 117C70.2075 115.7 69.4075 114.4 68.9075 113.2C68.9075 114.7 69.0075 116 69.0075 117.9V122.8H67.6075H67.5075Z" fill="#D1242E"/>
<path d="M79.9075 111.4H78.4075V122.8H79.9075V111.4Z" fill="#D1242E"/>
<path d="M84.7076 122.8L81.0075 111.4H82.6075L84.4075 117C84.9075 118.5 85.3075 119.9 85.6075 121.3C85.9075 120 86.4075 118.5 86.9075 117L88.8076 111.4H90.4075L86.3076 122.8H84.7076Z" fill="#D1242E"/>
<path d="M97.3076 117.5H92.8076V121.6H97.8076V122.8H91.4075V111.4H97.5075V112.6H92.8076V116.2H97.3076V117.5Z" fill="#D1242E"/>
<path d="M100.908 116.7H102.408C104.008 116.7 105.008 115.8 105.008 114.5C105.008 113.2 103.908 112.4 102.408 112.4C101.708 112.4 101.208 112.4 100.908 112.5V116.7ZM99.4075 111.5C100.108 111.3 101.208 111.3 102.208 111.3C103.808 111.3 104.808 111.6 105.508 112.2C106.108 112.7 106.408 113.5 106.408 114.4C106.408 115.9 105.408 116.9 104.208 117.3C105.108 117.7 105.608 118.5 105.908 119.7C106.308 121.3 106.508 122.4 106.808 122.8H105.308C105.108 122.5 104.908 121.5 104.508 120.1C104.208 118.5 103.608 117.9 102.208 117.9H100.808V122.9H99.3076V111.6L99.4075 111.5Z" fill="#D1242E"/>
<path d="M108.108 121C108.808 121.4 109.708 121.7 110.708 121.7C112.208 121.7 113.108 120.9 113.108 119.7C113.108 118.5 112.508 118 110.908 117.4C109.008 116.7 107.908 115.8 107.908 114.2C107.908 112.6 109.408 111.1 111.608 111.1C113.808 111.1 113.608 111.4 114.108 111.7L113.708 112.9C113.308 112.7 112.608 112.4 111.508 112.4C109.908 112.4 109.308 113.3 109.308 114.1C109.308 114.9 110.008 115.7 111.608 116.3C113.508 117 114.508 118 114.508 119.7C114.508 121.4 113.208 123 110.508 123C107.808 123 108.208 122.7 107.608 122.3L108.008 121.1L108.108 121Z" fill="#D1242E"/>
<path d="M122.008 118.1L120.908 114.8C120.608 114.1 120.508 113.4 120.308 112.7C120.108 113.4 119.908 114.1 119.708 114.8L118.608 118.1H122.008ZM118.308 119.2L117.108 122.8H115.608L119.508 111.4H121.308L125.208 122.8H123.608L122.408 119.2H118.308Z" fill="#D1242E"/>
<path d="M126.508 111.4H128.008V121.6H132.908V122.8H126.508V111.4Z" fill="#D1242E"/>
<path d="M59.3076 137.6C59.6076 137.6 59.9076 137.6 60.3076 137.6C61.5076 137.6 62.5075 137.2 62.5075 136C62.5075 134.8 61.5076 134.4 60.2076 134.4H59.3076V137.6ZM59.3076 132.6H60.1075C61.5075 132.6 62.2076 132 62.2076 131.2C62.2076 130.4 61.5075 129.9 60.4075 129.9C59.3075 129.9 59.5076 129.9 59.3076 129.9V132.6ZM56.7076 128.2C57.4076 128.1 58.8075 128 60.0075 128C61.2075 128 62.5075 128.2 63.4075 128.6C64.2075 129 64.8076 129.8 64.8076 130.8C64.8076 131.8 64.2075 132.8 62.9075 133.2C64.2075 133.6 65.2076 134.6 65.2076 136C65.2076 137.4 64.7075 137.8 64.0075 138.4C63.2075 139.1 61.8075 139.4 59.5075 139.4C57.2075 139.4 57.3076 139.4 56.7076 139.2V128V128.2Z" fill="#D1242E"/>
<path d="M69.3076 128V134.6C69.3076 136.6 70.0075 137.6 71.4075 137.6C72.8075 137.6 73.5075 136.6 73.5075 134.6V128H76.1075V134.4C76.1075 137.9 74.3076 139.6 71.3076 139.6C68.3076 139.6 66.7076 138 66.7076 134.4V128H69.3076Z" fill="#D1242E"/>
<path d="M78.1075 136.8C78.8075 137.2 79.9075 137.5 81.0075 137.5C82.1075 137.5 82.8076 137 82.8076 136.3C82.8076 135.6 82.3075 135.2 80.9075 134.7C79.0075 134 77.8076 133 77.8076 131.3C77.8076 129.6 79.4075 127.9 82.1075 127.9C84.8075 127.9 84.3075 128.2 85.0075 128.5L84.4075 130.6C83.9075 130.4 83.1075 130.1 82.0075 130.1C80.9075 130.1 80.3076 130.6 80.3076 131.2C80.3076 131.8 80.9075 132.3 82.4075 132.8C84.4075 133.5 85.4075 134.6 85.4075 136.2C85.4075 137.8 83.9076 139.7 80.8076 139.7C77.7076 139.7 78.2075 139.4 77.6075 139L78.1075 136.9V136.8Z" fill="#D1242E"/>
<path d="M89.5075 128H86.9075V139.4H89.5075V128Z" fill="#D1242E"/>
<path d="M91.5075 139.5V128.1H94.5075L96.9075 132.3C97.6075 133.5 98.3076 134.9 98.8076 136.2C98.6076 134.7 98.6075 133.1 98.6075 131.4V128.1H101.008V139.5H98.3076L95.9075 135.1C95.2075 133.9 94.5075 132.4 93.9075 131.1C93.9075 132.6 94.0075 134.2 94.0075 136.1V139.5H91.6075H91.5075Z" fill="#D1242E"/>
<path d="M109.708 134.6H105.508V137.3H110.208V139.5H102.908V128H110.008V130.1H105.508V132.5H109.708V134.6Z" fill="#D1242E"/>
<path d="M111.808 136.8C112.508 137.2 113.608 137.5 114.708 137.5C115.808 137.5 116.508 137 116.508 136.3C116.508 135.6 116.008 135.2 114.608 134.7C112.708 134 111.508 133 111.508 131.3C111.508 129.6 113.108 127.9 115.808 127.9C118.508 127.9 118.008 128.2 118.708 128.5L118.108 130.6C117.608 130.4 116.808 130.1 115.708 130.1C114.608 130.1 114.008 130.6 114.008 131.2C114.008 131.8 114.608 132.3 116.108 132.8C118.108 133.5 119.108 134.6 119.108 136.2C119.108 137.8 117.608 139.7 114.508 139.7C111.408 139.7 111.908 139.4 111.308 139L111.808 136.9V136.8Z" fill="#D1242E"/>
<path d="M120.708 136.8C121.408 137.2 122.508 137.5 123.608 137.5C124.708 137.5 125.408 137 125.408 136.3C125.408 135.6 124.908 135.2 123.508 134.7C121.608 134 120.408 133 120.408 131.3C120.408 129.6 122.008 127.9 124.708 127.9C127.408 127.9 126.908 128.2 127.608 128.5L127.008 130.6C126.508 130.4 125.708 130.1 124.608 130.1C123.508 130.1 122.908 130.6 122.908 131.2C122.908 131.8 123.508 132.3 125.008 132.8C127.008 133.5 128.008 134.6 128.008 136.2C128.008 137.8 126.508 139.7 123.408 139.7C120.308 139.7 120.808 139.4 120.208 139L120.708 136.9V136.8Z" fill="#D1242E"/>
<path d="M132.808 136.8C133.508 137.2 134.608 137.5 135.708 137.5C136.808 137.5 137.508 137 137.508 136.3C137.508 135.6 137.008 135.2 135.608 134.7C133.708 134 132.508 133 132.508 131.3C132.508 129.6 134.108 127.9 136.808 127.9C139.508 127.9 139.008 128.2 139.708 128.5L139.108 130.6C138.608 130.4 137.808 130.1 136.708 130.1C135.608 130.1 135.008 130.6 135.008 131.2C135.008 131.8 135.608 132.3 137.108 132.8C139.108 133.5 140.108 134.6 140.108 136.2C140.108 137.8 138.608 139.7 135.508 139.7C132.408 139.7 132.908 139.4 132.308 139L132.808 136.9V136.8Z" fill="#D1242E"/>
<path d="M150.008 139.1C149.508 139.3 148.508 139.6 147.108 139.6C143.208 139.6 141.108 137.1 141.108 133.9C141.108 130.7 143.908 127.8 147.308 127.8C150.708 127.8 149.708 128.1 150.108 128.3L149.608 130.4C149.108 130.2 148.308 130 147.408 130C145.408 130 143.808 131.2 143.808 133.8C143.808 136.4 145.208 137.5 147.508 137.5C149.808 137.5 149.108 137.3 149.708 137.1L150.108 139.1H150.008Z" fill="#D1242E"/>
<path d="M154.008 128V132.4H158.208V128H160.808V139.5H158.208V134.7H154.008V139.5H151.408V128H154.008Z" fill="#D1242E"/>
<path d="M165.008 133.8C165.008 136 166.108 137.6 167.808 137.6C169.508 137.6 170.508 135.9 170.508 133.7C170.508 131.5 169.508 129.9 167.708 129.9C165.908 129.9 164.908 131.6 164.908 133.8M173.308 133.6C173.308 137.3 171.008 139.6 167.708 139.6C164.408 139.6 162.308 137 162.308 133.8C162.308 130.6 164.508 127.8 167.908 127.8C171.308 127.8 173.308 130.4 173.308 133.6Z" fill="#D1242E"/>
<path d="M176.908 133.8C176.908 136 178.008 137.6 179.708 137.6C181.408 137.6 182.408 135.9 182.408 133.7C182.408 131.5 181.408 129.9 179.608 129.9C177.808 129.9 176.808 131.6 176.808 133.8M185.208 133.6C185.208 137.3 182.908 139.6 179.608 139.6C176.308 139.6 174.208 137 174.208 133.8C174.208 130.6 176.408 127.8 179.808 127.8C183.208 127.8 185.208 130.4 185.208 133.6Z" fill="#D1242E"/>
<path d="M186.608 128V139.5H193.808V137.3H189.208V128H186.608Z" fill="#D1242E"/>
<path d="M61.058 147.417C61.0292 147.148 60.9078 146.938 60.6939 146.788C60.482 146.638 60.2063 146.563 59.8668 146.563C59.6282 146.563 59.4235 146.599 59.2527 146.671C59.082 146.743 58.9513 146.84 58.8608 146.964C58.7703 147.087 58.724 147.228 58.722 147.387C58.722 147.518 58.7518 147.632 58.8114 147.729C58.8732 147.826 58.9565 147.908 59.0614 147.976C59.1663 148.042 59.2826 148.097 59.4101 148.143C59.5377 148.188 59.6663 148.226 59.7959 148.257L60.3884 148.405C60.627 148.46 60.8564 148.536 61.0765 148.63C61.2987 148.725 61.4972 148.844 61.6721 148.988C61.849 149.132 61.9889 149.306 62.0918 149.51C62.1947 149.713 62.2461 149.952 62.2461 150.226C62.2461 150.596 62.1515 150.922 61.9622 151.204C61.7729 151.484 61.4993 151.703 61.1413 151.861C60.7854 152.017 60.3544 152.096 59.8483 152.096C59.3566 152.096 58.9297 152.02 58.5677 151.867C58.2076 151.715 57.9258 151.493 57.7221 151.201C57.5205 150.909 57.4115 150.553 57.395 150.133H58.5214C58.5378 150.353 58.6057 150.536 58.725 150.682C58.8444 150.828 58.9997 150.937 59.191 151.009C59.3844 151.081 59.6004 151.117 59.8391 151.117C60.088 151.117 60.3061 151.08 60.4933 151.006C60.6826 150.93 60.8307 150.825 60.9377 150.692C61.0446 150.556 61.0992 150.397 61.1012 150.216C61.0992 150.052 61.0508 149.916 60.9562 149.809C60.8615 149.7 60.7288 149.609 60.5581 149.537C60.3894 149.463 60.1919 149.398 59.9656 149.34L59.2466 149.155C58.7261 149.021 58.3146 148.818 58.0122 148.547C57.7118 148.273 57.5616 147.91 57.5616 147.457C57.5616 147.085 57.6624 146.759 57.8641 146.479C58.0677 146.199 58.3444 145.982 58.6942 145.828C59.0439 145.672 59.4399 145.594 59.8823 145.594C60.3308 145.594 60.7237 145.672 61.0611 145.828C61.4005 145.982 61.667 146.197 61.8604 146.473C62.0537 146.747 62.1535 147.061 62.1597 147.417H61.058ZM63.9117 153.778C63.7595 153.778 63.6186 153.765 63.489 153.74C63.3614 153.718 63.2596 153.691 63.1834 153.66L63.4427 152.79C63.6052 152.837 63.7502 152.86 63.8778 152.858C64.0053 152.856 64.1175 152.816 64.2141 152.738C64.3129 152.661 64.3962 152.534 64.4641 152.355L64.5598 152.099L62.8409 147.26H64.0259L65.1183 150.84H65.1677L66.2632 147.26H67.4513L65.5534 152.574C65.465 152.825 65.3477 153.04 65.2017 153.219C65.0556 153.4 64.8766 153.538 64.6647 153.632C64.4549 153.729 64.2039 153.778 63.9117 153.778ZM69.8221 152.083C69.4497 152.083 69.1164 151.988 68.8222 151.796C68.528 151.605 68.2956 151.327 68.1248 150.963C67.954 150.599 67.8687 150.157 67.8687 149.636C67.8687 149.11 67.9551 148.665 68.1279 148.303C68.3028 147.939 68.5383 147.664 68.8346 147.479C69.1308 147.292 69.461 147.198 69.8252 147.198C70.1029 147.198 70.3312 147.246 70.5102 147.34C70.6892 147.433 70.8312 147.545 70.9361 147.677C71.041 147.806 71.1223 147.929 71.1799 148.044H71.2262V145.68H72.3464V152H71.2478V151.253H71.1799C71.1223 151.368 71.039 151.491 70.9299 151.62C70.8209 151.748 70.6769 151.857 70.4979 151.948C70.3189 152.038 70.0936 152.083 69.8221 152.083ZM70.1337 151.167C70.3703 151.167 70.572 151.103 70.7386 150.975C70.9052 150.846 71.0318 150.666 71.1182 150.435C71.2046 150.205 71.2478 149.937 71.2478 149.63C71.2478 149.323 71.2046 149.057 71.1182 148.831C71.0338 148.604 70.9083 148.429 70.7417 148.303C70.5771 148.178 70.3745 148.115 70.1337 148.115C69.8848 148.115 69.677 148.18 69.5104 148.309C69.3437 148.439 69.2183 148.618 69.1339 148.846C69.0496 149.075 69.0074 149.336 69.0074 149.63C69.0074 149.926 69.0496 150.191 69.1339 150.423C69.2203 150.654 69.3468 150.836 69.5135 150.969C69.6822 151.101 69.8889 151.167 70.1337 151.167ZM74.6539 149.223V152H73.5368V147.26H74.6045V148.065H74.66C74.7691 147.8 74.9429 147.589 75.1816 147.433C75.4223 147.276 75.7196 147.198 76.0734 147.198C76.4005 147.198 76.6855 147.268 76.9282 147.408C77.173 147.548 77.3623 147.751 77.496 148.016C77.6318 148.281 77.6987 148.603 77.6966 148.982V152H76.5795V149.155C76.5795 148.838 76.4972 148.59 76.3326 148.411C76.1701 148.232 75.9448 148.143 75.6568 148.143C75.4614 148.143 75.2875 148.186 75.1353 148.272C74.9851 148.357 74.8668 148.479 74.7804 148.639C74.6961 148.8 74.6539 148.994 74.6539 149.223ZM80.9307 152.093C80.4554 152.093 80.045 151.994 79.6994 151.796C79.3558 151.597 79.0915 151.315 78.9063 150.951C78.7211 150.585 78.6286 150.154 78.6286 149.658C78.6286 149.17 78.7211 148.742 78.9063 148.374C79.0935 148.004 79.3548 147.716 79.6901 147.51C80.0255 147.302 80.4194 147.198 80.872 147.198C81.1642 147.198 81.4399 147.246 81.6991 147.34C81.9603 147.433 82.1908 147.577 82.3903 147.772C82.5919 147.968 82.7503 148.217 82.8656 148.519C82.9808 148.819 83.0384 149.177 83.0384 149.593V149.936H79.1532V149.183H81.9675C81.9655 148.969 81.9192 148.778 81.8287 148.612C81.7382 148.443 81.6116 148.31 81.4491 148.214C81.2886 148.117 81.1014 148.069 80.8875 148.069C80.6591 148.069 80.4585 148.124 80.2857 148.235C80.1129 148.344 79.9781 148.488 79.8815 148.667C79.7868 148.844 79.7385 149.039 79.7364 149.25V149.908C79.7364 150.183 79.7868 150.42 79.8876 150.618C79.9884 150.813 80.1294 150.963 80.3104 151.068C80.4914 151.171 80.7033 151.222 80.9461 151.222C81.1086 151.222 81.2557 151.2 81.3874 151.154C81.5191 151.107 81.6332 151.038 81.7299 150.948C81.8266 150.857 81.8997 150.745 81.949 150.611L82.9921 150.729C82.9262 151.004 82.8008 151.245 82.6156 151.451C82.4325 151.654 82.198 151.813 81.912 151.926C81.626 152.037 81.2989 152.093 80.9307 152.093ZM84.542 153.778C84.3898 153.778 84.2488 153.765 84.1192 153.74C83.9917 153.718 83.8898 153.691 83.8137 153.66L84.0729 152.79C84.2355 152.837 84.3805 152.86 84.508 152.858C84.6356 152.856 84.7477 152.816 84.8444 152.738C84.9432 152.661 85.0265 152.534 85.0944 152.355L85.19 152.099L83.4712 147.26H84.6562L85.7486 150.84H85.798L86.8935 147.26H88.0816L86.1837 152.574C86.0952 152.825 85.978 153.04 85.8319 153.219C85.6858 153.4 85.5069 153.538 85.295 153.632C85.0851 153.729 84.8341 153.778 84.542 153.778ZM92.5099 143.643V154.037H91.473V143.643H92.5099ZM96.3295 145.68H97.7305L99.6068 150.26H99.6808L101.557 145.68H102.958V152H101.859V147.658H101.801L100.054 151.981H99.2334L97.4867 147.649H97.4281V152H96.3295V145.68ZM106.254 152.093C105.779 152.093 105.368 151.994 105.023 151.796C104.679 151.597 104.415 151.315 104.229 150.951C104.044 150.585 103.952 150.154 103.952 149.658C103.952 149.17 104.044 148.742 104.229 148.374C104.417 148.004 104.678 147.716 105.013 147.51C105.349 147.302 105.743 147.198 106.195 147.198C106.487 147.198 106.763 147.246 107.022 147.34C107.284 147.433 107.514 147.577 107.714 147.772C107.915 147.968 108.074 148.217 108.189 148.519C108.304 148.819 108.362 149.177 108.362 149.593V149.936H104.476V149.183H107.291C107.289 148.969 107.242 148.778 107.152 148.612C107.061 148.443 106.935 148.31 106.772 148.214C106.612 148.117 106.425 148.069 106.211 148.069C105.982 148.069 105.782 148.124 105.609 148.235C105.436 148.344 105.301 148.488 105.205 148.667C105.11 148.844 105.062 149.039 105.06 149.25V149.908C105.06 150.183 105.11 150.42 105.211 150.618C105.312 150.813 105.453 150.963 105.634 151.068C105.815 151.171 106.027 151.222 106.269 151.222C106.432 151.222 106.579 151.2 106.711 151.154C106.842 151.107 106.956 151.038 107.053 150.948C107.15 150.857 107.223 150.745 107.272 150.611L108.315 150.729C108.249 151.004 108.124 151.245 107.939 151.451C107.756 151.654 107.521 151.813 107.235 151.926C106.949 152.037 106.622 152.093 106.254 152.093ZM110.424 145.68V152H109.307V145.68H110.424ZM111.622 152V145.68H112.739V148.044H112.785C112.843 147.929 112.924 147.806 113.029 147.677C113.134 147.545 113.276 147.433 113.455 147.34C113.634 147.246 113.862 147.198 114.14 147.198C114.506 147.198 114.836 147.292 115.131 147.479C115.427 147.664 115.661 147.939 115.834 148.303C116.009 148.665 116.096 149.11 116.096 149.636C116.096 150.157 116.011 150.599 115.84 150.963C115.67 151.327 115.437 151.605 115.143 151.796C114.849 151.988 114.515 152.083 114.143 152.083C113.872 152.083 113.646 152.038 113.467 151.948C113.288 151.857 113.144 151.748 113.035 151.62C112.928 151.491 112.845 151.368 112.785 151.253H112.72V152H111.622ZM112.717 149.63C112.717 149.937 112.761 150.205 112.847 150.435C112.935 150.666 113.062 150.846 113.227 150.975C113.393 151.103 113.595 151.167 113.831 151.167C114.078 151.167 114.285 151.101 114.452 150.969C114.618 150.836 114.744 150.654 114.828 150.423C114.915 150.191 114.958 149.926 114.958 149.63C114.958 149.336 114.916 149.075 114.831 148.846C114.747 148.618 114.621 148.439 114.455 148.309C114.288 148.18 114.08 148.115 113.831 148.115C113.593 148.115 113.39 148.178 113.223 148.303C113.057 148.429 112.93 148.604 112.844 148.831C112.76 149.057 112.717 149.323 112.717 149.63ZM119.114 152.093C118.651 152.093 118.25 151.991 117.91 151.787C117.571 151.583 117.307 151.298 117.12 150.932C116.935 150.566 116.842 150.138 116.842 149.649C116.842 149.159 116.935 148.73 117.12 148.362C117.307 147.993 117.571 147.707 117.91 147.504C118.25 147.3 118.651 147.198 119.114 147.198C119.577 147.198 119.978 147.3 120.317 147.504C120.657 147.707 120.919 147.993 121.104 148.362C121.291 148.73 121.385 149.159 121.385 149.649C121.385 150.138 121.291 150.566 121.104 150.932C120.919 151.298 120.657 151.583 120.317 151.787C119.978 151.991 119.577 152.093 119.114 152.093ZM119.12 151.198C119.371 151.198 119.581 151.129 119.749 150.991C119.918 150.851 120.044 150.664 120.126 150.429C120.21 150.195 120.252 149.933 120.252 149.645C120.252 149.355 120.21 149.093 120.126 148.859C120.044 148.622 119.918 148.434 119.749 148.294C119.581 148.154 119.371 148.084 119.12 148.084C118.863 148.084 118.649 148.154 118.478 148.294C118.309 148.434 118.183 148.622 118.098 148.859C118.016 149.093 117.975 149.355 117.975 149.645C117.975 149.933 118.016 150.195 118.098 150.429C118.183 150.664 118.309 150.851 118.478 150.991C118.649 151.129 118.863 151.198 119.12 151.198ZM125.354 150.006V147.26H126.471V152H125.388V151.158H125.339C125.232 151.423 125.056 151.64 124.811 151.809C124.568 151.977 124.269 152.062 123.913 152.062C123.602 152.062 123.328 151.993 123.089 151.855C122.853 151.715 122.667 151.512 122.534 151.247C122.4 150.98 122.333 150.657 122.333 150.278V147.26H123.45V150.105C123.45 150.406 123.533 150.644 123.697 150.821C123.862 150.998 124.078 151.087 124.345 151.087C124.51 151.087 124.669 151.046 124.823 150.966C124.978 150.886 125.104 150.767 125.203 150.608C125.304 150.448 125.354 150.247 125.354 150.006ZM127.62 152V147.26H128.703V148.05H128.753C128.839 147.776 128.987 147.566 129.197 147.417C129.409 147.267 129.651 147.192 129.922 147.192C129.984 147.192 130.053 147.195 130.129 147.201C130.207 147.205 130.272 147.213 130.323 147.223V148.251C130.276 148.234 130.201 148.22 130.098 148.207C129.997 148.193 129.9 148.186 129.805 148.186C129.601 148.186 129.418 148.23 129.256 148.318C129.095 148.405 128.969 148.525 128.876 148.68C128.784 148.834 128.737 149.012 128.737 149.213V152H127.62ZM132.183 149.223V152H131.066V147.26H132.133V148.065H132.189C132.298 147.8 132.472 147.589 132.71 147.433C132.951 147.276 133.248 147.198 133.602 147.198C133.929 147.198 134.214 147.268 134.457 147.408C134.702 147.548 134.891 147.751 135.025 148.016C135.161 148.281 135.227 148.603 135.225 148.982V152H134.108V149.155C134.108 148.838 134.026 148.59 133.861 148.411C133.699 148.232 133.474 148.143 133.186 148.143C132.99 148.143 132.816 148.186 132.664 148.272C132.514 148.357 132.396 148.479 132.309 148.639C132.225 148.8 132.183 148.994 132.183 149.223ZM138.459 152.093C137.984 152.093 137.574 151.994 137.228 151.796C136.885 151.597 136.62 151.315 136.435 150.951C136.25 150.585 136.157 150.154 136.157 149.658C136.157 149.17 136.25 148.742 136.435 148.374C136.622 148.004 136.884 147.716 137.219 147.51C137.554 147.302 137.948 147.198 138.401 147.198C138.693 147.198 138.969 147.246 139.228 147.34C139.489 147.433 139.72 147.577 139.919 147.772C140.121 147.968 140.279 148.217 140.394 148.519C140.51 148.819 140.567 149.177 140.567 149.593V149.936H136.682V149.183H139.496C139.494 148.969 139.448 148.778 139.357 148.612C139.267 148.443 139.14 148.31 138.978 148.214C138.817 148.117 138.63 148.069 138.416 148.069C138.188 148.069 137.987 148.124 137.815 148.235C137.642 148.344 137.507 148.488 137.41 148.667C137.316 148.844 137.267 149.039 137.265 149.25V149.908C137.265 150.183 137.316 150.42 137.416 150.618C137.517 150.813 137.658 150.963 137.839 151.068C138.02 151.171 138.232 151.222 138.475 151.222C138.637 151.222 138.785 151.2 138.916 151.154C139.048 151.107 139.162 151.038 139.259 150.948C139.355 150.857 139.428 150.745 139.478 150.611L140.521 150.729C140.455 151.004 140.33 151.245 140.144 151.451C139.961 151.654 139.727 151.813 139.441 151.926C139.155 152.037 138.828 152.093 138.459 152.093ZM145.168 143.643V154.037H144.131V143.643H145.168ZM149.799 152H148.577L150.802 145.68H152.215L154.443 152H153.221L151.533 146.976H151.484L149.799 152ZM149.839 149.522H153.172V150.442H149.839V149.522ZM156.841 152.083C156.469 152.083 156.135 151.988 155.841 151.796C155.547 151.605 155.314 151.327 155.144 150.963C154.973 150.599 154.887 150.157 154.887 149.636C154.887 149.11 154.974 148.665 155.147 148.303C155.322 147.939 155.557 147.664 155.853 147.479C156.15 147.292 156.48 147.198 156.844 147.198C157.122 147.198 157.35 147.246 157.529 147.34C157.708 147.433 157.85 147.545 157.955 147.677C158.06 147.806 158.141 147.929 158.199 148.044H158.245V145.68H159.365V152H158.267V151.253H158.199C158.141 151.368 158.058 151.491 157.949 151.62C157.84 151.748 157.696 151.857 157.517 151.948C157.338 152.038 157.112 152.083 156.841 152.083ZM157.153 151.167C157.389 151.167 157.591 151.103 157.757 150.975C157.924 150.846 158.051 150.666 158.137 150.435C158.223 150.205 158.267 149.937 158.267 149.63C158.267 149.323 158.223 149.057 158.137 148.831C158.053 148.604 157.927 148.429 157.76 148.303C157.596 148.178 157.393 148.115 157.153 148.115C156.904 148.115 156.696 148.18 156.529 148.309C156.363 148.439 156.237 148.618 156.153 148.846C156.068 149.075 156.026 149.336 156.026 149.63C156.026 149.926 156.068 150.191 156.153 150.423C156.239 150.654 156.366 150.836 156.532 150.969C156.701 151.101 156.908 151.167 157.153 151.167ZM162.654 152.093C162.179 152.093 161.768 151.994 161.423 151.796C161.079 151.597 160.815 151.315 160.63 150.951C160.444 150.585 160.352 150.154 160.352 149.658C160.352 149.17 160.444 148.742 160.63 148.374C160.817 148.004 161.078 147.716 161.413 147.51C161.749 147.302 162.143 147.198 162.595 147.198C162.888 147.198 163.163 147.246 163.422 147.34C163.684 147.433 163.914 147.577 164.114 147.772C164.315 147.968 164.474 148.217 164.589 148.519C164.704 148.819 164.762 149.177 164.762 149.593V149.936H160.877V149.183H163.691C163.689 148.969 163.643 148.778 163.552 148.612C163.461 148.443 163.335 148.31 163.172 148.214C163.012 148.117 162.825 148.069 162.611 148.069C162.382 148.069 162.182 148.124 162.009 148.235C161.836 148.344 161.701 148.488 161.605 148.667C161.51 148.844 161.462 149.039 161.46 149.25V149.908C161.46 150.183 161.51 150.42 161.611 150.618C161.712 150.813 161.853 150.963 162.034 151.068C162.215 151.171 162.427 151.222 162.669 151.222C162.832 151.222 162.979 151.2 163.111 151.154C163.242 151.107 163.357 151.038 163.453 150.948C163.55 150.857 163.623 150.745 163.672 150.611L164.715 150.729C164.65 151.004 164.524 151.245 164.339 151.451C164.156 151.654 163.921 151.813 163.635 151.926C163.349 152.037 163.022 152.093 162.654 152.093ZM166.824 145.68V152H165.707V145.68H166.824ZM169.337 152.096C169.036 152.096 168.766 152.042 168.525 151.935C168.286 151.826 168.097 151.666 167.957 151.454C167.819 151.242 167.75 150.981 167.75 150.67C167.75 150.403 167.8 150.181 167.899 150.006C167.997 149.832 168.132 149.692 168.303 149.587C168.474 149.482 168.666 149.403 168.88 149.349C169.096 149.294 169.319 149.254 169.55 149.229C169.827 149.2 170.053 149.174 170.225 149.152C170.398 149.127 170.524 149.09 170.602 149.041C170.682 148.989 170.722 148.91 170.722 148.803V148.784C170.722 148.552 170.653 148.372 170.515 148.244C170.378 148.117 170.179 148.053 169.92 148.053C169.646 148.053 169.429 148.113 169.269 148.232C169.11 148.351 169.003 148.492 168.948 148.655L167.905 148.507C167.987 148.219 168.123 147.978 168.312 147.785C168.501 147.589 168.733 147.443 169.006 147.346C169.28 147.248 169.582 147.198 169.914 147.198C170.142 147.198 170.369 147.225 170.596 147.279C170.822 147.332 171.029 147.42 171.216 147.544C171.403 147.665 171.553 147.831 171.666 148.041C171.782 148.251 171.839 148.513 171.839 148.828V152H170.765V151.349H170.728C170.66 151.481 170.565 151.604 170.441 151.719C170.32 151.832 170.167 151.924 169.982 151.994C169.798 152.062 169.583 152.096 169.337 152.096ZM169.627 151.275C169.851 151.275 170.045 151.231 170.21 151.142C170.375 151.052 170.501 150.932 170.589 150.784C170.68 150.636 170.725 150.475 170.725 150.3V149.741C170.69 149.77 170.631 149.797 170.546 149.821C170.464 149.846 170.371 149.868 170.269 149.886C170.166 149.905 170.064 149.921 169.963 149.936C169.862 149.95 169.775 149.962 169.701 149.973C169.534 149.995 169.385 150.032 169.253 150.084C169.122 150.135 169.018 150.207 168.942 150.3C168.865 150.39 168.827 150.507 168.827 150.651C168.827 150.857 168.903 151.013 169.053 151.117C169.203 151.222 169.394 151.275 169.627 151.275ZM172.963 152V147.26H174.08V152H172.963ZM173.524 146.587C173.347 146.587 173.195 146.529 173.068 146.411C172.94 146.292 172.876 146.149 172.876 145.982C172.876 145.814 172.94 145.671 173.068 145.553C173.195 145.434 173.347 145.374 173.524 145.374C173.703 145.374 173.855 145.434 173.981 145.553C174.108 145.671 174.172 145.814 174.172 145.982C174.172 146.149 174.108 146.292 173.981 146.411C173.855 146.529 173.703 146.587 173.524 146.587ZM176.987 152.083C176.615 152.083 176.282 151.988 175.988 151.796C175.693 151.605 175.461 151.327 175.29 150.963C175.119 150.599 175.034 150.157 175.034 149.636C175.034 149.11 175.12 148.665 175.293 148.303C175.468 147.939 175.704 147.664 176 147.479C176.296 147.292 176.626 147.198 176.991 147.198C177.268 147.198 177.497 147.246 177.676 147.34C177.855 147.433 177.997 147.545 178.101 147.677C178.206 147.806 178.288 147.929 178.345 148.044H178.392V145.68H179.512V152H178.413V151.253H178.345C178.288 151.368 178.204 151.491 178.095 151.62C177.986 151.748 177.842 151.857 177.663 151.948C177.484 152.038 177.259 152.083 176.987 152.083ZM177.299 151.167C177.536 151.167 177.737 151.103 177.904 150.975C178.071 150.846 178.197 150.666 178.284 150.435C178.37 150.205 178.413 149.937 178.413 149.63C178.413 149.323 178.37 149.057 178.284 148.831C178.199 148.604 178.074 148.429 177.907 148.303C177.742 148.178 177.54 148.115 177.299 148.115C177.05 148.115 176.842 148.18 176.676 148.309C176.509 148.439 176.384 148.618 176.299 148.846C176.215 149.075 176.173 149.336 176.173 149.63C176.173 149.926 176.215 150.191 176.299 150.423C176.386 150.654 176.512 150.836 176.679 150.969C176.848 151.101 177.054 151.167 177.299 151.167ZM182.801 152.093C182.325 152.093 181.915 151.994 181.569 151.796C181.226 151.597 180.961 151.315 180.776 150.951C180.591 150.585 180.498 150.154 180.498 149.658C180.498 149.17 180.591 148.742 180.776 148.374C180.963 148.004 181.225 147.716 181.56 147.51C181.895 147.302 182.289 147.198 182.742 147.198C183.034 147.198 183.31 147.246 183.569 147.34C183.83 147.433 184.061 147.577 184.26 147.772C184.462 147.968 184.62 148.217 184.735 148.519C184.851 148.819 184.908 149.177 184.908 149.593V149.936H181.023V149.183H183.837C183.835 148.969 183.789 148.778 183.699 148.612C183.608 148.443 183.482 148.31 183.319 148.214C183.159 148.117 182.971 148.069 182.757 148.069C182.529 148.069 182.328 148.124 182.156 148.235C181.983 148.344 181.848 148.488 181.751 148.667C181.657 148.844 181.608 149.039 181.606 149.25V149.908C181.606 150.183 181.657 150.42 181.758 150.618C181.858 150.813 181.999 150.963 182.18 151.068C182.361 151.171 182.573 151.222 182.816 151.222C182.979 151.222 183.126 151.2 183.257 151.154C183.389 151.107 183.503 151.038 183.6 150.948C183.697 150.857 183.77 150.745 183.819 150.611L184.862 150.729C184.796 151.004 184.671 151.245 184.485 151.451C184.302 151.654 184.068 151.813 183.782 151.926C183.496 152.037 183.169 152.093 182.801 152.093Z" fill="black"/>
</g>
<defs>
<clipPath id="clip0_148_1663">
<rect width="195" height="158" fill="white"/>
</clipPath>
</defs>
</svg>
